<?xml version="1.0" encoding="UTF-8" standalone="no"?>
<!-- Generator: Adobe Illustrator 24.3.0, SVG Export Plug-In . SVG Version: 6.00 Build 0)  -->

<svg
   version="1.1"
   id="Layer_1"
   x="0px"
   y="0px"
   viewBox="0 0 230 120"
   xml:space="preserve"
   sodipodi:docname="colorado.svg"
   width="230"
   height="120"
   inkscape:version="1.1.2 (0a00cf5339, 2022-02-04, custom)"
   xmlns:inkscape="http://www.inkscape.org/namespaces/inkscape"
   xmlns:sodipodi="http://sodipodi.sourceforge.net/DTD/sodipodi-0.dtd"
   xmlns="http://www.w3.org/2000/svg"
   xmlns:svg="http://www.w3.org/2000/svg"><defs
   id="defs6412" /><sodipodi:namedview
   id="namedview6410"
   pagecolor="#ffffff"
   bordercolor="#666666"
   borderopacity="1.0"
   inkscape:pageshadow="2"
   inkscape:pageopacity="0.0"
   inkscape:pagecheckerboard="0"
   showgrid="false"
   fit-margin-top="0"
   fit-margin-left="0"
   fit-margin-right="0"
   fit-margin-bottom="0"
   inkscape:zoom="2.5995086"
   inkscape:cx="331.0241"
   inkscape:cy="110.79017"
   inkscape:window-width="3440"
   inkscape:window-height="1369"
   inkscape:window-x="-8"
   inkscape:window-y="-8"
   inkscape:window-maximized="1"
   inkscape:current-layer="Layer_1"
   width="230px" />
<style
   type="text/css"
   id="style6277">
	.st0{fill:none;stroke:#FFFFFF;stroke-width:0.75;stroke-miterlimit:10;}
	.st1{fill:#FFFFFF;}
	.st2{fill:#B1B3B6;}
	.st3{enable-background:new    ;}
</style>

<g
   id="g336"
   transform="matrix(2.8920196,0,0,2.8920196,-6.6884597,17.068258)"><path
     d="m 17.80664,15.304904 c -0.127563,0.07772 -0.410563,0.03897 -0.526757,0.233706 -0.154878,0.254851 -0.188778,0.292982 -0.255131,0.271075 -0.149748,-0.59879 0.52676,-1.36494 0.78785,-1.125755 0.204728,0.182275 0.210689,0.48204 -0.006,0.620974 z m 0.155429,-0.981968 c -0.155429,-0.0834 -0.365915,-0.122707 -0.554351,-0.05526 -0.282721,0.07772 -0.372154,0.337977 -0.539513,0.57085 -0.159734,0.244036 -0.42651,0.416249 -0.64857,0.505336 -0.139216,0.321199 0.100459,1.082216 0.327719,1.431286 0.127208,0.261021 0.653974,0.893364 0.543741,1.852871 0.415694,-0.604405 0.748261,-1.247911 0.887196,-1.636498 0.244523,-0.521347 0.355309,-1.348367 0.333124,-1.908957 -0.03335,-0.271904 -0.09969,-0.615287 -0.349346,-0.759632 z m -4.727644,1.215674 c -0.111,-0.194753 -0.393995,-0.155999 -0.527243,-0.233706 -0.215543,-0.138939 -0.205004,-0.438709 -0.0056,-0.620974 0.261299,-0.239185 0.938361,0.526965 0.788611,1.125755 -0.06688,0.0219 -0.09996,-0.01631 -0.255959,-0.271075 z m 0.732869,1.236543 c 0.227467,-0.349069 0.466304,-1.110087 0.327647,-1.431285 -0.222058,-0.08909 -0.488558,-0.2613 -0.649952,-0.505337 -0.160853,-0.232872 -0.254574,-0.493132 -0.537573,-0.57085 -0.188425,-0.06746 -0.400234,-0.02815 -0.555115,0.05526 -0.249442,0.144344 -0.310105,0.487729 -0.349416,0.759633 -0.01631,0.560589 0.08831,1.38761 0.332294,1.908958 0.144619,0.388586 0.477465,1.032091 0.893157,1.636499 -0.116213,-0.959508 0.416246,-1.591851 0.538958,-1.852871 z m -2.163808,-3.573396 c -0.294646,0.04986 -0.349624,0.483359 -0.128388,0.743617 -0.20445,-0.02218 -0.509634,-0.305182 -1.231135,-0.07828 -0.249374,0.07828 -0.5329269,0.178245 -0.5719599,0.499649 -0.027599,0.238906 0.2943709,0.493965 0.4993739,0.644268 0.211243,0.160087 0.544088,0.171721 0.716092,0.432821 0.144345,0.221226 0.260745,0.559755 0.300054,0.865216 0.06635,0.588461 0.05554,1.326184 0.466026,1.815017 0.07722,-0.28896 -0.133732,-0.938083 -0.13839,-1.775779 -0.0067,-0.310867 -0.122923,-0.666178 -0.305461,-0.899883 0.338254,-0.0271 0.34366,0.0173 0.371324,-0.08826 0.03272,-0.105382 -0.03308,-0.221853 -0.111052,-0.315792 -0.244036,-0.282991 -0.593382,-0.133507 -0.904804,-0.233696 -0.204727,-0.07174 -0.520519,-0.177125 -0.537574,-0.465265 -0.01078,-0.194458 0.599621,-0.239114 0.599621,-0.239114 0.487727,0.03839 0.431918,0.315999 0.770447,0.343661 0.277593,0.02274 0.39427,-0.271074 0.483427,-0.44904 0.133243,-0.282999 0.288131,-0.887957 -0.27759,-0.799148 z m 8.921389,1.164995 c -0.03868,-0.321406 -0.321406,-0.421378 -0.57085,-0.49965 -0.721708,-0.22691 -1.026684,0.05609 -1.237373,0.07828 0.227257,-0.260259 0.17172,-0.693771 -0.127287,-0.743618 -0.560798,-0.0888 -0.40592,0.51615 -0.272117,0.799148 0.0888,0.177971 0.199322,0.47178 0.476843,0.449041 0.33853,-0.02767 0.287922,-0.305254 0.777032,-0.343661 0,0 0.610091,0.04464 0.599554,0.239112 -0.02246,0.288131 -0.339363,0.39351 -0.54409,0.465266 -0.305184,0.100186 -0.655361,-0.04929 -0.904734,0.233705 -0.07696,0.09393 -0.138942,0.210411 -0.111623,0.315791 0.02815,0.105597 0.04008,0.06113 0.377772,0.08826 -0.188721,0.233706 -0.299499,0.589014 -0.304907,0.899882 -0.01043,0.837697 -0.222059,1.486818 -0.138666,1.775779 0.405432,-0.488828 0.399468,-1.226552 0.466302,-1.815013 0.03875,-0.30546 0.149534,-0.64399 0.299845,-0.865217 0.171661,-0.261098 0.49965,-0.272744 0.715193,-0.432824 0.20556,-0.1503 0.526759,-0.405362 0.499095,-0.644269 z m -5.448244,1.904383 v -8.31e-4 c -0.0021,0 -0.0038,2.77e-4 -0.0057,2.77e-4 l -0.0051,-2.77e-4 v 8.31e-4 c -0.265111,0.006 -0.40862,0.229963 -0.654806,0.487724 -0.427064,0.465819 -1.304277,1.625198 -0.665969,2.174904 0.282722,0.244314 0.655154,0.410284 1.165342,0.254851 0.127561,-0.08826 0.05526,-0.349347 -0.01078,-0.466305 -0.238907,-0.310381 -0.610715,-0.187953 -0.716024,-0.343381 -0.100523,-0.149553 -0.03364,-0.267054 0.02731,-0.343661 0.0888,-0.110772 0.23315,-0.08348 0.355308,-0.05013 0.216652,0.049 0.363697,0.139687 0.49965,0.27246 v 0.01012 c 0.0019,-0.0019 0.0038,-0.003 0.0051,-0.0045 0.0019,0.0017 0.0036,0.0027 0.0057,0.0045 v -0.01022 c 0.130549,-0.132691 0.283276,-0.223722 0.499442,-0.272182 0.116671,-0.03335 0.266152,-0.06068 0.349831,0.05014 0.06635,0.0766 0.127287,0.194124 0.02794,0.343662 -0.105661,0.155429 -0.471779,0.03301 -0.710615,0.343381 -0.06607,0.116949 -0.144621,0.37805 -0.0173,0.466306 0.516705,0.155429 0.882828,-0.01054 1.165549,-0.254852 0.64366,-0.549739 -0.232928,-1.709118 -0.665954,-2.174937 -0.240221,-0.257485 -0.389692,-0.481762 -0.648914,-0.487724 z m 0.837904,3.072912 c -0.282166,0.02822 -0.591162,0.09402 -0.840331,0.08917 -0.249373,0.005 -0.558925,-0.06094 -0.840606,-0.08917 -0.0452,-0.0052 -0.07828,0.02822 -0.07828,0.02822 -0.164096,0.350664 0.779946,0.544576 0.915898,0.538059 0.136228,0.0064 1.085198,-0.187385 0.92103,-0.538059 0,0 -0.03358,-0.03335 -0.07772,-0.02822 z m 4.01481,0.875064 c -0.235301,0.09421 -0.482527,0.133459 -0.723027,0.02218 -0.190095,-0.08286 -0.308234,-0.271905 -0.342343,-0.483147 -0.04362,-0.310315 0.129704,-0.676785 0.280294,-0.92103 0.207984,-0.34879 0.684341,-0.959504 1.233282,-1.364382 0.779183,-0.577369 1.322442,-0.73821 1.120904,-0.871182 -0.140256,-0.09448 -0.879291,0.310869 -1.025297,0.388586 -0.829516,0.427062 -1.973434,1.664161 -2.107725,2.580059 -0.10613,0.721154 0.723306,1.236549 1.289092,1.042641 -1.839143,1.566664 -3.877815,1.625698 -4.589747,1.64222 v 2.69e-4 l -0.0027,-2.69e-4 -0.0022,2.69e-4 -0.001,-2.69e-4 c -0.715778,-0.01651 -2.760969,-0.07557 -4.594913,-1.642217 0.566274,0.193909 1.395511,-0.321488 1.289092,-1.042642 -0.134651,-0.915894 -1.2835,-2.152993 -2.1070514,-2.580055 -0.1453875,-0.07772 -0.8858106,-0.483081 -1.0258205,-0.388586 -0.2014869,0.132967 0.3415,0.293812 1.1211459,0.871181 0.54922,0.404878 1.020168,1.015592 1.227115,1.364383 0.15702,0.244244 0.330624,0.610714 0.28598,0.921029 -0.03416,0.211242 -0.156825,0.400303 -0.342345,0.483149 -0.240986,0.111267 -0.486893,0.07203 -0.728227,-0.02218 C 10.014195,20.085578 9.7171239,19.797391 9.4593046,19.447836 8.9721125,18.787277 8.4957504,18.027365 8.2541819,17.223086 8.4613573,17.683704 9.7729315,19.608955 10.355983,19.63655 10.954981,19.6699 9.7729315,18.072083 8.960195,17.406392 8.7641257,17.245264 8.5398913,17.056492 8.4957504,16.756439 8.4613544,16.539787 8.5737534,16.396 8.7868732,16.385184 9.1121225,16.373894 9.9581792,16.81197 9.9689934,16.795748 8.5011649,14.160435 10.747827,12.828844 9.81785,12.251479 c -0.3255117,-0.205837 -1.0136512,0 -1.389813,0.05554 3.458296,-2.042278 4.062493,-0.0056 5.105123,0.931566 0.162505,0.1503 0.896415,0 1.036668,-0.171721 0.18524,-0.222058 0.55435,-1.021206 0.134361,-1.548242 C 14.099717,10.753304 11.588432,8.4947209 9.3022304,10.492281 10.411235,8.6959832 13.000167,7.3713924 15.264781,7.4347585 c 2.265028,-0.063354 4.836697,1.2612247 5.951635,3.0575225 -2.29269,-1.9975601 -4.796904,0.261023 -5.408172,1.026337 -0.414029,0.527036 -0.04978,1.326184 0.134913,1.548244 0.145386,0.171722 0.879293,0.322031 1.042074,0.171722 1.042353,-0.937045 1.647869,-2.973845 5.10514,-0.931567 -0.375137,-0.05554 -1.070293,-0.261369 -1.389066,-0.05554 -0.93129,0.577365 1.310515,1.908957 -0.151892,4.544269 0.01129,0.01631 0.857661,-0.421934 1.182395,-0.410563 0.212839,0.01078 0.32522,0.154603 0.291389,0.371254 -0.0447,0.300054 -0.274332,0.488834 -0.464986,0.649954 -0.813016,0.66569 -1.994857,2.263502 -1.401198,2.230157 0.588182,-0.0276 1.900015,-1.952846 2.107168,-2.413464 -0.240984,0.804279 -0.722264,1.564191 -1.205067,2.22475 -0.25783,0.349555 -0.554142,0.637753 -0.929761,0.77128 z M 15.261796,7.0824159 c -4.277841,0 -7.7623793,3.4851381 -7.7623793,7.7626321 0,4.272367 3.4845383,7.762336 7.7623793,7.762336 4.272087,0 7.756879,-3.489969 7.756879,-7.762336 0,-4.277494 -3.484792,-7.7626321 -7.756879,-7.7626321"
     style="fill:#ffffff;fill-opacity:1;fill-rule:nonzero;stroke:none;stroke-width:0.0693285"
     id="path20" /><path
     d="m 19.853977,20.612841 c -1.838589,1.566663 -3.877816,1.625696 -4.589193,1.642218 v 2.69e-4 l -0.0027,-2.69e-4 -0.0022,2.69e-4 -10e-4,-2.69e-4 c -0.715809,-0.01651 -2.761,-0.07555 -4.594943,-1.642218"
     style="fill:none;stroke:#ffffff;stroke-width:0.128963;stroke-linecap:butt;stroke-linejoin:miter;stroke-miterlimit:10;stroke-dasharray:none;stroke-opacity:1"
     id="path22" /><path
     d="M 9.3022325,10.492263 C 10.41124,8.6959654 12.999685,7.3713758 15.264784,7.4347417 c 2.265027,-0.063354 4.836697,1.2612237 5.951358,3.0575213"
     style="fill:none;stroke:#ffffff;stroke-width:0.128963;stroke-linecap:butt;stroke-linejoin:miter;stroke-miterlimit:10;stroke-dasharray:none;stroke-opacity:1"
     id="path24" /><path
     d="m 27.658833,13.960557 h 1.302611 c 0.5782,0 0.896971,-0.28896 0.896971,-0.814054 v -0.610714 h -0.863137 v 0.573623 c 0,0.05332 -0.01078,0.111001 -0.138371,0.111001 h -1.099205 c -0.115908,0 -0.1322,-0.0536 -0.1322,-0.111001 v -2.227454 c 0,-0.05768 0.01631,-0.110505 0.1322,-0.110505 h 1.099205 c 0.127562,0 0.138371,0.05684 0.138371,0.110505 v 0.574387 h 0.863137 v -0.610991 c 0,-0.525093 -0.318771,-0.814333 -0.896971,-0.814333 h -1.302611 c -0.578198,0 -0.896417,0.28924 -0.896417,0.814333 v 2.301149 c 0,0.525094 0.318219,0.814054 0.896417,0.814054"
     style="fill:#ffffff;fill-opacity:1;fill-rule:nonzero;stroke:none;stroke-width:0.0693285"
     id="path26" /><path
     d="m 31.553982,13.109412 v -2.227454 c 0,-0.05768 0.01631,-0.110505 0.132416,-0.110505 h 1.174492 c 0.127561,0 0.138369,0.05684 0.138369,0.110505 v 2.227454 c 0,0.05332 -0.01078,0.111001 -0.138369,0.111001 h -1.174492 c -0.116213,0 -0.132416,-0.0536 -0.132416,-0.111001 z m 0.03354,0.851145 h 1.377903 c 0.578199,0 0.896902,-0.28896 0.896902,-0.814054 v -2.301149 c 0,-0.525093 -0.318703,-0.814333 -0.896902,-0.814333 h -1.377908 c -0.578475,0 -0.896968,0.28924 -0.896968,0.814333 v 2.301149 c 0,0.525094 0.318493,0.814054 0.896968,0.814054"
     style="fill:#ffffff;fill-opacity:1;fill-rule:nonzero;stroke:none;stroke-width:0.0693285"
     id="path28" /><path
     d="m 37.401072,13.220407 h -1.837688 v -3.189386 h -0.862586 v 3.929536 h 2.700274 v -0.74015"
     style="fill:#ffffff;fill-opacity:1;fill-rule:nonzero;stroke:none;stroke-width:0.0693285"
     id="path30" /><path
     d="m 40.354602,10.881958 v 2.227454 c 0,0.05332 -0.01022,0.111001 -0.138096,0.111001 h -1.174561 c -0.116391,0 -0.132692,-0.0536 -0.132692,-0.111001 v -2.227454 c 0,-0.05768 0.01631,-0.110505 0.132692,-0.110505 h 1.174561 c 0.127838,0 0.138096,0.05684 0.138096,0.110505 z m 0.863346,2.264545 v -2.301149 c 0,-0.525093 -0.318493,-0.814333 -0.896694,-0.814333 h -1.378112 c -0.578197,0 -0.89697,0.28924 -0.89697,0.814333 v 2.301149 c 0,0.525094 0.318773,0.814054 0.89697,0.814054 h 1.378112 c 0.578201,0 0.896694,-0.28896 0.896694,-0.814054"
     style="fill:#ffffff;fill-opacity:1;fill-rule:nonzero;stroke:none;stroke-width:0.0693285"
     id="path32" /><path
     d="m 42.91892,10.766042 h 1.208674 c 0.116466,0 0.132689,0.0536 0.132689,0.11105 v 0.794782 c 0,0.05769 -0.01631,0.111077 -0.132689,0.111077 H 42.91892 Z m 1.612441,1.708529 c 0.382901,-0.09234 0.59172,-0.366678 0.59172,-0.78154 v -0.847677 c 0,-0.525093 -0.318495,-0.814333 -0.896626,-0.814333 h -2.170326 v 3.929536 h 0.862791 v -1.45347 h 0.693007 l 0.750205,1.45347 h 0.942381 l -0.773152,-1.485986"
     style="fill:#ffffff;fill-opacity:1;fill-rule:nonzero;stroke:none;stroke-width:0.0693285"
     id="path34" /><path
     d="m 47.31587,12.29016 0.431706,-1.280152 0.431639,1.280152 z m -0.247781,0.739871 h 1.358907 l 0.313918,0.930526 h 0.945432 l -1.451045,-3.929536 h -0.946749 l -1.444527,3.929536 h 0.910421 l 0.313643,-0.930526"
     style="fill:#ffffff;fill-opacity:1;fill-rule:nonzero;stroke:none;stroke-width:0.0693285"
     id="path36" /><path
     d="m 51.217741,10.771451 h 1.254984 c 0.116479,0 0.132692,0.05283 0.132692,0.110506 v 2.227453 c 0,0.0574 -0.01631,0.111 -0.132692,0.111 h -1.254984 z m 1.354123,-0.74043 h -2.217193 v 3.929536 h 2.217193 c 0.577921,0 0.896347,-0.28896 0.896347,-0.814054 v -2.301149 c 0,-0.525093 -0.318426,-0.814333 -0.896347,-0.814333"
     style="fill:#ffffff;fill-opacity:1;fill-rule:nonzero;stroke:none;stroke-width:0.0693285"
     id="path38" /><path
     d="m 55.152129,13.109412 v -2.227454 c 0,-0.05768 0.01651,-0.110505 0.132496,-0.110505 h 1.174768 c 0.127838,0 0.138667,0.05684 0.138667,0.110505 v 2.227454 c 0,0.0574 -0.0167,0.111001 -0.138667,0.111001 h -1.174768 c -0.11591,0 -0.132496,-0.0536 -0.132496,-0.111001 z m 0.03364,0.851145 h 1.378456 c 0.578132,0 0.89635,-0.28896 0.89635,-0.814054 v -2.301149 c 0,-0.525093 -0.318218,-0.814333 -0.89635,-0.814333 h -1.378461 c -0.578478,0 -0.896972,0.28924 -0.896972,0.814333 v 2.301149 c 0,0.525094 0.318494,0.814054 0.896972,0.814054"
     style="fill:#ffffff;fill-opacity:1;fill-rule:nonzero;stroke:none;stroke-width:0.0693285"
     id="path40" /><path
     d="m 61.809877,11.705788 -1.080552,-0.214502 c -0.191491,-0.04008 -0.20771,-0.07715 -0.20771,-0.18011 v -0.439819 c 0,-0.05574 0.01078,-0.116112 0.138096,-0.116112 h 1.006025 c 0.110226,0 0.13277,0.04679 0.13277,0.116112 v 0.45417 h 0.850868 v -0.480169 c 0,-0.525093 -0.318218,-0.814333 -0.896418,-0.814333 h -1.197508 c -0.578199,0 -0.896418,0.28924 -0.896418,0.814333 v 0.554419 c 0,0.57196 0.433861,0.738764 0.903212,0.833813 l 1.081039,0.220186 c 0.186912,0.0387 0.207223,0.06989 0.207223,0.174924 v 0.490983 c 0,0.07016 -0.02225,0.117026 -0.13277,0.117026 h -1.087273 c -0.109682,0 -0.132691,-0.04686 -0.132691,-0.117026 v -0.495281 h -0.850938 v 0.522112 c 0,0.525096 0.318217,0.814054 0.896971,0.814054 h 1.273631 c 0.57737,0 0.896418,-0.288958 0.896418,-0.814054 v -0.6069 c 0,-0.573831 -0.434689,-0.739595 -0.903973,-0.833814"
     style="fill:#ffffff;fill-opacity:1;fill-rule:nonzero;stroke:none;stroke-width:0.0693285"
     id="path42" /><path
     d="m 66.462438,10.031021 h -3.154165 v 0.735021 h 1.145512 v 3.194515 h 0.86314 v -3.194515 h 1.145513 v -0.735021"
     style="fill:#ffffff;fill-opacity:1;fill-rule:nonzero;stroke:none;stroke-width:0.0693285"
     id="path44" /><path
     d="m 68.675817,12.29016 h -0.863346 l 0.431361,-1.280152 z m -0.891008,-2.259139 -1.444251,3.929536 h 0.909936 l 0.314128,-0.930526 h 1.358142 l 0.314197,0.930526 h 0.945916 l -1.451043,-3.929536 h -0.947025"
     style="fill:#ffffff;fill-opacity:1;fill-rule:nonzero;stroke:none;stroke-width:0.0693285"
     id="path46" /><path
     d="m 70.049352,10.766042 h 1.145583 v 3.194515 h 0.862446 v -3.194515 h 1.146 v -0.735021 h -3.154029 v 0.735021"
     style="fill:#ffffff;fill-opacity:1;fill-rule:nonzero;stroke:none;stroke-width:0.0693285"
     id="path48" /><path
     d="m 76.655241,10.771451 v -0.74043 h -2.845238 v 3.929536 h 2.845238 v -0.74015 h -1.982792 v -0.901268 h 1.63407 v -0.729823 h -1.63407 v -0.817865 h 1.982792"
     style="fill:#ffffff;fill-opacity:1;fill-rule:nonzero;stroke:none;stroke-width:0.0693285"
     id="path50" /><path
     d="m 29.04755,18.950885 c 0,0.0574 -0.01631,0.111 -0.132692,0.111 h -1.151753 c -0.121336,0 -0.138371,-0.0536 -0.138371,-0.111 v -3.078389 h -0.862318 v 3.115481 c 0,0.525094 0.318219,0.814609 0.896417,0.814609 h 1.355164 c 0.577923,0 0.896416,-0.289515 0.896416,-0.814609 V 15.872496 H 29.04755 v 3.078389"
     style="fill:#ffffff;fill-opacity:1;fill-rule:nonzero;stroke:none;stroke-width:0.0693285"
     id="path52" /><path
     d="m 33.243032,18.389464 -1.63435,-2.516968 h -0.860158 v 3.93009 h 0.81655 V 17.21116 l 1.686897,2.591426 h 0.813779 v -3.93009 h -0.822718 v 2.516968"
     style="fill:#ffffff;fill-opacity:1;fill-rule:nonzero;stroke:none;stroke-width:0.0693285"
     id="path54" /><path
     d="m 34.903931,19.802586 h 0.862792 v -3.93009 h -0.862792 v 3.93009"
     style="fill:#ffffff;fill-opacity:1;fill-rule:nonzero;stroke:none;stroke-width:0.0693285"
     id="path56" /><path
     d="m 38.282583,18.752607 -0.898845,-2.880111 h -0.938914 l 1.365492,3.93009 h 0.925882 l 1.366254,-3.93009 h -0.915896 l -0.903973,2.880111"
     style="fill:#ffffff;fill-opacity:1;fill-rule:nonzero;stroke:none;stroke-width:0.0693285"
     id="path58" /><path
     d="m 40.773552,19.802586 h 2.845725 v -0.740704 h -1.982932 v -0.90127 h 1.63435 v -0.729821 h -1.63435 v -0.817866 h 1.982932 v -0.740429 h -2.845725 v 3.93009"
     style="fill:#ffffff;fill-opacity:1;fill-rule:nonzero;stroke:none;stroke-width:0.0693285"
     id="path60" /><path
     d="m 45.285586,16.607516 h 1.208392 c 0.116124,0 0.132417,0.0536 0.132417,0.111 v 0.794853 c 0,0.05768 -0.01631,0.111051 -0.132417,0.111051 h -1.208392 z m 2.203605,0.926991 v -0.847679 c 0,-0.525093 -0.318219,-0.814332 -0.896627,-0.814332 h -2.16977 v 3.93009 h 0.862792 v -1.454025 h 0.692728 l 0.749925,1.454025 h 0.94266 l -0.773428,-1.48654 c 0.383177,-0.09234 0.59172,-0.366679 0.59172,-0.781539"
     style="fill:#ffffff;fill-opacity:1;fill-rule:nonzero;stroke:none;stroke-width:0.0693285"
     id="path62" /><path
     d="m 50.438074,17.547194 -1.080276,-0.214432 c -0.191412,-0.04007 -0.207708,-0.07696 -0.207708,-0.180113 v -0.439818 c 0,-0.05575 0.01078,-0.116137 0.138096,-0.116137 h 1.006095 c 0.110226,0 0.132965,0.04679 0.132965,0.116137 V 17.167 h 0.850661 v -0.480168 c 0,-0.525093 -0.318218,-0.814331 -0.896416,-0.814331 h -1.197788 c -0.577922,0 -0.896415,0.289238 -0.896415,0.814331 v 0.55435 c 0,0.571683 0.434133,0.738834 0.903417,0.833881 l 1.080831,0.220189 c 0.187107,0.03867 0.20743,0.0698 0.20743,0.174923 v 0.49154 c 0,0.0696 -0.02218,0.11639 -0.132142,0.11639 h -1.087902 c -0.109884,0 -0.132415,-0.04679 -0.132415,-0.11639 V 18.4656 h -0.851145 v 0.522389 c 0,0.525093 0.318217,0.81461 0.896694,0.81461 h 1.273633 c 0.578128,0 0.896346,-0.289517 0.896346,-0.81461 v -0.606902 c 0,-0.5739 -0.434065,-0.739594 -0.903974,-0.833882"
     style="fill:#ffffff;fill-opacity:1;fill-rule:nonzero;stroke:none;stroke-width:0.0693285"
     id="path64" /><path
     d="m 52.152081,19.802586 h 0.862792 v -3.93009 h -0.862792 v 3.93009"
     style="fill:#ffffff;fill-opacity:1;fill-rule:nonzero;stroke:none;stroke-width:0.0693285"
     id="path66" /><path
     d="m 53.610681,16.607516 h 1.145306 v 3.19507 h 0.86307 v -3.19507 h 1.145514 v -0.73502 h -3.15389 v 0.73502"
     style="fill:#ffffff;fill-opacity:1;fill-rule:nonzero;stroke:none;stroke-width:0.0693285"
     id="path68" /><path
     d="m 58.924359,17.579432 -0.915897,-1.706936 h -0.945986 l 1.424488,2.551079 v 1.379011 h 0.862517 v -1.379011 l 1.425323,-2.551079 h -0.935103 l -0.915342,1.706936"
     style="fill:#ffffff;fill-opacity:1;fill-rule:nonzero;stroke:none;stroke-width:0.0693285"
     id="path70" /></g></svg>
