<?xml version="1.0" encoding="UTF-8" standalone="no"?>
<!-- Generator: Adobe Illustrator 24.3.0, SVG Export Plug-In . SVG Version: 6.00 Build 0)  -->

<svg
   version="1.1"
   id="Layer_1"
   x="0px"
   y="0px"
   viewBox="0 0 230 120"
   xml:space="preserve"
   sodipodi:docname="florida.svg"
   width="230"
   height="120"
   inkscape:version="1.1.2 (0a00cf5339, 2022-02-04, custom)"
   xmlns:inkscape="http://www.inkscape.org/namespaces/inkscape"
   xmlns:sodipodi="http://sodipodi.sourceforge.net/DTD/sodipodi-0.dtd"
   xmlns="http://www.w3.org/2000/svg"
   xmlns:svg="http://www.w3.org/2000/svg"><defs
   id="defs6412" /><sodipodi:namedview
   id="namedview6410"
   pagecolor="#ffffff"
   bordercolor="#666666"
   borderopacity="1.0"
   inkscape:pageshadow="2"
   inkscape:pageopacity="0.0"
   inkscape:pagecheckerboard="0"
   showgrid="false"
   fit-margin-top="0"
   fit-margin-left="0"
   fit-margin-right="0"
   fit-margin-bottom="0"
   inkscape:zoom="2.5995086"
   inkscape:cx="331.0241"
   inkscape:cy="110.79017"
   inkscape:window-width="3440"
   inkscape:window-height="1369"
   inkscape:window-x="-8"
   inkscape:window-y="-8"
   inkscape:window-maximized="1"
   inkscape:current-layer="Layer_1"
   width="230px" />
<style
   type="text/css"
   id="style6277">
	.st0{fill:none;stroke:#FFFFFF;stroke-width:0.75;stroke-miterlimit:10;}
	.st1{fill:#FFFFFF;}
	.st2{fill:#B1B3B6;}
	.st3{enable-background:new    ;}
</style>

<g
   id="g1238"
   transform="matrix(0.76350134,0,0,0.76350134,14.28989,41.056881)"><path
     fill="#fa4616"
     d="m 76.27987,48.31081 h 2 v -45.95 h -2 z"
     id="path836"
     style="fill:#ffffff;stroke-width:0.5" /><path
     fill="#0021a5"
     d="m 246.82987,0.7608 c -0.4,0 -0.7002,0.05039 -0.9502,0.15039 -0.2,0.1 -0.6996,0.399415 -1.3496,0.8994 -0.7,0.5 -1.3504,0.9998 -1.9004,1.5498 -0.35,0.35 -0.6496,0.7 -0.8496,1 -0.1,0.2 -0.20059,0.6004 -0.35059,1.1504 -0.05,0.25 -0.0994,0.449805 -0.14941,0.5498 -0.25,0.15 -0.5998,0.25039 -1.0498,0.40039 -0.45,0.1 -0.7502,0.199805 -0.9502,0.299805 l -0.10059,0.5 h 0.6006 1.2998 l -1.4004,7.3495 c -0.35,2 -0.6994,3.3502 -0.8994,3.9502 -0.1,0.3 -0.25039,0.5504 -0.40039,0.6504 -0.15,0.1 -0.3498,0.149415 -0.5498,0.149415 -0.2,0 -0.3498,-0.04922 -0.5498,-0.19922 -0.15,-0.15 -0.30019,-0.35039 -0.45019,-0.6504 l -0.29981,0.0498 c -0.05,0.35 -0.15,0.7 -0.25,1 -0.1,0.3 -0.20039,0.7004 -0.40039,1.1504 0.25,0.1 0.5,0.149415 0.75,0.149415 0.30001,0 0.65021,-0.1 0.9502,-0.25 0.65,-0.35 1.2504,-0.8496 1.9004,-1.5996 0.6,-0.7 1.15,-1.55 1.5,-2.5 0.35,-0.95 0.7996,-2.4496 1.3496,-4.5996 l 1.0996,-4.75 h 1 1.5 c 0.05,-0.3 0.20079,-0.65 0.30078,-1 L 246.1297,6.01071 c -0.2,0.05 -0.5502,0.04961 -0.9502,0.09961 -0.7,0.05 -1.1496,0.05078 -1.3496,0.05078 h -0.2002 c 0.15,-0.85 0.35059,-1.7506 0.6006,-2.6006 0.1,-0.35 0.2,-0.6 0.25,-0.75 0.1,-0.15 0.19961,-0.29961 0.34961,-0.34961 0.15,-0.1 0.3,-0.15039 0.5,-0.15039 0.2,0 0.4502,0.1 0.7002,0.25 0.25,0.15 0.5498,0.45039 0.7998,0.9004 l 0.29981,-0.049805 c 0.1,-0.8 0.2998,-1.65 0.5498,-2.5 -0.3,-0.1 -0.5498,-0.15039 -0.7998,-0.15039 h -0.0498 z m -70.15,1.4004 c -0.6,0 -1.1492,0.049218 -1.6992,0.19922 -0.55,0.1500015 -1.05,0.35039 -1.5,0.6504 -0.45,0.3 -0.8008,0.7 -1.0508,1.25 -0.25,0.55 -0.39942,1.15 -0.39942,1.75 0,0.45 0.0502,0.8998 0.2002,1.2998 0.15,0.4 0.34941,0.7 0.6494,1 0.3,0.3 0.7002,0.5004 1.2002,0.6504 0.35,0.1 0.9998,0.250195 2.0498,0.450195 0.7,0.15 1.2,0.35 1.5,0.5 0.3,0.15 0.5004,0.34961 0.6504,0.5996 0.15,0.25 0.2002,0.5504 0.20019,0.9004 0,0.4 -0.10078,0.7994 -0.30078,1.1494 -0.2,0.35 -0.49941,0.5998 -0.8994,0.7998 -0.4,0.2 -0.9002,0.30078 -1.4502,0.30078 -0.6,0 -1.2002,-0.10039 -1.7002,-0.40039 -0.5,-0.25 -0.8996,-0.6002 -1.0996,-0.9502 -0.1,-0.6 -0.10058,-1.0998 -0.10058,-1.5498 h -0.6992 c 0,1.35 -0.1,2.3002 -0.25,2.9502 0.65,0.3 1.2498,0.5502 1.7998,0.7002 0.55,0.15 1.1994,0.19922 1.8994,0.19922 0.95,0 1.7502,-0.149415 2.4502,-0.399415 0.4,-0.15 0.85,-0.449805 1.25,-0.7998 0.4,-0.35 0.7002,-0.7006 0.9502,-1.1006 0.3,-0.55 0.4502,-1.1994 0.4502,-1.8994 0,-0.4 -0.0504,-0.8006 -0.15039,-1.1006 -0.1,-0.35 -0.24941,-0.5996 -0.39942,-0.8496 -0.15,-0.2 -0.40039,-0.400585 -0.6504,-0.6006 -0.3,-0.15 -0.6496,-0.29922 -1.0996,-0.44922 -0.19999,-0.05 -0.5504,-0.100195 -1.1504,-0.200195 -0.6,-0.1 -1.0496,-0.2 -1.3496,-0.25 -0.44999,-0.1 -0.75,-0.250585 -1,-0.350585 -0.19999,-0.15 -0.4,-0.299805 -0.5,-0.5498 -0.1,-0.25 -0.20019,-0.5493 -0.20019,-0.8994 0,-0.5 0.19941,-1.0006 0.6494,-1.3506 0.4,-0.4 1.0008,-0.5996 1.8008,-0.5996 0.55,0 1.0492,0.099805 1.4492,0.299805 0.45,0.2 0.7504,0.40039 0.9004,0.6504 0.05,0.25 0.0496,0.7492 0.0996,1.3994 h 0.7002 c 0,-0.6002 0.0506,-1.0494 0.10058,-1.3994 0.05,-0.35 0.0994,-0.7006 0.14942,-1.1006 l -0.0498,-0.200195 c -0.4,-0.2 -0.9,-0.34922 -1.5,-0.44922 -0.55,-0.1 -1.15,-0.15039 -1.75,-0.15039 L 176.6799,2.1612 Z m 33.9005,0 c -0.35,0.1 -0.6502,0.15 -0.9502,0.25 l -1.7998,0.34961 v 0.6504 c 0.45,0 0.7,-1.953e-4 0.75,0.049805 0.1,0.05 0.29961,0.249805 0.5996,0.5498 0.4,0.45 0.9004,1.0997 1.4004,1.8496 0.6,0.95 1.1502,1.9004 1.7002,2.9004 0.2,0.4 0.34961,0.6998 0.34961,0.7998 v 1.600599 c 0,0.45 2e-4,0.9994 -0.0498,1.6494 0,0.3 -0.0496,0.45 -0.0996,0.5 -0.05,0.05 -0.1,0.10039 -0.25,0.15039 -0.1,0.05 -0.5004,0.04961 -1.1504,0.09961 v 0.75 c 0.9,-0.05 1.7496,-0.0498 2.5996,-0.0498 0.9,0 1.8502,-1.95e-4 2.9502,0.0498 v -0.75 c -0.65,0 -0.9994,-0.0498 -1.1494,-0.0498 -0.1,-0.05 -0.2,-0.10039 -0.25,-0.15039 -0.05,-0.05 -0.10039,-0.24961 -0.15039,-0.5996 -0.05,-0.35 -0.0498,-0.8496 -0.0498,-1.5996 V 9.7110195 c 0,-0.3 -1.9e-4,-0.5004 0.0498,-0.6504 0.05,-0.2 0.1,-0.399415 0.25,-0.6494 0.2,-0.35 0.7,-1.1504 1.5,-2.4004 0.8,-1.25 1.55,-2.35 2.25,-3.25 v -0.40039 h -1.3496 c -0.1,0.15 -0.25059,0.5008 -0.6006,1.0508 -0.9,1.6 -1.4496,2.5496 -1.5996,2.8496 l -1.1006,1.75 c -0.15,-0.3 -0.5492,-1.0996 -1.1992,-2.3496 -0.4,-0.8001 -0.8,-1.5006 -1.25,-2.1006 -0.3,-0.4 -0.5004,-0.6996 -0.6504,-0.8496 -0.15,-0.15 -0.4,-0.3 -0.75,-0.5 V 2.161225 Z m -109.7,0.149415 v 0.7002 c 0.6,0.05 0.9506,0.09961 1.1006,0.09961 0.15,0.05 0.2,0.10039 0.25,0.15039 0.05,0.05 0.0994,0.149805 0.14941,0.299805 0.05,0.15 0.0498,0.399805 0.0498,0.7998 l 0.0508,2.5 v 2.75 c 0,0.75 -0.001,1.3506 -0.0508,1.8506 -0.05,0.85 -0.0996,1.3496 -0.0996,1.5996 -0.05,0.15 -0.0496,0.249805 -0.0996,0.299805 -0.05,0.05 -0.10039,0.100585 -0.15039,0.100585 -0.1,0.05 -0.5004,0.04961 -1.1504,0.09961 v 0.7002 c 0.95,-0.05 1.7,-0.04981 2.25,-0.04981 0.15,0 0.7506,-1.95e-4 1.8506,0.04981 v -0.7002 h -0.15039 c -0.15,0 -0.4498,1.95e-4 -0.7998,-0.04981 -0.15,0 -0.2498,-0.04961 -0.2998,-0.09961 -0.05,-0.05 -0.10059,-0.10039 -0.10059,-0.15039 -0.05,-0.15 -0.0996,-0.5502 -0.0996,-1.2002 -0.05,-0.95 -0.0498,-1.9 -0.0498,-2.75 v -4.25 c 3.35,4.1002 5.95,7.2 7.8,9.25 0.5,0.05 1.0002,0.15 1.4502,0.25 l 0.0996,-0.09961 c -0.1,-0.8 -0.0996,-3.1004 -0.0996,-6.9005 0,-0.5 -1.9e-4,-1.25 0.0498,-2.25 0,-1.0002 0.10039,-1.6502 0.15039,-1.9502 0,-0.05 0.0496,-0.09961 0.0996,-0.09961 0.15,-0.1 0.55,-0.15039 1.25,-0.15039 V 2.4111 c -0.9,0.05 -1.6004,0.049805 -2.1504,0.049805 -0.6,0 -1.2494,1.953e-4 -1.8994,-0.049805 v 0.6992 c 0.75,0 1.1996,0.05039 1.3496,0.15039 0.1,0.05 0.10039,0.20039 0.15039,0.40039 0.05,0.55 0.0996,2.3495 0.0996,5.3995 v 1.9502 c -0.8,-0.8 -1.8,-1.9496 -3,-3.3496 -1.65,-2 -3.1,-3.7507 -4.25,-5.301 l -0.7998,0.05078 -1.25,0.049805 c -0.35,0 -0.8496,1.953e-4 -1.5996,-0.049805 L 100.8806,2.31038 Z m 17.2,0 v 0.75 c 0.6,0 0.9996,0.050585 1.0996,0.100585 0.1,0.05 0.15019,0.049609 0.20019,0.09961 0.05,0.05 0.0506,0.10039 0.10059,0.15039 0.05,0.2 0.0496,0.6496 0.0996,1.3496 0,0.3 0.0498,1.0502 0.0498,2.2002 v 3.5498 c 0,0.6 -0.0496,1.2004 -0.0996,1.9004 -0.05,0.45 -0.0498,0.7498 -0.0498,0.7998 0,0.05 -0.0506,0.09942 -0.10059,0.149415 -0.05,0.05 -0.15,0.05058 -0.25,0.100585 -0.1,0 -0.45,0.0498 -1,0.0498 v 0.75 c 0.7,-0.05 1.5502,-0.0498 2.4502,-0.0498 1.05,0 2.0502,-1.96e-4 2.9502,0.0498 v -0.75 c -0.55,0 -0.9,-0.0498 -1,-0.0498 -0.1,0 -0.2,-0.05058 -0.25,-0.100585 -0.05,-0.05 -0.10058,-0.09922 -0.10058,-0.19922 -0.05,-0.15 -0.0996,-0.5504 -0.0996,-1.1504 v -1.5498 -3.4502 c 0,-0.1 -2e-4,-0.85 0.0498,-2.25 0,-0.4 -2e-4,-0.6996 0.0498,-0.8496 0,-0.25 0.0506,-0.45078 0.10058,-0.5508 0,-0.05 0.0496,-0.09961 0.0996,-0.09961 0.05,-0.05 0.15,-0.09961 0.25,-0.09961 0.1,-0.05 0.44981,-0.05078 1.0498,-0.05078 v -0.75 c -0.95,0.05 -1.8992,0.05078 -2.9492,0.05078 -0.95,0 -1.7502,-7.8e-4 -2.4502,-0.05078 L 118.08037,2.31059 Z m 8.9005,0 v 0.75 c 0.55,0 0.8998,0.05039 1.0498,0.15039 0.1,0.05 0.3,0.3 0.5,0.75 0.2,0.45 0.8,1.7998 1.75,4.0498 l 1.2002,2.9004 c 0.45,1.05 0.8994,2.1994 1.3994,3.3994 h 1.2998 c 0.35,-0.95 1,-2.6502 2,-4.9502 l 1.1504,-2.75 0.5996,-1.3994 c 0.5,-1.15 0.8002,-1.8002 0.9502,-1.9502 0.1,-0.05 0.40019,-0.150195 0.9502,-0.200195 v -0.75 l -1.8496,0.049805 -2.1504,-0.049805 v 0.75 c 0.25,0 0.5502,0.049805 0.9502,0.049805 0.15,0 0.24981,0.05078 0.2998,0.05078 0.05,0 0.0996,0.049609 0.0996,0.09961 0.05,0.05 0.0508,0.100195 0.0508,0.200195 v 0.200195 c -0.05,0.25 -0.2002,0.6994 -0.4502,1.3994 -0.35,0.9502 -0.5506,1.5006 -0.6006,1.6006 l -1.8994,4.699201 -2.1504,-5.250001 c 0,-0.05 -0.0498,-0.099415 -0.0498,-0.149415 0,-0.05 -0.14961,-0.300685 -0.34961,-0.8506 -0.4,-0.9 -0.5508,-1.4496 -0.5508,-1.5996 0,-0.1 0.0506,-0.150195 0.10058,-0.200195 0.05,-0.05 0.1,-0.09961 0.25,-0.09961 0.2,-0.05 0.5498,-0.100585 1.0498,-0.100585 v -0.75 l -3.0498,0.05078 c -0.3,0 -1.15,-7.8e-4 -2.5,-0.05078 l -0.0498,-0.049805 z m 23.6495,0 -1.75,0.049805 c -0.95,0 -1.7996,0.05078 -2.5996,0.05078 h -1.1006 -2 v 0.6494 c 0.65,0.05 1.1,0.10039 1.25,0.15039 0.05,0.05 0.10039,0.049414 0.15039,0.149415 0.05,0.15 0.10039,0.5502 0.15039,1.2002 v 1.6504 3.849601 c 0,0.449999 -0.001,1.1504 -0.0508,2.1504 0,0.55 -0.0496,0.8994 -0.0996,1.1494 -0.2,0.15 -0.49961,0.349999 -0.8496,0.5 V 14.3106 c 1.75,-0.05 2.6996,-0.04981 2.8496,-0.04981 0.5,0 1.4498,-1.95e-4 2.7998,0.04981 l 1.4004,0.0498 c 0.65,0 1.1998,1.95e-4 1.5498,-0.0498 l 0.0996,-0.09961 c 0,-0.75 0.0504,-1.649801 0.15039,-2.7998 h -0.7002 c -0.1,0.75 -0.24961,1.2498 -0.34961,1.5498 -0.05,0.1 -0.0506,0.149415 -0.10059,0.149415 -0.1,0.05 -0.44922,0.150389 -0.9492,0.150389 -0.5,0.05 -1.1002,0.0498 -1.7002,0.0498 -0.65,0 -1.1506,1.95e-4 -1.6006,-0.0498 0,-0.3 -0.0498,-0.599999 -0.0498,-1 V 8.6611945 c 0.35,-0.05 0.8004,-0.05078 1.4004,-0.05078 0.6,0 1.1498,0.050585 1.5498,0.100585 0.2,0.05 0.29961,0.100195 0.34961,0.200195 0.1,0.15 0.15039,0.5492 0.15039,1.1992005 h 0.7002 l -0.0498,-1.8496005 0.0498,-1.8496 h -0.7002 c 0,0.5 -0.0496,0.8496 -0.0996,1.0996 -0.05,0.1 -0.0506,0.150195 -0.10058,0.200195 -0.05,0.05 -0.24981,0.049805 -0.5498,0.049805 -0.8,0 -1.3004,0.049805 -1.4004,0.049805 -0.4,0 -0.7992,1.95e-4 -1.1992,-0.049805 v -1.75 c 0,-1 0.0494,-1.8002 0.14941,-2.4502 0.55,-0.05 1.0498,-0.049805 1.5498,-0.049805 0.55,0 1.1004,0.049609 1.6504,0.09961 0.4,0.05 0.6002,0.10039 0.7002,0.15039 0.05,0.05 0.0496,0.10039 0.0996,0.15039 0.05,0.15 0.0506,0.55 0.10059,1.25 h 0.6494 c 0.05,-0.75 0.0506,-1.15 0.10058,-1.25 l 0.14942,-1.25 -0.0498,-0.100585 c -0.15,-0.05 -0.19981,-0.049805 -0.29981,-0.049805 -0.6,0 -1.05,-0.049805 -1.25,-0.049805 l -0.15039,-0.15039 z m 12.1505,0 c -0.45,0 -1.05,-1.953e-4 -1.75,0.049805 -0.45,0.05 -0.9498,0.05078 -1.5498,0.05078 h -1.6006 c -0.8,-0.05 -1.2496,-0.05078 -1.3496,-0.05078 v 0.7002 c 0.7,0.05 1.1,0.10039 1.25,0.15039 l 0.14941,0.149415 c 0.05,0.15 0.10059,0.5508 0.10059,1.3008 l 0.0498,1.7998 v 3.1494 l -0.0996,2.499999 c 0,0.45 -0.0506,0.800001 -0.10059,1 0,0.1 -0.0496,0.2 -0.0996,0.25 -0.05,0.05 -0.0504,0.100585 -0.15039,0.100585 -0.1,0.05 -0.49941,0.04961 -1.1494,0.09961 v 0.75 c 0.75,-0.05 1.5492,-0.04981 2.4492,-0.04981 1,0 2.0002,-1.95e-4 2.9502,0.04981 v -0.75 c -0.55,0 -0.85,1.94e-4 -1,-0.04981 -0.1,0 -0.2,-0.04961 -0.25,-0.09961 l -0.0996,-0.100585 c -0.05,-0.1 -0.10058,-0.29961 -0.10058,-0.599601 0,-0.15 -0.0498,-0.85 -0.0498,-2 0,-0.949999 -0.0498,-1.850199 -0.0498,-2.700199 0,-0.55 -2e-4,-1.6 0.0498,-3.2002 0,-0.7 0.0498,-1.1994 0.0498,-1.3994 0.25,-0.05 0.5508,-0.05078 0.8008,-0.05078 0.6,0 1.05,0.05039 1.25,0.15039 0.35,0.15 0.6992,0.4 0.9492,0.75 0.25,0.35 0.40039,0.7496 0.40039,1.2998 0,0.5 -0.0996,1.0004 -0.34961,1.4004 -0.25,0.4 -0.5506,0.6994 -0.8506,0.8994 -0.35,0.15 -0.8498,0.250195 -1.5498,0.200195 l -0.0996,0.299805 c 0.15,0.15 0.35,0.30078 0.5,0.5508 0.35,0.5 0.7996,1.149799 1.3496,2.0498 l 1.8496,3 c 0.1,0.199999 0.15019,0.349999 0.20019,0.5 0.45,0 0.9006,-0.0498 1.3506,-0.0498 0.40001,0 0.9994,-1.95e-4 1.8994,0.0498 v -0.75 c -0.25,0 -0.4498,1.96e-4 -0.5498,-0.0498 -0.1,-0.05 -0.1998,-0.100195 -0.2998,-0.200196 -0.1,-0.1 -0.3498,-0.449999 -0.7998,-1 -0.05,-0.05 -0.20059,-0.300584 -0.6006,-0.8506 l -1.3496,-1.949199 c -0.05,-0.05 -0.0506,-0.10039 -0.10059,-0.15039 -0.05,-0.05 -0.1498,-0.2 -0.2998,-0.5 -0.2,-0.25 -0.35,-0.5 -0.5,-0.75 0.9,-0.35 1.5502,-0.7996 1.9502,-1.3496 0.4,-0.55 0.6504,-1.2004 0.6504,-1.8506 0,-0.6 -0.1502,-1.1 -0.4502,-1.5 -0.3,-0.4 -0.7004,-0.6498 -1.1504,-0.7998 -0.45,-0.15 -1.1,-0.200195 -2,-0.200195 l 0.15039,-0.25 z m 22.1495,0 v 0.75 c 0.6,0 1.0006,0.050585 1.1006,0.100585 0.1,0.05 0.15019,0.049609 0.20019,0.09961 0.05,0.05 0.0496,0.10039 0.0996,0.15039 0.05,0.2 0.0996,0.6496 0.0996,1.3496 v 2.2002 3.5498 c 0,0.6 2e-4,1.2004 -0.0498,1.9004 -0.05,0.45 -0.0496,0.7498 -0.0996,0.7998 0,0.05 -0.0506,0.09942 -0.10058,0.149415 -0.05,0.05 -0.15,0.05058 -0.25,0.100585 -0.1,0 -0.45,0.0498 -1,0.0498 v 0.75 c 0.7,-0.05 1.5502,-0.0498 2.4502,-0.0498 1.05,0 2.0502,-1.96e-4 2.9502,0.0498 v -0.75 c -0.55,0 -0.9,-0.0498 -1,-0.0498 -0.1,0 -0.2,-0.05058 -0.25,-0.100585 -0.05,-0.05 -0.0996,-0.09922 -0.0996,-0.19922 -0.05,-0.15 -0.10059,-0.5504 -0.10059,-1.1504 v -1.5498 -3.4502 c 0,-0.1 -1.9e-4,-0.85 0.0498,-2.25 0,-0.4 0.001,-0.6996 0.0508,-0.8496 0,-0.25 0.0496,-0.45078 0.0996,-0.5508 0,-0.05 0.0496,-0.09961 0.0996,-0.09961 0.05,-0.05 0.1002,-0.09961 0.2002,-0.09961 0.1,-0.05 0.4498,-0.05078 1.0498,-0.05078 v -0.75 c -0.95,0.05 -1.8992,0.05078 -2.9492,0.05078 -0.95,0 -1.7502,-7.8e-4 -2.4502,-0.05078 L 184.93041,2.31059 Z m 8.95,0 -0.0996,0.100585 c 0.05,0.3 0.0496,0.5498 0.0996,0.7998 0,0.15 0.0498,0.8 0.0498,2 h 0.7002 c 0,-0.5 0.0504,-0.9506 0.15039,-1.3506 0.05,-0.15 0.0496,-0.249805 0.0996,-0.299805 0.05,-0.05 0.0998,-0.04961 0.2998,-0.09961 0.45,-0.05 1.0004,-0.049805 1.6504,-0.049805 h 1.25 v 2.3496 5.099501 c 0,1.25 -0.0496,1.9502 -0.0996,2.2002 -0.05,0.15 -0.15,0.300585 -0.25,0.350585 -0.15,0.05 -0.5502,0.09942 -1.2002,0.149415 v 0.7002 c 1.05,-0.05 1.9998,-0.0498 2.7998,-0.0498 0.75,0 1.6998,-1.96e-4 2.7998,0.0498 v -0.7002 c -0.7,0 -1.1002,-0.04941 -1.2002,-0.149415 -0.15,-0.05 -0.2,-0.200585 -0.25,-0.350585 -0.05,-0.25 -0.0996,-1.0002 -0.0996,-2.2002 V 5.7607805 c 0,-1.35 -1.9e-4,-2.1496 0.0498,-2.3496 h 1.2002 c 0.65,0 1.2002,-1.953e-4 1.7002,0.049805 0.15,0 0.25,0.049805 0.25,0.049805 0.05,0.05 0.0996,0.14961 0.0996,0.34961 0.05,0.4 0.10059,0.8508 0.10059,1.3008 h 0.6992 c 0,-1.2 0.001,-1.8506 0.0508,-1.8506 0,-0.25 0.0496,-0.5994 0.0996,-0.8994 l -0.1,-0.1006 c -0.25,0.05 -0.5508,0.049805 -0.8008,0.049805 h -2.8496 -3.4502 -2.8496 c -0.3,0 -0.6006,-0.049805 -0.8506,-0.049805 h -0.0498 z m -155.85,0.049805 v 7.6505 h 2.9004 v 30.249999 h -2.9004 v 7.700001 h 14.3995 v -7.700001 h -2.7998 V 28.61042 h 10.75 v -7.699 h -10.75 v -10.9005 h 11.8 v 4.2002 h 7.801 V 2.3606195 h -31.1505 -0.0498 z m 46.55,0 v 0.6504 l 1.1504,0.15039 0.19922,0.19922 c 0.05,0.1 0.100585,0.30078 0.100585,0.5508 0.05,0.65 0.0498,1.3492 0.0498,2.1494 v 2.1504 1.6494 c 0,0.899999 -1.95e-4,1.450399 0.0498,1.6504 0.05,0.349999 0.15059,0.6998 0.350585,1.049799 0.200005,0.35 0.449805,0.700201 0.7998,0.950201 0.35,0.3 0.7996,0.500199 1.3496,0.7002 0.75,0.25 1.5504,0.34961 2.4004,0.34961 0.75,0 1.4002,-0.05 1.9502,-0.25 0.55,-0.15 1.0492,-0.400195 1.4492,-0.7002 0.4,-0.300001 0.7502,-0.649801 0.9502,-1.0498 0.25,-0.4 0.350195,-0.849399 0.450195,-1.3994 0.05,-0.55 0.150395,-1.1006 0.15039,-1.6006 v -2 c 0,-0.6 -1.95e-4,-1.3993 0.0498,-2.3994 0.05,-1 0.09941,-1.6 0.149415,-1.75 0.05,-0.15 0.10039,-0.2 0.15039,-0.25 0.15,-0.1 0.45,-0.100585 1,-0.100585 v -0.7002 l -1.9004,0.05078 h -0.25 c -0.2,0 -0.7996,-7.8e-4 -1.8496,-0.05078 v 0.7002 c 0.65,0 1.05,0.10039 1.25,0.15039 0.1,0.05 0.150195,0.100195 0.200195,0.200195 0.05,0.15 0.09941,0.5998 0.149415,1.2998 v 2.75 1.75 c 0,1.2 -0.0998,2.0502 -0.299805,2.4502 -0.2,0.45 -0.55,0.7998 -1,1.0498 -0.45,0.25 -1.0994,0.399414 -1.8994,0.399414 -0.7,0 -1.2502,-0.0998 -1.7002,-0.299804 -0.45,-0.2 -0.75,-0.449805 -1,-0.7998 -0.2,-0.35 -0.35039,-0.7498 -0.40039,-1.299799 0,-0.25 -0.0498,-0.900401 -0.0498,-1.900401 v -1 -1.9502 c 0,-1.1999 0.05039,-1.9496 0.15039,-2.3496 0.05,-0.15 0.09941,-0.249805 0.149415,-0.299805 0.15,-0.1 0.5504,-0.15039 1.1504,-0.15039 v -0.7002 h -0.350585 l -1.1494,0.05078 h -1.1504 l -2.7998,-0.05078 z m -62.1,0.05078 v 7.6495 h 2.79885 v 18.1505 c 0,7.599999 -0.8996,11.249999 -6.3495,11.249999 -5.4499,0 -6.3495,-3.65 -6.3495,-11.249999 V 10.0607 h 2.79885 V 2.4611995 H 0.93007 V 10.0112 h 2.8496 v 20.7 c 0,4.499999 3.907e-4,8.249499 2.1504,11.599499 2.4,3.75 6.7,6.1505 13,6.1505 11.1,0 15.051,-5.799999 15.051,-17.749999 v -20.7 h 2.89845 V 2.4116995 h -14.3985 z m 211.45,3.3996 c -0.7,0 -1.2994,0.15039 -1.8994,0.40039 -0.6,0.25 -1.1504,0.6 -1.6504,1 -0.5,0.4 -0.8498,0.7002 -1.0498,0.9502 -0.3,0.4 -0.5996,1.0494 -0.8496,1.899401 -0.25,0.9 -0.40039,1.6998 -0.40039,2.5498 0,0.599999 0.1,1.1006 0.25,1.6006 0.2,0.5 0.5002,0.849399 0.9502,1.1494 0.45,0.3 1.0496,0.400389 1.8496,0.400389 0.65,0 1.2498,-0.0998 1.7998,-0.299804 0.55,-0.2 1.1004,-0.5006 1.6504,-0.8506 0.55,-0.4 1,-0.7498 1.25,-1.0498 0.35,-0.45 0.7,-1.1002 1,-1.9502 0.3,-0.85 0.45019,-1.699601 0.45019,-2.599601 0,-0.45 -0.0504,-0.85 -0.15039,-1.25 -0.1,-0.4 -0.3,-0.7002 -0.5,-0.9502 -0.25,-0.25 -0.5998,-0.499415 -1.0498,-0.6494 -0.45,-0.15 -0.9998,-0.25 -1.5498,-0.25 L 233.9304,5.81079 Z m -0.7744,0.9033 c 0.49,0.007 0.9296,0.202875 1.2246,0.5469 0.3,0.35 0.45019,0.95 0.45019,1.75 0,0.95 -0.15039,1.950199 -0.40039,2.950199 -0.2,0.7 -0.39961,1.2494 -0.5996,1.6494 -0.25,0.400001 -0.5,0.7004 -0.75,0.9004 -0.25,0.2 -0.6002,0.299805 -0.9502,0.299805 -0.55,0 -0.9998,-0.199805 -1.2998,-0.5498 -0.3,-0.35 -0.45019,-0.95 -0.45019,-1.75 0,-0.9 0.15019,-1.9 0.45019,-2.999999 0.3,-1.1 0.65,-1.8502 1,-2.2002 0.345,-0.3935 0.8352,-0.5897 1.3252,-0.5967 z m -87.125,12.447499 c -2.5,0 -4.7506,0.34961 -6.8505,1.0996 -1.65,0.55 -3.1498,1.4998 -4.5498,2.7998 -1.4,1.300002 -2.5,2.850201 -3.25,4.7002 -0.75,1.850001 -1.0996,4 -1.0996,6.500001 0,3.2 0.6494,5.9 1.8994,8.049999 1.25,2.15 2.9504,3.8004 5.1505,4.9004 2.2,1.1 4.7996,1.6494 7.8495,1.6494 2.8,0 5.351,-0.44961 7.551,-1.3496 1.6,-0.7 3.0498,-1.6504 4.2998,-2.9004 1.25,-1.25 2.1996,-2.699599 2.8496,-4.3496 0.9,-2.2 1.2998,-4.5496 1.2998,-7.0995 0,-1.5 -0.14922,-2.9004 -0.44922,-4.1504 -0.3,-1.25 -0.7506,-2.4002 -1.3506,-3.4502 -0.6,-1.05 -1.4496,-2.0498 -2.5996,-3.0498 -1.15,-1 -2.4502,-1.7498 -3.9502,-2.2998 -2,-0.7 -4.2502,-1.0498 -6.7,-1.0498 h -0.0996 z m 99.9,0.299805 0.0508,0.0498 -1.8008,4.6504 -5.3,13.0995 c -1,2.5 -1.6998,4.149999 -2.0498,5 -0.75,1.799999 -1.2504,2.8496 -1.4004,3.0996 -0.15,0.3 -0.29922,0.5006 -0.44922,0.6006 -0.15,0.15 -0.35078,0.249805 -0.5508,0.299805 -0.2,0.05 -0.8492,0.100195 -1.9492,0.200195 v 1.7002 l 4.6494,-0.15039 4.7002,0.15039 v -1.7002 c -1.6,-0.05 -2.6004,-0.150585 -2.9004,-0.350585 -0.2,-0.15 -0.34961,-0.349221 -0.34961,-0.6992 0,-0.45 0.35,-1.6 1,-3.5 l 0.9004,-2.4502 h 10.5 l 1.75,4.4502 c 0.3,0.75 0.44922,1.349401 0.44922,1.6494 0,0.25 -0.0998,0.450584 -0.29981,0.6006 -0.2,0.1 -1.1498,0.200001 -2.7998,0.25 v 1.6992 l 7.1505,-0.149415 5.6495,0.149415 v -1.6992 c -0.4,-0.05 -0.6994,-0.05058 -0.8994,-0.100585 -0.65,-0.05 -1.0502,-0.09942 -1.2002,-0.149415 -0.15,-0.05 -0.30039,-0.15 -0.40039,-0.25 -0.1,-0.1 -0.24941,-0.300781 -0.39941,-0.5508 l -0.8008,-1.849601 -1.25,-2.799799 -9.0995,-21.25 h -2.9004 z m -144.3,0.0498 0.0498,0.09961 -9.8,0.200195 -7.25,-0.149415 v 1.6992 c 1.3,0.100001 2.1504,0.150195 2.4004,0.200196 0.3,0.05 0.449805,0.150195 0.5498,0.200195 0.1,0.05 0.150195,0.19961 0.200195,0.349609 0.1,0.45 0.200195,1.150201 0.200195,2.2002 0.150005,3.6 0.19922,5.5 0.19922,5.7 v 8.45 c 0,0.7 3.9e-4,1.8998 -0.09961,3.5498 -0.05,1.65 -0.15039,2.6502 -0.15039,2.9502 -0.05,0.55 -0.149805,0.8998 -0.299805,1.0498 -0.1,0.1 -0.199805,0.200195 -0.299805,0.200195 -0.25,0.1 -1.15,0.150195 -2.75,0.200195 v 1.6992 c 2.5,-0.1 4.35,-0.149415 5.5,-0.149415 l 8,0.149415 v -1.5996 c -1.9,-0.15 -2.9502,-0.24961 -3.2002,-0.34961 -0.25,-0.1 -0.4,-0.200585 -0.5,-0.350585 -0.15,-0.2 -0.24961,-0.95 -0.34961,-2.25 -0.05,-1.3 -0.100585,-3.55 -0.100585,-6.75 v -2.25 c 0.75,0 1.3004,-0.0498 1.6504,-0.0498 2.15,0 3.75,0.1 4.749995,0.25 0.4,0.1 0.65,0.20039 0.75,0.40039 0.2,0.35 0.29961,1.3498 0.34961,3.0498 h 1.8008 v -8.8 h -1.8008 c -0.05,1.2 -0.1,1.9498 -0.25,2.2998 -0.1,0.25 -0.19961,0.400195 -0.34961,0.450195 -0.45,0.15 -1.549595,0.25 -3.349595,0.25 -0.6,0 -1.75,-0.05039 -3.5,-0.15039 v -2.8496 c 0,-3.5 0.0492,-5.951 0.19922,-7.301 0.4,-0.05 1.1004,-0.04961 2.1504,-0.09961 1.05,-0.05 1.7004,-0.0498 1.9004,-0.0498 1.2,0 2.199595,0.0502 3.099595,0.200195 0.9,0.15 1.4502,0.3 1.7002,0.5 0.1,0.05 0.14942,0.09922 0.14942,0.19922 0.05,0.1 0.10039,0.45078 0.15039,1.0508 0.05,1.15 0.0996,1.8492 0.0996,2.1992 h 1.6504 c 0,-0.9 0.10019,-1.9494 0.20019,-3.1494 0.1,-1.2 0.24942,-2.2002 0.39942,-2.9502 l -0.14942,-0.299805 c -1.2,-0.15 -2.5004,-0.200195 -3.9004,-0.200195 z m 74.45,0.09961 c -1.1,0 -2.5004,0.05039 -4.1504,0.150391 -1,0.05 -2.2494,0.09961 -3.6494,0.09961 -1.65,0 -2.9506,1.96e-4 -3.8506,-0.0498 -1.85,-0.05 -2.95,-0.09961 -3.25,-0.09961 v 1.6494 c 1.65,0.100001 2.65,0.25039 3,0.400391 0.15,0.1 0.25078,0.19961 0.30078,0.349609 0.15,0.350001 0.2,1.3508 0.25,3.0508 l 0.0996,4.2998 v 7.55 l -0.15039,5.95 c -0.05,1.05 -0.0992,1.8994 -0.19922,2.3994 -0.05,0.3 -0.10039,0.450781 -0.15039,0.550801 -0.05,0.100001 -0.19961,0.14922 -0.34961,0.199219 -0.3,0.1 -1.2,0.150195 -2.75,0.200195 v 1.7998 c 1.8,-0.1 3.7494,-0.149415 5.8995,-0.149415 2.35,0 4.6998,0.04942 7.05,0.149415 v -1.7998 c -1.3,-0.05 -2.0996,-0.04961 -2.3496,-0.09961 -0.25,-0.05 -0.44961,-0.150195 -0.5996,-0.200196 -0.1,-0.1 -0.2,-0.199804 -0.25,-0.299804 -0.1,-0.25 -0.2,-0.75 -0.25,-1.5 -0.05,-0.4 -0.0506,-1.950001 -0.10059,-4.75 -0.05,-2.3 -0.0498,-4.4002 -0.0498,-6.450001 0,-1.299999 0.0504,-3.850199 0.15039,-7.699999 0.05,-1.7 0.0994,-2.7998 0.14942,-3.2998 0.65,-0.100001 1.3002,-0.150391 1.9502,-0.150391 1.45,0 2.4998,0.10078 3.0498,0.30078 0.9,0.350001 1.6002,0.9 2.2002,1.75 0.6,0.850001 0.9004,1.8496 0.9004,3.0996 0,1.25 -0.25059,2.349599 -0.8506,3.349599 -0.55,1 -1.2996,1.700801 -2.0996,2.050801 -0.85,0.4 -2.0502,0.549999 -3.7002,0.5 l -0.2002,0.6494 c 0.4,0.299999 0.8,0.7506 1.25,1.3506 0.85,1.2 1.9502,2.799599 3.2002,4.8496 l 4.3496,7.2 c 0.25,0.45 0.4,0.8494 0.5,1.1494 1.05,-0.05 2.15,-0.09961 3.25,-0.09961 0.95,0 2.4508,0.04961 4.5508,0.09961 v -1.7998 c -0.65,0 -1.0508,-0.04942 -1.3008,-0.149414 -0.2,-0.1 -0.44941,-0.25 -0.6494,-0.5 -0.25,-0.25 -0.8506,-1.050401 -1.8506,-2.4004 -0.05,-0.1 -0.49961,-0.75 -1.3496,-2 l -3.1504,-4.7002 c -0.1,-0.1 -0.15,-0.24961 -0.25,-0.34961 -0.05,-0.15 -0.35,-0.5004 -0.75,-1.1504 -0.45,-0.65 -0.7994,-1.2496 -1.1494,-1.8496 2.1,-0.8 3.7002,-1.8502 4.7002,-3.2002 1,-1.35 1.5498,-2.85 1.5498,-4.5 0,-1.4 -0.40058,-2.5498 -1.1006,-3.5498 -0.75,-0.95 -1.6492,-1.6004 -2.6992,-1.9004 -1.05,-0.3 -2.6508,-0.450195 -4.8008,-0.450195 h -0.34961 z m 45.1505,0 c -1.05,0 -2.4504,8.01e-4 -4.1504,0.05078 -2.4,0.1 -4.0504,0.149415 -4.9004,0.149415 l -7.3995,-0.149415 v 1.6494 c 1.45,0.2 2.3498,0.300586 2.5498,0.350585 0.25,0.05 0.4,0.15 0.5,0.25 0.05,0.05 0.10039,0.149805 0.15039,0.299805 0.15,0.55 0.2,1.7494 0.25,3.6494 0.05,3.45 0.0996,6.1005 0.0996,7.9005 v 3.3496 c 0,4.1 -0.0502,7.0505 -0.2002,8.8505 -0.45,0.3 -0.8994,0.5994 -1.3994,0.8994 -0.25,0.15 -0.45078,0.250585 -0.5508,0.350585 v 1 l 6.1505,-0.15039 6.05,0.15039 c 2.75,0 5.1,-0.30039 7,-0.9004 1.95,-0.6 3.7504,-1.6002 5.4005,-2.9502 1.65,-1.35 2.9494,-3.0496 3.8994,-5.0995 0.95,-2.05 1.4004,-4.3502 1.4004,-6.95 0,-2.05 -0.30019,-3.8996 -0.9502,-5.5995 -0.4,-1 -0.9494,-2.0006 -1.6494,-2.8506 -0.75,-0.9 -1.6502,-1.6498 -2.7002,-2.2998 -1.05,-0.65 -2.3,-1.0994 -3.75,-1.3994 -1.45,-0.3 -3.35,-0.450195 -5.75,-0.450195 l -0.0498,-0.100585 z m -114.05,0.05078 -0.0498,0.09961 c 0.015,0.001 0.0348,9.5e-4 0.0498,0.002 z m 0,0.10156 v 1.69825 c 1.75,0.05 2.8004,0.199415 3.1504,0.399416 0.15,0.1 0.2498,0.200585 0.2998,0.350584 0.1,0.350001 0.2,1.8494 0.25,4.3994 0,1 0.0498,3.6502 0.0498,7.950001 0,2.9 3.9e-4,5.4 -0.0996,7.5 -0.05,2.1 -0.10019,3.300399 -0.20019,3.650399 0,0.100001 -0.0496,0.150195 -0.0996,0.200196 -0.1,0.1 -0.2498,0.249414 -0.5498,0.399414 -0.65,0.4 -1.15,0.6498 -1.5,0.7998 v 1.0508 c 2.7,-0.1 4.7498,-0.200195 6.05,-0.200195 0.9,0 2.4494,-3.9e-4 4.6494,0.09961 2.95,0.05 4.5508,0.100585 4.8008,0.100585 1.75,0 3.0496,-0.05059 3.8496,-0.100585 0.4,-0.05 0.8004,-0.1 1.1504,-0.25 0,-0.25 0.0992,-1.0498 0.19922,-2.2998 l 0.5,-4.0996 c 0,-0.05 0.001,-0.30039 0.0508,-0.6504 h -1.6504 c -0.25,1.35 -0.5498,2.4998 -0.7998,3.5498 -0.1,0.4 -0.25059,0.65 -0.35059,0.75 -0.1,0.1 -0.45,0.2 -1,0.25 -1.55,0.25 -3.3494,0.350585 -5.3995,0.350585 -0.7,0 -1.9506,-0.05039 -3.8506,-0.15039 0,-0.4 2e-4,-1.5502 -0.0498,-3.4502 0,-1.9 2e-4,-3.85 -0.0498,-5.75 v -5.8495 c 0,-2.3 0.0496,-4.1504 0.0996,-5.6505 0.05,-1.5 0.1502,-2.35 0.2002,-2.5 0.05,-0.2 0.20059,-0.299415 0.35058,-0.399415 0.35,-0.2 1.2498,-0.300585 2.7998,-0.350585 v -1.7998 c -2.2,0.1 -4.55,0.15039 -7,0.15039 -2.18,0 -4.1606,-0.05044 -5.8505,-0.14844 z m 83.5,-0.10156 v 1.7998 c 1.5,0.05 2.3506,0.09942 2.6006,0.149416 0.25,0.05 0.4,0.149999 0.5,0.25 0.1,0.1 0.1502,0.25039 0.20019,0.40039 0.1,0.449999 0.15,1.5 0.25,3.25 0.05,0.75 0.0498,2.500199 0.0498,5.199999 v 8.5 c 0,1.4 -0.0504,2.8998 -0.15039,4.5498 -0.05,1.1 -0.0994,1.7504 -0.14941,1.9004 -0.05,0.1 -0.1002,0.24961 -0.2002,0.34961 -0.1,0.1 -0.30058,0.150195 -0.6006,0.200195 -0.2,0.05 -0.9992,0.09942 -2.4492,0.149415 v 1.8008 c 1.7,-0.1 3.6496,-0.15039 5.8495,-0.15039 2.5,0 4.8996,0.05039 7.0995,0.15039 v -1.8008 c -1.35,-0.05 -2.1492,-0.04961 -2.4492,-0.09961 -0.3,-0.05 -0.5006,-0.15 -0.6006,-0.25 -0.15,-0.1 -0.2498,-0.250195 -0.2998,-0.450195 -0.15,-0.4 -0.2002,-1.3002 -0.2002,-2.7002 l -0.0498,-3.75 v -8.199 c 0,-0.25 -3.9e-4,-2.0504 0.0996,-5.4005 0,-1 0.0508,-1.65 0.0508,-2 0.05,-0.65 0.0992,-1.0998 0.19922,-1.2998 0.05,-0.15 0.15,-0.250585 0.25,-0.350585 0.1,-0.1 0.30078,-0.14922 0.5508,-0.19922 0.25,-0.05 1.04921,-0.10039 2.4492,-0.15039 v -1.7998 c -2.2,0.1 -4.5498,0.149415 -7.05,0.149415 -2.2,0 -4.1994,-0.04941 -5.8995,-0.149415 l -0.0508,-0.04981 z m -45.0995,1.7998 c 1.75,0 3.1502,0.299415 4.2002,0.8994 1.05,0.599985 1.95,1.450801 2.75,2.5508 0.75,1.1 1.3498,2.4498 1.7998,4.0498 0.4,1.600001 0.6504,3.3002 0.6504,5.2 0,2.75 -0.40039,5.149501 -1.1504,7.0995 -0.75001,1.950001 -1.8004,3.3504 -3.1504,4.1504 -1.35,0.8 -2.8996,1.1992 -4.5996,1.1992 -1.85,0 -3.4498,-0.449805 -4.7998,-1.2998 -1.35,-0.849995 -2.4506,-2.3494 -3.3506,-4.3994 -0.85,-2.05 -1.2998,-4.7006 -1.2998,-7.8505 0,-2.2 0.30019,-4.1998 0.9502,-6.05 0.65,-1.8 1.6498,-3.1996 3.0498,-4.0996 1.4,-0.949999 3.0998,-1.4004 5.05,-1.4004 l -0.0996,-0.0498 z m 72.2,0.34961 c 2.8,0 4.8502,0.25 6.2,0.75 1.35,0.5 2.4994,1.3006 3.3994,2.3506 0.9,1.1 1.5502,2.3498 1.9502,3.7998 0.4,1.45 0.5996,2.95 0.5996,4.5 0,1.700001 -0.19961,3.3 -0.5996,4.75 -0.4,1.450001 -0.9504,2.699801 -1.6504,3.7998 -0.7,1.05 -1.45,1.8504 -2.25,2.4004 -0.8,0.55 -1.6492,0.95 -2.6992,1.25 -1.4,0.4 -3.0008,0.5996 -4.8008,0.5996 -1.15,0 -2.3496,-0.09961 -3.5996,-0.34961 -0.15,-1.299999 -0.2002,-3.95 -0.2002,-8 v -4.650399 c 0,-5.3 0.0502,-8.9495 0.2002,-10.8495 1.25,-0.199999 2.4002,-0.300779 3.4502,-0.300779 v -0.0498 z m 27.8995,4.7998 4.3506,10.551001 c -1.25,0.05 -2.6002,0.0498 -4.2002,0.0498 -1.6,0 -3.0496,1.97e-4 -4.3496,-0.0498 z"
     id="path838"
     style="fill:#ffffff;stroke-width:0.5" /></g></svg>
