<?xml version="1.0" encoding="UTF-8" standalone="no"?>
<!-- Generator: Adobe Illustrator 24.3.0, SVG Export Plug-In . SVG Version: 6.00 Build 0)  -->

<svg
   version="1.1"
   id="Layer_1"
   x="0px"
   y="0px"
   viewBox="0 0 717.01227 272.55152"
   xml:space="preserve"
   sodipodi:docname="partner-logos.svg"
   width="717.01227"
   height="272.55151"
   inkscape:version="1.1.2 (0a00cf5339, 2022-02-04, custom)"
   xmlns:inkscape="http://www.inkscape.org/namespaces/inkscape"
   xmlns:sodipodi="http://sodipodi.sourceforge.net/DTD/sodipodi-0.dtd"
   xmlns="http://www.w3.org/2000/svg"
   xmlns:svg="http://www.w3.org/2000/svg"><defs
   id="defs6412" /><sodipodi:namedview
   id="namedview6410"
   pagecolor="#ffffff"
   bordercolor="#666666"
   borderopacity="1.0"
   inkscape:pageshadow="2"
   inkscape:pageopacity="0.0"
   inkscape:pagecheckerboard="0"
   showgrid="false"
   fit-margin-top="0"
   fit-margin-left="0"
   fit-margin-right="0"
   fit-margin-bottom="0"
   inkscape:zoom="2.5995086"
   inkscape:cx="365.64603"
   inkscape:cy="128.48582"
   inkscape:window-width="3440"
   inkscape:window-height="1369"
   inkscape:window-x="-8"
   inkscape:window-y="-8"
   inkscape:window-maximized="1"
   inkscape:current-layer="Layer_1" />
<style
   type="text/css"
   id="style6277">
	.st0{fill:none;stroke:#FFFFFF;stroke-width:0.75;stroke-miterlimit:10;}
	.st1{fill:#FFFFFF;}
	.st2{fill:#B1B3B6;}
	.st3{enable-background:new    ;}
</style>
<g
   id="g336"
   transform="matrix(3.7795274,0,0,3.7795274,4.9715236,13.827511)"><path
     d="m 17.80664,15.304904 c -0.127563,0.07772 -0.410563,0.03897 -0.526757,0.233706 -0.154878,0.254851 -0.188778,0.292982 -0.255131,0.271075 -0.149748,-0.59879 0.52676,-1.36494 0.78785,-1.125755 0.204728,0.182275 0.210689,0.48204 -0.006,0.620974 z m 0.155429,-0.981968 c -0.155429,-0.0834 -0.365915,-0.122707 -0.554351,-0.05526 -0.282721,0.07772 -0.372154,0.337977 -0.539513,0.57085 -0.159734,0.244036 -0.42651,0.416249 -0.64857,0.505336 -0.139216,0.321199 0.100459,1.082216 0.327719,1.431286 0.127208,0.261021 0.653974,0.893364 0.543741,1.852871 0.415694,-0.604405 0.748261,-1.247911 0.887196,-1.636498 0.244523,-0.521347 0.355309,-1.348367 0.333124,-1.908957 -0.03335,-0.271904 -0.09969,-0.615287 -0.349346,-0.759632 z m -4.727644,1.215674 c -0.111,-0.194753 -0.393995,-0.155999 -0.527243,-0.233706 -0.215543,-0.138939 -0.205004,-0.438709 -0.0056,-0.620974 0.261299,-0.239185 0.938361,0.526965 0.788611,1.125755 -0.06688,0.0219 -0.09996,-0.01631 -0.255959,-0.271075 z m 0.732869,1.236543 c 0.227467,-0.349069 0.466304,-1.110087 0.327647,-1.431285 -0.222058,-0.08909 -0.488558,-0.2613 -0.649952,-0.505337 -0.160853,-0.232872 -0.254574,-0.493132 -0.537573,-0.57085 -0.188425,-0.06746 -0.400234,-0.02815 -0.555115,0.05526 -0.249442,0.144344 -0.310105,0.487729 -0.349416,0.759633 -0.01631,0.560589 0.08831,1.38761 0.332294,1.908958 0.144619,0.388586 0.477465,1.032091 0.893157,1.636499 -0.116213,-0.959508 0.416246,-1.591851 0.538958,-1.852871 z m -2.163808,-3.573396 c -0.294646,0.04986 -0.349624,0.483359 -0.128388,0.743617 -0.20445,-0.02218 -0.509634,-0.305182 -1.231135,-0.07828 -0.249374,0.07828 -0.5329269,0.178245 -0.5719599,0.499649 -0.027599,0.238906 0.2943709,0.493965 0.4993739,0.644268 0.211243,0.160087 0.544088,0.171721 0.716092,0.432821 0.144345,0.221226 0.260745,0.559755 0.300054,0.865216 0.06635,0.588461 0.05554,1.326184 0.466026,1.815017 0.07722,-0.28896 -0.133732,-0.938083 -0.13839,-1.775779 -0.0067,-0.310867 -0.122923,-0.666178 -0.305461,-0.899883 0.338254,-0.0271 0.34366,0.0173 0.371324,-0.08826 0.03272,-0.105382 -0.03308,-0.221853 -0.111052,-0.315792 -0.244036,-0.282991 -0.593382,-0.133507 -0.904804,-0.233696 -0.204727,-0.07174 -0.520519,-0.177125 -0.537574,-0.465265 -0.01078,-0.194458 0.599621,-0.239114 0.599621,-0.239114 0.487727,0.03839 0.431918,0.315999 0.770447,0.343661 0.277593,0.02274 0.39427,-0.271074 0.483427,-0.44904 0.133243,-0.282999 0.288131,-0.887957 -0.27759,-0.799148 z m 8.921389,1.164995 c -0.03868,-0.321406 -0.321406,-0.421378 -0.57085,-0.49965 -0.721708,-0.22691 -1.026684,0.05609 -1.237373,0.07828 0.227257,-0.260259 0.17172,-0.693771 -0.127287,-0.743618 -0.560798,-0.0888 -0.40592,0.51615 -0.272117,0.799148 0.0888,0.177971 0.199322,0.47178 0.476843,0.449041 0.33853,-0.02767 0.287922,-0.305254 0.777032,-0.343661 0,0 0.610091,0.04464 0.599554,0.239112 -0.02246,0.288131 -0.339363,0.39351 -0.54409,0.465266 -0.305184,0.100186 -0.655361,-0.04929 -0.904734,0.233705 -0.07696,0.09393 -0.138942,0.210411 -0.111623,0.315791 0.02815,0.105597 0.04008,0.06113 0.377772,0.08826 -0.188721,0.233706 -0.299499,0.589014 -0.304907,0.899882 -0.01043,0.837697 -0.222059,1.486818 -0.138666,1.775779 0.405432,-0.488828 0.399468,-1.226552 0.466302,-1.815013 0.03875,-0.30546 0.149534,-0.64399 0.299845,-0.865217 0.171661,-0.261098 0.49965,-0.272744 0.715193,-0.432824 0.20556,-0.1503 0.526759,-0.405362 0.499095,-0.644269 z m -5.448244,1.904383 v -8.31e-4 c -0.0021,0 -0.0038,2.77e-4 -0.0057,2.77e-4 l -0.0051,-2.77e-4 v 8.31e-4 c -0.265111,0.006 -0.40862,0.229963 -0.654806,0.487724 -0.427064,0.465819 -1.304277,1.625198 -0.665969,2.174904 0.282722,0.244314 0.655154,0.410284 1.165342,0.254851 0.127561,-0.08826 0.05526,-0.349347 -0.01078,-0.466305 -0.238907,-0.310381 -0.610715,-0.187953 -0.716024,-0.343381 -0.100523,-0.149553 -0.03364,-0.267054 0.02731,-0.343661 0.0888,-0.110772 0.23315,-0.08348 0.355308,-0.05013 0.216652,0.049 0.363697,0.139687 0.49965,0.27246 v 0.01012 c 0.0019,-0.0019 0.0038,-0.003 0.0051,-0.0045 0.0019,0.0017 0.0036,0.0027 0.0057,0.0045 v -0.01022 c 0.130549,-0.132691 0.283276,-0.223722 0.499442,-0.272182 0.116671,-0.03335 0.266152,-0.06068 0.349831,0.05014 0.06635,0.0766 0.127287,0.194124 0.02794,0.343662 -0.105661,0.155429 -0.471779,0.03301 -0.710615,0.343381 -0.06607,0.116949 -0.144621,0.37805 -0.0173,0.466306 0.516705,0.155429 0.882828,-0.01054 1.165549,-0.254852 0.64366,-0.549739 -0.232928,-1.709118 -0.665954,-2.174937 -0.240221,-0.257485 -0.389692,-0.481762 -0.648914,-0.487724 z m 0.837904,3.072912 c -0.282166,0.02822 -0.591162,0.09402 -0.840331,0.08917 -0.249373,0.005 -0.558925,-0.06094 -0.840606,-0.08917 -0.0452,-0.0052 -0.07828,0.02822 -0.07828,0.02822 -0.164096,0.350664 0.779946,0.544576 0.915898,0.538059 0.136228,0.0064 1.085198,-0.187385 0.92103,-0.538059 0,0 -0.03358,-0.03335 -0.07772,-0.02822 z m 4.01481,0.875064 c -0.235301,0.09421 -0.482527,0.133459 -0.723027,0.02218 -0.190095,-0.08286 -0.308234,-0.271905 -0.342343,-0.483147 -0.04362,-0.310315 0.129704,-0.676785 0.280294,-0.92103 0.207984,-0.34879 0.684341,-0.959504 1.233282,-1.364382 0.779183,-0.577369 1.322442,-0.73821 1.120904,-0.871182 -0.140256,-0.09448 -0.879291,0.310869 -1.025297,0.388586 -0.829516,0.427062 -1.973434,1.664161 -2.107725,2.580059 -0.10613,0.721154 0.723306,1.236549 1.289092,1.042641 -1.839143,1.566664 -3.877815,1.625698 -4.589747,1.64222 v 2.69e-4 l -0.0027,-2.69e-4 -0.0022,2.69e-4 -0.001,-2.69e-4 c -0.715778,-0.01651 -2.760969,-0.07557 -4.594913,-1.642217 0.566274,0.193909 1.395511,-0.321488 1.289092,-1.042642 -0.134651,-0.915894 -1.2835,-2.152993 -2.1070514,-2.580055 -0.1453875,-0.07772 -0.8858106,-0.483081 -1.0258205,-0.388586 -0.2014869,0.132967 0.3415,0.293812 1.1211459,0.871181 0.54922,0.404878 1.020168,1.015592 1.227115,1.364383 0.15702,0.244244 0.330624,0.610714 0.28598,0.921029 -0.03416,0.211242 -0.156825,0.400303 -0.342345,0.483149 -0.240986,0.111267 -0.486893,0.07203 -0.728227,-0.02218 C 10.014195,20.085578 9.7171239,19.797391 9.4593046,19.447836 8.9721125,18.787277 8.4957504,18.027365 8.2541819,17.223086 8.4613573,17.683704 9.7729315,19.608955 10.355983,19.63655 10.954981,19.6699 9.7729315,18.072083 8.960195,17.406392 8.7641257,17.245264 8.5398913,17.056492 8.4957504,16.756439 8.4613544,16.539787 8.5737534,16.396 8.7868732,16.385184 9.1121225,16.373894 9.9581792,16.81197 9.9689934,16.795748 8.5011649,14.160435 10.747827,12.828844 9.81785,12.251479 c -0.3255117,-0.205837 -1.0136512,0 -1.389813,0.05554 3.458296,-2.042278 4.062493,-0.0056 5.105123,0.931566 0.162505,0.1503 0.896415,0 1.036668,-0.171721 0.18524,-0.222058 0.55435,-1.021206 0.134361,-1.548242 C 14.099717,10.753304 11.588432,8.4947209 9.3022304,10.492281 10.411235,8.6959832 13.000167,7.3713924 15.264781,7.4347585 c 2.265028,-0.063354 4.836697,1.2612247 5.951635,3.0575225 -2.29269,-1.9975601 -4.796904,0.261023 -5.408172,1.026337 -0.414029,0.527036 -0.04978,1.326184 0.134913,1.548244 0.145386,0.171722 0.879293,0.322031 1.042074,0.171722 1.042353,-0.937045 1.647869,-2.973845 5.10514,-0.931567 -0.375137,-0.05554 -1.070293,-0.261369 -1.389066,-0.05554 -0.93129,0.577365 1.310515,1.908957 -0.151892,4.544269 0.01129,0.01631 0.857661,-0.421934 1.182395,-0.410563 0.212839,0.01078 0.32522,0.154603 0.291389,0.371254 -0.0447,0.300054 -0.274332,0.488834 -0.464986,0.649954 -0.813016,0.66569 -1.994857,2.263502 -1.401198,2.230157 0.588182,-0.0276 1.900015,-1.952846 2.107168,-2.413464 -0.240984,0.804279 -0.722264,1.564191 -1.205067,2.22475 -0.25783,0.349555 -0.554142,0.637753 -0.929761,0.77128 z M 15.261796,7.0824159 c -4.277841,0 -7.7623793,3.4851381 -7.7623793,7.7626321 0,4.272367 3.4845383,7.762336 7.7623793,7.762336 4.272087,0 7.756879,-3.489969 7.756879,-7.762336 0,-4.277494 -3.484792,-7.7626321 -7.756879,-7.7626321"
     style="fill:#ffffff;fill-opacity:1;fill-rule:nonzero;stroke:none;stroke-width:0.0693285"
     id="path20" /><path
     d="m 19.853977,20.612841 c -1.838589,1.566663 -3.877816,1.625696 -4.589193,1.642218 v 2.69e-4 l -0.0027,-2.69e-4 -0.0022,2.69e-4 -10e-4,-2.69e-4 c -0.715809,-0.01651 -2.761,-0.07555 -4.594943,-1.642218"
     style="fill:none;stroke:#ffffff;stroke-width:0.128963;stroke-linecap:butt;stroke-linejoin:miter;stroke-miterlimit:10;stroke-dasharray:none;stroke-opacity:1"
     id="path22" /><path
     d="M 9.3022325,10.492263 C 10.41124,8.6959654 12.999685,7.3713758 15.264784,7.4347417 c 2.265027,-0.063354 4.836697,1.2612237 5.951358,3.0575213"
     style="fill:none;stroke:#ffffff;stroke-width:0.128963;stroke-linecap:butt;stroke-linejoin:miter;stroke-miterlimit:10;stroke-dasharray:none;stroke-opacity:1"
     id="path24" /><path
     d="m 27.658833,13.960557 h 1.302611 c 0.5782,0 0.896971,-0.28896 0.896971,-0.814054 v -0.610714 h -0.863137 v 0.573623 c 0,0.05332 -0.01078,0.111001 -0.138371,0.111001 h -1.099205 c -0.115908,0 -0.1322,-0.0536 -0.1322,-0.111001 v -2.227454 c 0,-0.05768 0.01631,-0.110505 0.1322,-0.110505 h 1.099205 c 0.127562,0 0.138371,0.05684 0.138371,0.110505 v 0.574387 h 0.863137 v -0.610991 c 0,-0.525093 -0.318771,-0.814333 -0.896971,-0.814333 h -1.302611 c -0.578198,0 -0.896417,0.28924 -0.896417,0.814333 v 2.301149 c 0,0.525094 0.318219,0.814054 0.896417,0.814054"
     style="fill:#ffffff;fill-opacity:1;fill-rule:nonzero;stroke:none;stroke-width:0.0693285"
     id="path26" /><path
     d="m 31.553982,13.109412 v -2.227454 c 0,-0.05768 0.01631,-0.110505 0.132416,-0.110505 h 1.174492 c 0.127561,0 0.138369,0.05684 0.138369,0.110505 v 2.227454 c 0,0.05332 -0.01078,0.111001 -0.138369,0.111001 h -1.174492 c -0.116213,0 -0.132416,-0.0536 -0.132416,-0.111001 z m 0.03354,0.851145 h 1.377903 c 0.578199,0 0.896902,-0.28896 0.896902,-0.814054 v -2.301149 c 0,-0.525093 -0.318703,-0.814333 -0.896902,-0.814333 h -1.377908 c -0.578475,0 -0.896968,0.28924 -0.896968,0.814333 v 2.301149 c 0,0.525094 0.318493,0.814054 0.896968,0.814054"
     style="fill:#ffffff;fill-opacity:1;fill-rule:nonzero;stroke:none;stroke-width:0.0693285"
     id="path28" /><path
     d="m 37.401072,13.220407 h -1.837688 v -3.189386 h -0.862586 v 3.929536 h 2.700274 v -0.74015"
     style="fill:#ffffff;fill-opacity:1;fill-rule:nonzero;stroke:none;stroke-width:0.0693285"
     id="path30" /><path
     d="m 40.354602,10.881958 v 2.227454 c 0,0.05332 -0.01022,0.111001 -0.138096,0.111001 h -1.174561 c -0.116391,0 -0.132692,-0.0536 -0.132692,-0.111001 v -2.227454 c 0,-0.05768 0.01631,-0.110505 0.132692,-0.110505 h 1.174561 c 0.127838,0 0.138096,0.05684 0.138096,0.110505 z m 0.863346,2.264545 v -2.301149 c 0,-0.525093 -0.318493,-0.814333 -0.896694,-0.814333 h -1.378112 c -0.578197,0 -0.89697,0.28924 -0.89697,0.814333 v 2.301149 c 0,0.525094 0.318773,0.814054 0.89697,0.814054 h 1.378112 c 0.578201,0 0.896694,-0.28896 0.896694,-0.814054"
     style="fill:#ffffff;fill-opacity:1;fill-rule:nonzero;stroke:none;stroke-width:0.0693285"
     id="path32" /><path
     d="m 42.91892,10.766042 h 1.208674 c 0.116466,0 0.132689,0.0536 0.132689,0.11105 v 0.794782 c 0,0.05769 -0.01631,0.111077 -0.132689,0.111077 H 42.91892 Z m 1.612441,1.708529 c 0.382901,-0.09234 0.59172,-0.366678 0.59172,-0.78154 v -0.847677 c 0,-0.525093 -0.318495,-0.814333 -0.896626,-0.814333 h -2.170326 v 3.929536 h 0.862791 v -1.45347 h 0.693007 l 0.750205,1.45347 h 0.942381 l -0.773152,-1.485986"
     style="fill:#ffffff;fill-opacity:1;fill-rule:nonzero;stroke:none;stroke-width:0.0693285"
     id="path34" /><path
     d="m 47.31587,12.29016 0.431706,-1.280152 0.431639,1.280152 z m -0.247781,0.739871 h 1.358907 l 0.313918,0.930526 h 0.945432 l -1.451045,-3.929536 h -0.946749 l -1.444527,3.929536 h 0.910421 l 0.313643,-0.930526"
     style="fill:#ffffff;fill-opacity:1;fill-rule:nonzero;stroke:none;stroke-width:0.0693285"
     id="path36" /><path
     d="m 51.217741,10.771451 h 1.254984 c 0.116479,0 0.132692,0.05283 0.132692,0.110506 v 2.227453 c 0,0.0574 -0.01631,0.111 -0.132692,0.111 h -1.254984 z m 1.354123,-0.74043 h -2.217193 v 3.929536 h 2.217193 c 0.577921,0 0.896347,-0.28896 0.896347,-0.814054 v -2.301149 c 0,-0.525093 -0.318426,-0.814333 -0.896347,-0.814333"
     style="fill:#ffffff;fill-opacity:1;fill-rule:nonzero;stroke:none;stroke-width:0.0693285"
     id="path38" /><path
     d="m 55.152129,13.109412 v -2.227454 c 0,-0.05768 0.01651,-0.110505 0.132496,-0.110505 h 1.174768 c 0.127838,0 0.138667,0.05684 0.138667,0.110505 v 2.227454 c 0,0.0574 -0.0167,0.111001 -0.138667,0.111001 h -1.174768 c -0.11591,0 -0.132496,-0.0536 -0.132496,-0.111001 z m 0.03364,0.851145 h 1.378456 c 0.578132,0 0.89635,-0.28896 0.89635,-0.814054 v -2.301149 c 0,-0.525093 -0.318218,-0.814333 -0.89635,-0.814333 h -1.378461 c -0.578478,0 -0.896972,0.28924 -0.896972,0.814333 v 2.301149 c 0,0.525094 0.318494,0.814054 0.896972,0.814054"
     style="fill:#ffffff;fill-opacity:1;fill-rule:nonzero;stroke:none;stroke-width:0.0693285"
     id="path40" /><path
     d="m 61.809877,11.705788 -1.080552,-0.214502 c -0.191491,-0.04008 -0.20771,-0.07715 -0.20771,-0.18011 v -0.439819 c 0,-0.05574 0.01078,-0.116112 0.138096,-0.116112 h 1.006025 c 0.110226,0 0.13277,0.04679 0.13277,0.116112 v 0.45417 h 0.850868 v -0.480169 c 0,-0.525093 -0.318218,-0.814333 -0.896418,-0.814333 h -1.197508 c -0.578199,0 -0.896418,0.28924 -0.896418,0.814333 v 0.554419 c 0,0.57196 0.433861,0.738764 0.903212,0.833813 l 1.081039,0.220186 c 0.186912,0.0387 0.207223,0.06989 0.207223,0.174924 v 0.490983 c 0,0.07016 -0.02225,0.117026 -0.13277,0.117026 h -1.087273 c -0.109682,0 -0.132691,-0.04686 -0.132691,-0.117026 v -0.495281 h -0.850938 v 0.522112 c 0,0.525096 0.318217,0.814054 0.896971,0.814054 h 1.273631 c 0.57737,0 0.896418,-0.288958 0.896418,-0.814054 v -0.6069 c 0,-0.573831 -0.434689,-0.739595 -0.903973,-0.833814"
     style="fill:#ffffff;fill-opacity:1;fill-rule:nonzero;stroke:none;stroke-width:0.0693285"
     id="path42" /><path
     d="m 66.462438,10.031021 h -3.154165 v 0.735021 h 1.145512 v 3.194515 h 0.86314 v -3.194515 h 1.145513 v -0.735021"
     style="fill:#ffffff;fill-opacity:1;fill-rule:nonzero;stroke:none;stroke-width:0.0693285"
     id="path44" /><path
     d="m 68.675817,12.29016 h -0.863346 l 0.431361,-1.280152 z m -0.891008,-2.259139 -1.444251,3.929536 h 0.909936 l 0.314128,-0.930526 h 1.358142 l 0.314197,0.930526 h 0.945916 l -1.451043,-3.929536 h -0.947025"
     style="fill:#ffffff;fill-opacity:1;fill-rule:nonzero;stroke:none;stroke-width:0.0693285"
     id="path46" /><path
     d="m 70.049352,10.766042 h 1.145583 v 3.194515 h 0.862446 v -3.194515 h 1.146 v -0.735021 h -3.154029 v 0.735021"
     style="fill:#ffffff;fill-opacity:1;fill-rule:nonzero;stroke:none;stroke-width:0.0693285"
     id="path48" /><path
     d="m 76.655241,10.771451 v -0.74043 h -2.845238 v 3.929536 h 2.845238 v -0.74015 h -1.982792 v -0.901268 h 1.63407 v -0.729823 h -1.63407 v -0.817865 h 1.982792"
     style="fill:#ffffff;fill-opacity:1;fill-rule:nonzero;stroke:none;stroke-width:0.0693285"
     id="path50" /><path
     d="m 29.04755,18.950885 c 0,0.0574 -0.01631,0.111 -0.132692,0.111 h -1.151753 c -0.121336,0 -0.138371,-0.0536 -0.138371,-0.111 v -3.078389 h -0.862318 v 3.115481 c 0,0.525094 0.318219,0.814609 0.896417,0.814609 h 1.355164 c 0.577923,0 0.896416,-0.289515 0.896416,-0.814609 V 15.872496 H 29.04755 v 3.078389"
     style="fill:#ffffff;fill-opacity:1;fill-rule:nonzero;stroke:none;stroke-width:0.0693285"
     id="path52" /><path
     d="m 33.243032,18.389464 -1.63435,-2.516968 h -0.860158 v 3.93009 h 0.81655 V 17.21116 l 1.686897,2.591426 h 0.813779 v -3.93009 h -0.822718 v 2.516968"
     style="fill:#ffffff;fill-opacity:1;fill-rule:nonzero;stroke:none;stroke-width:0.0693285"
     id="path54" /><path
     d="m 34.903931,19.802586 h 0.862792 v -3.93009 h -0.862792 v 3.93009"
     style="fill:#ffffff;fill-opacity:1;fill-rule:nonzero;stroke:none;stroke-width:0.0693285"
     id="path56" /><path
     d="m 38.282583,18.752607 -0.898845,-2.880111 h -0.938914 l 1.365492,3.93009 h 0.925882 l 1.366254,-3.93009 h -0.915896 l -0.903973,2.880111"
     style="fill:#ffffff;fill-opacity:1;fill-rule:nonzero;stroke:none;stroke-width:0.0693285"
     id="path58" /><path
     d="m 40.773552,19.802586 h 2.845725 v -0.740704 h -1.982932 v -0.90127 h 1.63435 v -0.729821 h -1.63435 v -0.817866 h 1.982932 v -0.740429 h -2.845725 v 3.93009"
     style="fill:#ffffff;fill-opacity:1;fill-rule:nonzero;stroke:none;stroke-width:0.0693285"
     id="path60" /><path
     d="m 45.285586,16.607516 h 1.208392 c 0.116124,0 0.132417,0.0536 0.132417,0.111 v 0.794853 c 0,0.05768 -0.01631,0.111051 -0.132417,0.111051 h -1.208392 z m 2.203605,0.926991 v -0.847679 c 0,-0.525093 -0.318219,-0.814332 -0.896627,-0.814332 h -2.16977 v 3.93009 h 0.862792 v -1.454025 h 0.692728 l 0.749925,1.454025 h 0.94266 l -0.773428,-1.48654 c 0.383177,-0.09234 0.59172,-0.366679 0.59172,-0.781539"
     style="fill:#ffffff;fill-opacity:1;fill-rule:nonzero;stroke:none;stroke-width:0.0693285"
     id="path62" /><path
     d="m 50.438074,17.547194 -1.080276,-0.214432 c -0.191412,-0.04007 -0.207708,-0.07696 -0.207708,-0.180113 v -0.439818 c 0,-0.05575 0.01078,-0.116137 0.138096,-0.116137 h 1.006095 c 0.110226,0 0.132965,0.04679 0.132965,0.116137 V 17.167 h 0.850661 v -0.480168 c 0,-0.525093 -0.318218,-0.814331 -0.896416,-0.814331 h -1.197788 c -0.577922,0 -0.896415,0.289238 -0.896415,0.814331 v 0.55435 c 0,0.571683 0.434133,0.738834 0.903417,0.833881 l 1.080831,0.220189 c 0.187107,0.03867 0.20743,0.0698 0.20743,0.174923 v 0.49154 c 0,0.0696 -0.02218,0.11639 -0.132142,0.11639 h -1.087902 c -0.109884,0 -0.132415,-0.04679 -0.132415,-0.11639 V 18.4656 h -0.851145 v 0.522389 c 0,0.525093 0.318217,0.81461 0.896694,0.81461 h 1.273633 c 0.578128,0 0.896346,-0.289517 0.896346,-0.81461 v -0.606902 c 0,-0.5739 -0.434065,-0.739594 -0.903974,-0.833882"
     style="fill:#ffffff;fill-opacity:1;fill-rule:nonzero;stroke:none;stroke-width:0.0693285"
     id="path64" /><path
     d="m 52.152081,19.802586 h 0.862792 v -3.93009 h -0.862792 v 3.93009"
     style="fill:#ffffff;fill-opacity:1;fill-rule:nonzero;stroke:none;stroke-width:0.0693285"
     id="path66" /><path
     d="m 53.610681,16.607516 h 1.145306 v 3.19507 h 0.86307 v -3.19507 h 1.145514 v -0.73502 h -3.15389 v 0.73502"
     style="fill:#ffffff;fill-opacity:1;fill-rule:nonzero;stroke:none;stroke-width:0.0693285"
     id="path68" /><path
     d="m 58.924359,17.579432 -0.915897,-1.706936 h -0.945986 l 1.424488,2.551079 v 1.379011 h 0.862517 v -1.379011 l 1.425323,-2.551079 h -0.935103 l -0.915342,1.706936"
     style="fill:#ffffff;fill-opacity:1;fill-rule:nonzero;stroke:none;stroke-width:0.0693285"
     id="path70" /></g><g
   id="g6407"
   transform="matrix(1.7767347,0,0,1.7767347,352.0691,30.401601)">
	<line
   class="st0"
   x1="96.800003"
   y1="3.7"
   x2="96.800003"
   y2="38.799999"
   id="line6279" />
	<g
   id="g6289">
		<polygon
   class="st1"
   points="61.3,21.2 61.1,31.5 65.6,31.5 72.7,14.7 76.9,14.7 70,31.5 75.3,31.5 82.2,14.7 86.4,14.7 87.9,11 69.2,11 65.4,21.3 65.7,11 61.1,11 57.1,21.2 57.7,11 52.6,11 52.6,31.5 57.1,31.5 "
   id="polygon6281" />
		<g
   id="g6287">
			<path
   class="st1"
   d="m 76.8,30.6 h -0.3 v -0.1 h 0.8 v 0.1 H 77 v 1 h -0.1 v -1 z"
   id="path6283" />
			<path
   class="st1"
   d="m 78.3,31.1 c 0,-0.1 0,-0.3 0,-0.5 v 0 c 0,0.1 -0.1,0.3 -0.1,0.4 L 78,31.5 H 77.9 L 77.7,31 c -0.1,-0.2 -0.1,-0.3 -0.1,-0.4 v 0 c 0,0.1 0,0.3 0,0.5 v 0.5 h -0.1 l 0.1,-1.1 h 0.2 L 78,31 c 0.1,0.1 0.1,0.3 0.1,0.4 v 0 c 0,-0.1 0.1,-0.2 0.1,-0.4 l 0.2,-0.5 h 0.2 l 0.1,1.1 h -0.1 z"
   id="path6285" />
		</g>
	</g>
	<line
   class="st0"
   x1="41.900002"
   y1="3.7"
   x2="41.900002"
   y2="38.799999"
   id="line6291" />
	<g
   id="g6313">
		<path
   class="st1"
   d="m 23.5,32 c 0,-0.5 0.4,-0.9 0.9,-0.9 0.5,0 0.9,0.4 0.9,0.9 0,0.5 -0.4,0.9 -0.9,0.9 -0.5,0 -0.9,-0.4 -0.9,-0.9 m 1.5,0 c 0,-0.4 -0.3,-0.7 -0.7,-0.7 -0.4,0 -0.7,0.3 -0.7,0.7 0,0.4 0.3,0.7 0.7,0.7 0.5,0.1 0.7,-0.2 0.7,-0.7 m -1,-0.5 h 0.4 c 0.2,0 0.4,0.1 0.4,0.3 0,0.2 -0.1,0.2 -0.3,0.3 l 0.3,0.4 h -0.2 l -0.3,-0.4 h -0.1 v 0.4 H 24 Z m 0.2,0.5 h 0.2 c 0.1,0 0.2,0 0.2,-0.1 0,-0.1 -0.1,-0.1 -0.2,-0.1 h -0.2 z"
   id="path6293" />
		<g
   id="g6311">
			<polygon
   class="st1"
   points="21.5,17.3 21.5,17.5 21.5,19 21.5,19.2 21.8,19.2 22.2,19.2 22.2,25.3 21.7,25.3 21.5,25.3 21.5,25.6 21.5,27 21.5,27.3 21.7,27.3 24.8,27.3 25,27.3 25,27 25,25.6 25,25.3 24.8,25.3 24.2,25.3 24.2,21 26.5,25.7 26.8,26.2 27,25.7 29.3,21 29.3,25.3 28.8,25.3 28.5,25.3 28.5,25.6 28.5,27 28.5,27.3 28.8,27.3 31.9,27.3 32.1,27.3 32.1,27 32.1,25.6 32.1,25.3 31.9,25.3 31.3,25.3 31.3,19.2 31.9,19.2 32.1,19.2 32.1,19 32.1,17.5 32.1,17.3 31.9,17.3 29,17.3 28.9,17.3 28.8,17.4 26.8,21.7 24.7,17.4 24.6,17.3 24.5,17.3 21.8,17.3 "
   id="polygon6295" />
			<path
   class="st1"
   d="m 14.1,25.3 h -0.8 l -2.6,-6.1 h 0.2 0.3 V 19 17.5 17.2 H 10.9 7.2 6.9 v 0.3 1.5 0.3 H 7.2 7.5 L 4.9,25.4 H 4 3.8 v 0.3 1.3 0.3 H 4 7.3 7.6 V 27 25.5 25.2 H 7.4 7.1 l 0.4,-1 h 3.2 l 0.4,1 h -0.3 -0.3 v 0.3 1.5 0.3 h 0.3 3.3 0.3 V 27 25.5 25.2 h -0.3 z m -4.3,-3 H 8.4 l 0.7,-1.7 z"
   id="path6297" />
			<polygon
   class="st1"
   points="11.2,15.7 11.2,13.5 15.8,13.5 15.8,28.6 13.6,28.6 13.3,28.6 13.3,28.9 13.3,32.6 13.3,32.9 13.6,32.9 22.2,32.9 22.5,32.9 22.5,32.6 22.5,28.9 22.5,28.6 22.2,28.6 20,28.6 20,13.5 24.6,13.5 24.6,15.6 24.6,15.9 24.9,15.9 28.6,15.9 28.9,15.9 28.9,15.6 28.9,9.9 28.9,9.6 28.6,9.6 7.2,9.6 6.9,9.6 6.9,9.9 6.9,15.7 6.9,16 7.2,16 10.9,16 11.2,16 "
   id="polygon6299" />
			<g
   id="g6309">
				<polygon
   class="st2"
   points="21.6,29.5 21.6,32 20.7,31.1 20.7,30.4 "
   id="polygon6301" />
				<polygon
   class="st2"
   points="18.3,30.4 18.3,11.8 19.2,12.7 19.2,29.5 "
   id="polygon6303" />
				<polygon
   class="st2"
   points="7.8,10.5 27.6,10.5 26.4,11.4 8.7,11.4 "
   id="polygon6305" />
				<polygon
   class="st2"
   points="27.2,14.2 27.2,11.9 28.1,11 28.1,15.1 "
   id="polygon6307" />
			</g>
		</g>
	</g>
	<g
   id="g6405">
		<g
   class="st3"
   id="g6355">
			<path
   class="st1"
   d="m 111.1,22.9 h 0.8 l -1.7,5 h -0.9 l -1.7,-5 h 0.8 l 1,3.1 c 0.1,0.1 0.1,0.3 0.2,0.6 0.1,0.2 0.1,0.4 0.1,0.5 0,-0.2 0.1,-0.4 0.1,-0.6 0.1,-0.2 0.1,-0.4 0.1,-0.5 z"
   id="path6315" />
			<path
   class="st1"
   d="m 115.4,27.8 h -2.8 v -5 h 2.8 v 0.7 h -2 v 1.3 h 1.9 v 0.7 h -1.9 v 1.6 h 2 z"
   id="path6317" />
			<path
   class="st1"
   d="m 118.1,27.8 h -0.8 v -4.3 h -1.5 v -0.7 h 3.7 v 0.7 H 118 v 4.3 z"
   id="path6319" />
			<path
   class="st1"
   d="m 123.2,27.8 h -2.8 v -5 h 2.8 v 0.7 h -2 v 1.3 h 1.9 v 0.7 h -1.9 v 1.6 h 2 z"
   id="path6321" />
			<path
   class="st1"
   d="m 125.1,25.9 v 2 h -0.8 v -5 h 1.4 c 0.6,0 1.1,0.1 1.4,0.4 0.3,0.2 0.5,0.6 0.5,1.1 0,0.6 -0.3,1.1 -1,1.3 l 1.4,2.2 h -1 l -1.2,-2 z m 0,-0.7 h 0.6 c 0.4,0 0.7,-0.1 0.8,-0.2 0.2,-0.1 0.3,-0.3 0.3,-0.6 0,-0.3 -0.1,-0.5 -0.3,-0.6 -0.2,-0.1 -0.5,-0.2 -0.8,-0.2 h -0.5 v 1.6 z"
   id="path6323" />
			<path
   class="st1"
   d="m 128.7,27.8 v -5 h 0.8 v 5 z"
   id="path6325" />
			<path
   class="st1"
   d="m 134.9,27.8 h -1 l -2.4,-4 v 0 0.2 c 0,0.4 0,0.8 0,1.2 v 2.6 h -0.7 v -5 h 1 l 2.4,3.9 v 0 c 0,-0.1 0,-0.2 0,-0.6 0,-0.3 0,-0.6 0,-0.8 v -2.6 h 0.7 z"
   id="path6327" />
			<path
   class="st1"
   d="m 139.3,27.8 -0.5,-1.4 h -1.9 l -0.5,1.4 h -0.9 l 1.9,-5 h 0.9 l 1.9,5 z m -0.7,-2 -0.5,-1.3 c 0,-0.1 -0.1,-0.2 -0.1,-0.4 -0.1,-0.2 -0.1,-0.3 -0.1,-0.4 -0.1,0.3 -0.2,0.6 -0.3,0.9 l -0.4,1.3 h 1.4 z"
   id="path6329" />
			<path
   class="st1"
   d="m 141.6,25.9 v 2 h -0.8 v -5 h 1.4 c 0.6,0 1.1,0.1 1.4,0.4 0.3,0.3 0.5,0.6 0.5,1.1 0,0.6 -0.3,1.1 -1,1.3 l 1.4,2.2 h -0.9 l -1.2,-2 z m 0,-0.7 h 0.6 c 0.4,0 0.7,-0.1 0.8,-0.2 0.2,-0.1 0.3,-0.3 0.3,-0.6 0,-0.3 -0.1,-0.5 -0.3,-0.6 -0.2,-0.1 -0.5,-0.2 -0.8,-0.2 h -0.5 v 1.6 z"
   id="path6331" />
			<path
   class="st1"
   d="m 146.7,25.1 1.2,-2.3 h 0.9 l -1.7,3 v 1.9 h -0.8 v -1.9 l -1.6,-3.1 h 0.9 z"
   id="path6333" />
			<path
   class="st1"
   d="m 154,27.8 h -2.8 v -5 h 2.8 v 0.7 h -2 v 1.3 h 1.9 v 0.7 H 152 v 1.6 h 2 z"
   id="path6335" />
			<path
   class="st1"
   d="m 159.1,25.3 c 0,0.8 -0.2,1.4 -0.7,1.9 -0.5,0.4 -1.1,0.6 -2,0.6 H 155 v -5 h 1.5 c 0.8,0 1.4,0.2 1.8,0.6 0.6,0.5 0.8,1.1 0.8,1.9 z m -0.9,0 c 0,-1.2 -0.6,-1.8 -1.7,-1.8 h -0.7 v 3.6 h 0.6 c 1.2,0.1 1.8,-0.6 1.8,-1.8 z"
   id="path6337" />
			<path
   class="st1"
   d="m 164,22.9 v 3.2 c 0,0.4 -0.1,0.7 -0.2,1 -0.2,0.3 -0.4,0.5 -0.7,0.6 -0.3,0.1 -0.7,0.2 -1.1,0.2 -0.6,0 -1.1,-0.2 -1.4,-0.5 -0.3,-0.3 -0.5,-0.8 -0.5,-1.3 v -3.2 h 0.8 V 26 c 0,0.4 0.1,0.7 0.3,0.9 0.2,0.2 0.5,0.3 0.9,0.3 0.8,0 1.1,-0.4 1.1,-1.2 v -3.1 z"
   id="path6339" />
			<path
   class="st1"
   d="m 167.4,23.5 c -0.5,0 -0.8,0.2 -1.1,0.5 -0.3,0.3 -0.4,0.8 -0.4,1.4 0,0.6 0.1,1.1 0.4,1.4 0.3,0.3 0.6,0.5 1.1,0.5 0.2,0 0.4,0 0.6,-0.1 0.2,0 0.4,-0.1 0.6,-0.2 v 0.7 c -0.4,0.1 -0.8,0.2 -1.3,0.2 -0.7,0 -1.3,-0.2 -1.7,-0.7 -0.4,-0.5 -0.6,-1.1 -0.6,-1.9 0,-0.5 0.1,-1 0.3,-1.4 0.2,-0.4 0.5,-0.7 0.8,-0.9 0.4,-0.2 0.8,-0.3 1.3,-0.3 0.5,0 1,0.1 1.4,0.3 l -0.3,0.7 c -0.2,-0.1 -0.3,-0.1 -0.5,-0.2 -0.2,0 -0.4,0 -0.6,0 z"
   id="path6341" />
			<path
   class="st1"
   d="m 172.8,27.8 -0.5,-1.4 h -1.9 l -0.5,1.4 H 169 l 1.9,-5 h 0.9 l 1.9,5 z m -0.7,-2 -0.5,-1.3 c 0,-0.1 -0.1,-0.2 -0.1,-0.4 0,-0.2 -0.1,-0.3 -0.1,-0.4 -0.1,0.3 -0.2,0.6 -0.3,0.9 l -0.4,1.3 h 1.4 z"
   id="path6343" />
			<path
   class="st1"
   d="m 176,27.8 h -0.8 v -4.3 h -1.5 v -0.7 h 3.7 v 0.7 H 176 Z"
   id="path6345" />
			<path
   class="st1"
   d="m 178.2,27.8 v -5 h 0.8 v 5 z"
   id="path6347" />
			<path
   class="st1"
   d="m 184.8,25.3 c 0,0.8 -0.2,1.4 -0.6,1.9 -0.4,0.5 -1,0.7 -1.7,0.7 -0.7,0 -1.3,-0.2 -1.7,-0.7 -0.4,-0.4 -0.6,-1.1 -0.6,-1.9 0,-0.8 0.2,-1.4 0.6,-1.9 0.4,-0.4 1,-0.7 1.7,-0.7 0.7,0 1.3,0.2 1.7,0.7 0.4,0.5 0.6,1.1 0.6,1.9 z m -3.8,0 c 0,0.6 0.1,1.1 0.4,1.4 0.2,0.3 0.6,0.5 1.1,0.5 0.5,0 0.8,-0.2 1.1,-0.5 0.3,-0.3 0.4,-0.8 0.4,-1.4 0,-0.6 -0.1,-1.1 -0.4,-1.4 -0.2,-0.3 -0.6,-0.5 -1.1,-0.5 -0.5,0 -0.9,0.2 -1.1,0.5 -0.3,0.4 -0.4,0.8 -0.4,1.4 z"
   id="path6349" />
			<path
   class="st1"
   d="m 189.9,27.8 h -1 l -2.4,-4 v 0 0.2 c 0,0.4 0,0.8 0,1.2 v 2.6 h -0.7 v -5 h 1 l 2.4,3.9 v 0 c 0,-0.1 0,-0.2 0,-0.6 0,-0.3 0,-0.6 0,-0.8 v -2.6 h 0.7 z"
   id="path6351" />
			<path
   class="st1"
   d="m 192,27.1 c -0.1,0.4 -0.3,1 -0.6,1.6 h -0.6 c 0.2,-0.6 0.3,-1.2 0.3,-1.7 z"
   id="path6353" />
		</g>
		<g
   class="st3"
   id="g6393">
			<path
   class="st1"
   d="m 109.1,34.2 v 2 h -0.8 v -5 h 1.4 c 0.6,0 1.1,0.1 1.4,0.4 0.3,0.2 0.5,0.6 0.5,1.1 0,0.6 -0.3,1.1 -1,1.3 l 1.4,2.2 h -1 l -1.2,-2 z m 0,-0.7 h 0.6 c 0.4,0 0.7,-0.1 0.8,-0.2 0.2,-0.1 0.3,-0.3 0.3,-0.6 0,-0.3 -0.1,-0.5 -0.3,-0.6 -0.2,-0.1 -0.5,-0.2 -0.8,-0.2 h -0.5 v 1.6 z"
   id="path6357" />
			<path
   class="st1"
   d="m 115.5,36.2 h -2.8 v -5 h 2.8 v 0.7 h -2 v 1.3 h 1.9 v 0.7 h -1.9 v 1.6 h 2 z"
   id="path6359" />
			<path
   class="st1"
   d="m 119.4,34.8 c 0,0.4 -0.2,0.8 -0.5,1 -0.3,0.3 -0.8,0.4 -1.3,0.4 -0.5,0 -1,-0.1 -1.4,-0.3 v -0.8 c 0.2,0.1 0.5,0.2 0.7,0.3 0.3,0.1 0.5,0.1 0.7,0.1 0.3,0 0.6,-0.1 0.7,-0.2 0.1,-0.1 0.2,-0.3 0.2,-0.5 0,-0.2 -0.1,-0.3 -0.2,-0.5 -0.1,-0.1 -0.4,-0.3 -0.9,-0.5 -0.5,-0.2 -0.8,-0.4 -1,-0.6 -0.2,-0.2 -0.3,-0.5 -0.3,-0.8 0,-0.4 0.1,-0.7 0.4,-1 0.3,-0.3 0.7,-0.4 1.2,-0.4 0.5,0 0.9,0.1 1.4,0.3 l -0.3,0.7 c -0.4,-0.2 -0.8,-0.3 -1.2,-0.3 -0.3,0 -0.5,0.1 -0.6,0.2 -0.1,0.1 -0.2,0.3 -0.2,0.5 0,0.1 0,0.2 0.1,0.3 0.1,0.1 0.1,0.2 0.3,0.3 0.1,0.1 0.3,0.2 0.7,0.3 0.4,0.2 0.6,0.3 0.8,0.4 0.2,0.1 0.3,0.3 0.4,0.4 0.1,0.1 0.3,0.5 0.3,0.7 z"
   id="path6361" />
			<path
   class="st1"
   d="m 123.2,36.2 h -2.8 v -5 h 2.8 v 0.7 h -2 v 1.3 h 1.9 v 0.7 h -1.9 v 1.6 h 2 z"
   id="path6363" />
			<path
   class="st1"
   d="m 127.3,36.2 -0.5,-1.4 h -1.9 l -0.5,1.4 h -0.9 l 1.9,-5 h 0.9 l 1.9,5 z m -0.7,-2.1 -0.5,-1.3 c 0,-0.1 -0.1,-0.2 -0.1,-0.4 -0.1,-0.2 -0.1,-0.3 -0.1,-0.4 -0.1,0.3 -0.2,0.6 -0.3,0.9 l -0.4,1.3 h 1.4 z"
   id="path6365" />
			<path
   class="st1"
   d="m 129.7,34.2 v 2 h -0.8 v -5 h 1.4 c 0.6,0 1.1,0.1 1.4,0.4 0.3,0.2 0.5,0.6 0.5,1.1 0,0.6 -0.3,1.1 -1,1.3 l 1.4,2.2 h -0.9 l -1.2,-2 z m 0,-0.7 h 0.6 c 0.4,0 0.7,-0.1 0.8,-0.2 0.2,-0.1 0.3,-0.3 0.3,-0.6 0,-0.3 -0.1,-0.5 -0.3,-0.6 -0.2,-0.1 -0.5,-0.2 -0.8,-0.2 h -0.5 v 1.6 z"
   id="path6367" />
			<path
   class="st1"
   d="m 135.4,31.8 c -0.5,0 -0.8,0.2 -1.1,0.5 -0.3,0.3 -0.4,0.8 -0.4,1.4 0,0.6 0.1,1.1 0.4,1.4 0.3,0.3 0.6,0.5 1.1,0.5 0.2,0 0.4,0 0.6,-0.1 0.2,0 0.4,-0.1 0.6,-0.2 V 36 c -0.4,0.1 -0.8,0.2 -1.3,0.2 -0.7,0 -1.3,-0.2 -1.7,-0.7 -0.4,-0.5 -0.6,-1.1 -0.6,-1.9 0,-0.5 0.1,-1 0.3,-1.4 0.2,-0.4 0.5,-0.7 0.8,-0.9 0.4,-0.2 0.8,-0.3 1.3,-0.3 0.5,0 1,0.1 1.4,0.3 l -0.3,0.7 c -0.2,-0.1 -0.3,-0.1 -0.5,-0.2 -0.2,0.1 -0.4,0 -0.6,0 z"
   id="path6369" />
			<path
   class="st1"
   d="m 141.6,36.2 h -0.8 V 34 h -2.3 v 2.2 h -0.8 v -5 h 0.8 v 2 h 2.3 v -2 h 0.8 z"
   id="path6371" />
			<path
   class="st1"
   d="m 143.6,35.4 c -0.1,0.4 -0.3,1 -0.6,1.6 h -0.6 c 0.2,-0.6 0.3,-1.2 0.3,-1.7 z"
   id="path6373" />
			<path
   class="st1"
   d="m 146.2,34.9 c 0,-0.3 0.1,-0.6 0.2,-0.8 0.1,-0.2 0.4,-0.4 0.8,-0.7 -0.2,-0.3 -0.4,-0.5 -0.4,-0.6 0,-0.1 -0.1,-0.4 -0.1,-0.5 0,-0.3 0.1,-0.6 0.4,-0.8 0.2,-0.2 0.6,-0.3 1,-0.3 0.4,0 0.7,0.1 0.9,0.3 0.2,0.2 0.3,0.5 0.3,0.8 0,0.3 -0.1,0.5 -0.2,0.7 -0.2,0.2 -0.4,0.4 -0.8,0.6 l 1.2,1.1 c 0.2,-0.2 0.3,-0.6 0.5,-1.1 h 0.8 c -0.2,0.6 -0.4,1.2 -0.8,1.6 l 1,1 h -1 l -0.5,-0.5 c -0.2,0.2 -0.5,0.3 -0.7,0.4 -0.3,0.1 -0.6,0.1 -0.9,0.1 -0.5,0 -0.9,-0.1 -1.2,-0.4 -0.3,-0.3 -0.5,-0.5 -0.5,-0.9 z m 1.7,0.6 c 0.4,0 0.8,-0.1 1.1,-0.4 l -1.3,-1.3 c -0.2,0.2 -0.4,0.3 -0.5,0.4 -0.1,0.1 -0.1,0.3 -0.1,0.5 0,0.2 0.1,0.4 0.2,0.5 0.2,0.3 0.4,0.3 0.6,0.3 z m -0.5,-3.2 c 0,0.1 0,0.3 0.1,0.4 0.1,0.1 0.2,0.3 0.3,0.4 0.3,-0.1 0.4,-0.3 0.5,-0.4 0.1,-0.1 0.2,-0.3 0.2,-0.4 0,-0.1 0,-0.3 -0.1,-0.4 -0.1,-0.1 -0.2,-0.1 -0.4,-0.1 -0.2,0 -0.3,0 -0.4,0.1 -0.1,0.1 -0.2,0.2 -0.2,0.4 z"
   id="path6375" />
			<path
   class="st1"
   d="m 157.9,33.7 c 0,0.8 -0.2,1.4 -0.6,1.9 -0.4,0.5 -1,0.7 -1.7,0.7 -0.7,0 -1.3,-0.2 -1.7,-0.7 -0.4,-0.4 -0.6,-1.1 -0.6,-1.9 0,-0.8 0.2,-1.4 0.6,-1.9 0.4,-0.4 1,-0.7 1.7,-0.7 0.7,0 1.3,0.2 1.7,0.7 0.4,0.5 0.6,1.1 0.6,1.9 z m -3.8,0 c 0,0.6 0.1,1.1 0.4,1.4 0.2,0.3 0.6,0.5 1.1,0.5 0.5,0 0.8,-0.2 1.1,-0.5 0.3,-0.3 0.4,-0.8 0.4,-1.4 0,-0.6 -0.1,-1.1 -0.4,-1.4 -0.2,-0.3 -0.6,-0.5 -1.1,-0.5 -0.5,0 -0.9,0.2 -1.1,0.5 -0.3,0.3 -0.4,0.8 -0.4,1.4 z"
   id="path6377" />
			<path
   class="st1"
   d="m 162.8,31.2 v 3.2 c 0,0.4 -0.1,0.7 -0.2,1 -0.2,0.3 -0.4,0.5 -0.7,0.6 -0.3,0.1 -0.7,0.2 -1.1,0.2 -0.6,0 -1.1,-0.2 -1.4,-0.5 -0.3,-0.3 -0.5,-0.8 -0.5,-1.3 v -3.2 h 0.8 v 3.1 c 0,0.4 0.1,0.7 0.3,0.9 0.2,0.2 0.5,0.3 0.9,0.3 0.8,0 1.1,-0.4 1.1,-1.2 v -3.1 z"
   id="path6379" />
			<path
   class="st1"
   d="M 165.8,36.2 H 165 v -4.3 h -1.5 v -0.7 h 3.7 v 0.7 h -1.5 v 4.3 z"
   id="path6381" />
			<path
   class="st1"
   d="m 168.9,34.2 v 2 H 168 v -5 h 1.4 c 0.6,0 1.1,0.1 1.4,0.4 0.3,0.3 0.5,0.6 0.5,1.1 0,0.6 -0.3,1.1 -1,1.3 l 1.4,2.2 h -0.9 l -1.2,-2 z m 0,-0.7 h 0.6 c 0.4,0 0.7,-0.1 0.8,-0.2 0.2,-0.1 0.3,-0.3 0.3,-0.6 0,-0.3 -0.1,-0.5 -0.3,-0.6 -0.2,-0.1 -0.5,-0.2 -0.8,-0.2 H 169 v 1.6 z"
   id="path6383" />
			<path
   class="st1"
   d="m 175.3,36.2 h -2.8 v -5 h 2.8 v 0.7 h -2 v 1.3 h 1.9 v 0.7 h -1.9 v 1.6 h 2 z"
   id="path6385" />
			<path
   class="st1"
   d="m 179.4,36.2 -0.5,-1.4 H 177 l -0.5,1.4 h -0.9 l 1.9,-5 h 0.9 l 1.9,5 z m -0.7,-2.1 -0.5,-1.3 c 0,-0.1 -0.1,-0.2 -0.1,-0.4 0,-0.2 -0.1,-0.4 -0.1,-0.5 -0.1,0.3 -0.2,0.6 -0.3,0.9 l -0.4,1.3 z"
   id="path6387" />
			<path
   class="st1"
   d="m 183.1,31.8 c -0.5,0 -0.8,0.2 -1.1,0.5 -0.3,0.3 -0.4,0.8 -0.4,1.4 0,0.6 0.1,1.1 0.4,1.4 0.3,0.3 0.6,0.5 1.1,0.5 0.2,0 0.4,0 0.6,-0.1 0.2,0 0.4,-0.1 0.6,-0.2 V 36 c -0.4,0.1 -0.8,0.2 -1.3,0.2 -0.7,0 -1.3,-0.2 -1.7,-0.7 -0.4,-0.5 -0.6,-1.1 -0.6,-1.9 0,-0.5 0.1,-1 0.3,-1.4 0.2,-0.4 0.5,-0.7 0.8,-0.9 0.4,-0.2 0.8,-0.3 1.3,-0.3 0.5,0 1,0.1 1.4,0.3 l -0.3,0.7 c -0.2,-0.1 -0.3,-0.1 -0.5,-0.2 -0.2,0.1 -0.4,0 -0.6,0 z"
   id="path6389" />
			<path
   class="st1"
   d="m 189.3,36.2 h -0.8 V 34 h -2.3 v 2.2 h -0.8 v -5 h 0.8 v 2 h 2.3 v -2 h 0.8 z"
   id="path6391" />
		</g>
		<g
   class="st3"
   id="g6403">
			<path
   class="st1"
   d="m 114,6.3 h 2 l -3.1,9.2 h -2.1 l -3.1,-9.2 h 2 l 1.7,5.4 c 0.1,0.3 0.2,0.7 0.3,1.1 0.1,0.4 0.2,0.7 0.2,0.9 0,-0.4 0.2,-1.1 0.5,-2 z"
   id="path6395" />
			<path
   class="st1"
   d="M 122.3,15.4 H 117 V 6.3 h 5.3 V 7.9 H 119 v 2 h 3.1 v 1.6 H 119 v 2.4 h 3.3 z"
   id="path6397" />
			<path
   class="st1"
   d="m 126.2,11.9 v 3.5 h -1.9 V 6.3 h 2.7 c 1.2,0 2.2,0.2 2.8,0.7 0.6,0.5 0.9,1.1 0.9,2.1 0,0.5 -0.1,1 -0.4,1.4 -0.3,0.4 -0.7,0.7 -1.3,1 1.4,2.1 2.3,3.4 2.7,4 h -2.2 L 127.3,12 h -1.1 z m 0,-1.6 h 0.6 c 0.6,0 1.1,-0.1 1.4,-0.3 0.3,-0.2 0.4,-0.5 0.4,-1 0,-0.4 -0.1,-0.7 -0.4,-0.9 -0.3,-0.2 -0.8,-0.3 -1.4,-0.3 h -0.6 z"
   id="path6399" />
			<path
   class="st1"
   d="m 141,10.8 c 0,1.5 -0.4,2.7 -1.1,3.5 -0.8,0.8 -1.8,1.2 -3.2,1.2 -1.4,0 -2.5,-0.4 -3.2,-1.2 -0.8,-0.8 -1.1,-2 -1.1,-3.5 0,-1.5 0.4,-2.7 1.1,-3.5 0.7,-0.8 1.8,-1.2 3.2,-1.2 1.4,0 2.5,0.4 3.2,1.2 0.7,0.9 1.1,2 1.1,3.5 z m -6.7,0 c 0,1 0.2,1.8 0.6,2.3 0.4,0.5 1,0.8 1.7,0.8 1.5,0 2.3,-1 2.3,-3.1 0,-2.1 -0.8,-3.1 -2.3,-3.1 -0.8,0 -1.4,0.3 -1.7,0.8 -0.4,0.5 -0.6,1.3 -0.6,2.3 z"
   id="path6401" />
		</g>
	</g>
</g>
<g
   id="g5928"
   transform="matrix(0.06813861,0,0,0.06813861,390.41852,147.49566)"
   style="fill:#ffffff"><g
     transform="matrix(0.20874666,0,0,-0.20874666,0,1806.5867)"
     id="g14"
     style="fill:#ffffff"><path
       id="path16-3"
       style="fill:#ffffff;fill-opacity:1;fill-rule:nonzero;stroke:none"
       d="m 16294.3,2664.6 5.7,-210.56 h -25 c -25.1,135.45 -58.1,157.07 -235.6,157.07 v -628.22 c -1.1,-7.22 -1.3,-14.44 -0.6,-21.65 0.6,-7.22 2.1,-14.31 4.4,-21.21 2.2,-6.9 5.3,-13.48 9.1,-19.67 3.8,-6.14 8.3,-11.82 13.4,-17 5.2,-5.11 10.9,-9.58 17,-13.41 6.2,-3.83 12.8,-6.89 19.6,-9.13 7,-2.3 14,-3.77 21.3,-4.41 7.2,-0.64 14.4,-0.38 21.6,0.64 v -29.64 h -325.5 v 29.64 c 7.2,-1.02 14.4,-1.28 21.7,-0.64 7.2,0.64 14.3,2.11 21.2,4.41 6.9,2.24 13.4,5.3 19.6,9.13 6.2,3.83 11.9,8.3 17,13.41 5.2,5.18 9.6,10.86 13.5,17 3.8,6.19 6.8,12.77 9.1,19.67 2.3,6.9 3.8,13.99 4.4,21.21 0.6,7.21 0.4,14.43 -0.6,21.65 v 628.22 c -177.6,0 -210.6,-22.74 -235.7,-157.07 h -27.2 l 5.7,210.56 h 630.5 -4.6" /></g><g
     transform="matrix(0.19937466,0,0,-0.19937466,0,1806.5867)"
     id="g18"
     style="fill:#ffffff"><path
       id="path20-1"
       style="fill:#ffffff;fill-opacity:1;fill-rule:nonzero;stroke:none"
       d="m 15917.5,2806.53 c -210.9,0 -382.5,-173.95 -382.5,-443.27 0,-269.31 171.6,-443.25 382.5,-443.25 210.9,0 382.5,172.74 382.5,443.25 0,270.52 -170.4,443.27 -382.5,443.27 z m 0,-834.09 c -159.7,0 -251.5,153.68 -251.5,393.23 0,239.5 91.8,393.19 251.5,393.19 159.7,0 252.6,-153.69 252.6,-393.19 0,-239.55 -91.7,-395.64 -252.6,-395.64 v 2.41" /></g><g
     transform="matrix(0.21798666,0,0,-0.21798666,0,1806.5867)"
     id="g22"
     style="fill:#ffffff"><path
       id="path24-9"
       style="fill:#ffffff;fill-opacity:1;fill-rule:nonzero;stroke:none"
       d="m 16215,1865 -276.9,697.56 h -26.1 c 0,0 -232.2,-605.93 -260.5,-676.82 -2,-11.13 -5.7,-21.71 -11,-31.74 -5.3,-9.97 -12,-18.91 -20.1,-26.86 -8.1,-7.89 -17.3,-14.37 -27.4,-19.45 -10.1,-5.07 -20.7,-8.5 -31.9,-10.21 v -28.38 h 218 v 28.38 c -8.1,-0.49 -15.9,0.55 -23.6,3.06 -7.6,2.5 -14.6,6.36 -20.7,11.56 -6.2,5.13 -11.2,11.25 -15,18.34 -3.9,7.1 -6.3,14.62 -7.3,22.58 -1.5,9.85 -1.5,19.63 0,29.48 l 52.4,140.56 h 271.4 l 50,-136.22 c 4.8,-11.19 7.6,-22.81 8.8,-34.86 -0.7,-8.44 -3,-16.4 -7,-23.86 -4,-7.46 -9.2,-13.82 -15.8,-19.08 -6.6,-5.26 -14,-9.05 -22.2,-11.19 -8.1,-2.21 -16.4,-2.7 -24.8,-1.47 v -28.32 h 274.7 v 29.42 c -19.5,2.08 -36.9,9.23 -52.3,21.41 -15.4,12.23 -26.3,27.58 -32.7,46.11 z m -435.9,218 115.4,312.8 120,-320.38 h -231.1 l -4.3,7.58" /></g><g
     transform="matrix(0.180048,0,0,-0.180048,0,1806.5867)"
     id="g26"
     style="fill:#ffffff"><path
       id="path28-6"
       style="fill:#ffffff;fill-opacity:1;fill-rule:nonzero;stroke:none"
       d="m 16260.5,2387.37 c -7,-27.18 -18.3,-52.43 -33.8,-75.76 -15.6,-23.32 -34.6,-43.39 -57,-60.2 -22.5,-16.81 -47.1,-29.4 -73.9,-37.77 -26.7,-8.37 -54.1,-12.07 -82.2,-11.03 h -150.4 c -55.4,0 -79.1,18.51 -79.1,64.64 v 337.84 h 204.5 c 17.5,0 34.4,-3.33 50.5,-10.07 16.1,-6.67 30.4,-16.22 42.8,-28.58 12.4,-12.37 21.9,-26.66 28.6,-42.81 6.7,-16.22 10.1,-33.03 10.1,-50.5 h 31.6 v 331.18 h -34.3 c 0.7,-8.44 0.6,-16.89 -0.4,-25.34 -1.1,-8.4 -2.9,-16.64 -5.7,-24.68 -2.8,-8.02 -6.3,-15.68 -10.7,-22.98 -4.4,-7.27 -9.5,-14.03 -15.2,-20.22 -5.8,-6.22 -12.2,-11.78 -19.2,-16.67 -6.9,-4.87 -14.3,-8.99 -22,-12.31 -7.9,-3.33 -16,-5.84 -24.3,-7.48 -8.3,-1.65 -16.7,-2.4 -25.2,-2.26 h -211.1 v 316.69 c 0.3,6.08 1.7,11.84 4.6,17.24 2.8,5.46 6.5,9.99 11.4,13.68 4.8,3.72 10.3,6.18 16.2,7.47 6,1.3 12,1.26 17.9,-0.14 h 182.1 c 11,1.29 21.8,1.44 32.8,0.43 11,-0.96 21.7,-3.08 32.2,-6.33 10.5,-3.21 20.6,-7.51 30.2,-12.85 9.7,-5.32 18.6,-11.6 27,-18.78 8.3,-7.2 15.8,-15.17 22.4,-23.93 6.7,-8.78 12.4,-18.12 17.1,-28.07 4.7,-9.94 8.3,-20.29 10.8,-30.98 2.6,-10.7 4,-21.54 4.3,-32.53 h 37 l -7.9,213.73 H 15540 v -34.31 c 8.1,1.25 16.4,1.5 24.6,0.75 8.3,-0.75 16.3,-2.5 24.3,-5.2 7.7,-2.71 15.2,-6.29 22.2,-10.8 6.9,-4.47 13.3,-9.73 18.9,-15.77 5.8,-6.01 10.7,-12.64 14.8,-19.87 4.1,-7.19 7.2,-14.81 9.5,-22.79 2.3,-7.98 3.6,-16.1 3.9,-24.41 0.3,-8.27 -0.5,-16.49 -2.1,-24.62 v -632.03 c 1.5,-8.07 2.1,-16.29 1.6,-24.51 -0.3,-8.22 -1.7,-16.29 -4,-24.22 -2.3,-7.92 -5.6,-15.48 -9.7,-22.58 -4,-7.19 -8.9,-13.7 -14.6,-19.7 -5.7,-6 -12,-11.26 -18.8,-15.78 -7,-4.44 -14.3,-8.07 -22.1,-10.81 -7.8,-2.81 -15.8,-4.59 -23.9,-5.4 -8.3,-0.89 -16.5,-0.82 -24.6,0.29 v -34.36 h 699.3 l 60.7,246.82 h -39.5 v -1.33" /></g><g
     transform="matrix(0.18802,0,0,-0.18802,0,1806.5867)"
     id="g30"
     style="fill:#ffffff"><path
       id="path32-9"
       style="fill:#ffffff;fill-opacity:1;fill-rule:nonzero;stroke:none"
       d="m 16262.1,2977.28 26.6,-299.44 h -32.9 c -44.2,147.82 -126.4,237.53 -228.7,237.53 -8.5,0.89 -17,0.86 -25.5,-0.18 -8.5,-0.99 -16.8,-2.91 -24.9,-5.79 -8.1,-2.84 -15.7,-6.58 -22.9,-11.12 -7.3,-4.57 -14,-9.89 -20,-15.94 -6,-6.07 -11.4,-12.72 -15.9,-19.95 -4.6,-7.26 -8.3,-14.9 -11.2,-22.98 -2.8,-8.06 -4.7,-16.36 -5.8,-24.85 -1,-8.51 -1.1,-17.03 -0.1,-25.53 4.4,-38.38 17.9,-73.3 40.4,-104.73 22.4,-31.45 51,-55.5 85.9,-72.2 l 146.6,-98.53 c 37.7,-26.17 67.7,-59.36 89.9,-99.57 22.2,-40.21 34.3,-83.25 36.4,-129.13 0,-16.6 -1.6,-33.05 -4.8,-49.29 -3.3,-16.31 -8,-32.12 -14.4,-47.44 -6.3,-15.32 -14.1,-29.93 -23.3,-43.68 -9.3,-13.83 -19.8,-26.53 -31.5,-38.3 -11.7,-11.7 -24.5,-22.19 -38.3,-31.41 -13.8,-9.22 -28.3,-17.02 -43.6,-23.4 -15.4,-6.32 -31.2,-11.14 -47.5,-14.33 -16.3,-3.26 -32.7,-4.89 -49.3,-4.89 -64.8,10.07 -128.4,25.24 -190.8,45.45 -11.4,-1.84 -21.1,-7.02 -29.1,-15.46 -8,-8.43 -12.6,-18.43 -13.8,-29.99 h -18.9 l -38,302.02 h 32.9 c 55.6,-154.17 136.5,-245.15 252.7,-245.15 10,-0.35 19.9,0.28 29.9,1.99 9.8,1.77 19.5,4.46 28.7,8.22 9.3,3.76 18.1,8.37 26.5,13.97 8.3,5.61 15.9,12.06 23,19.29 6.9,7.16 13.1,15.04 18.4,23.55 5.3,8.51 9.7,17.44 13.1,26.87 3.4,9.43 5.8,19.15 7.2,29.08 1.4,9.92 1.7,19.92 1,29.92 0.1,16.95 -2.1,33.62 -6.6,50.07 -4.5,16.31 -11.1,31.77 -19.7,46.38 -8.7,14.61 -19.2,27.72 -31.4,39.43 -12.2,11.77 -25.9,21.62 -40.8,29.64 l -179.5,126.36 c -18.2,11.35 -34.6,24.85 -49.2,40.57 -14.7,15.7 -27,33.03 -37,52.02 -10,19.02 -17.3,38.96 -22,59.93 -4.6,20.94 -6.5,42.12 -5.5,63.57 -0.9,15.04 -0.2,29.98 2,44.88 2.3,14.92 6,29.41 11.3,43.52 5.2,14.09 11.9,27.53 20,40.24 8.1,12.71 17.4,24.42 27.9,35.19 10.5,10.79 22.1,20.36 34.6,28.71 12.6,8.36 25.8,15.32 39.8,20.91 14,5.58 28.4,9.66 43.3,12.22 14.8,2.58 29.7,3.58 44.8,3.02 60.6,0 126.3,-40.42 166.7,-40.42 5.6,-0.34 11.1,0.44 16.3,2.32 5.3,1.89 9.9,4.77 14,8.6 4.1,3.81 7.1,8.3 9.4,13.43 2.2,5.14 3.3,10.49 3.3,16.07 h 32.9 l -2.6,-1.27" /></g><g
     transform="matrix(0.17018,0,0,-0.17018,0,1806.5867)"
     id="g34"
     style="fill:#ffffff"><path
       id="path36-1"
       style="fill:#ffffff;fill-opacity:1;fill-rule:nonzero;stroke:none"
       d="m 15974.8,3268.45 v -36.3 c 9.1,-0.26 18.3,-1.52 27.2,-3.75 9.1,-2.19 17.7,-5.37 26,-9.43 8.3,-4.08 16.1,-8.97 23.4,-14.72 7.2,-5.71 13.8,-12.16 19.7,-19.32 5.8,-7.12 10.9,-14.79 15.2,-23 4.2,-8.22 7.5,-16.82 9.9,-25.74 2.4,-8.9 3.9,-17.99 4.3,-27.24 0.5,-9.23 -0.1,-18.42 -1.5,-27.55 v -527.71 l -520.7,714.76 h -222 v -36.3 c 19,0.39 37.2,-3.38 54.6,-11.17 17.3,-7.83 32.2,-19.01 44.5,-33.5 l 29.3,-39.08 v -671.49 c 0,-114.47 -39,-174.49 -129.8,-174.49 v -36.35 h 319.7 v 36.35 c -8.9,-0.15 -17.7,0.55 -26.4,2.28 -8.7,1.72 -17.1,4.38 -25.3,7.91 -8.1,3.61 -15.8,7.91 -22.9,13.16 -7.3,5.25 -13.8,11.13 -19.7,17.79 -5.9,6.66 -11.1,13.86 -15.4,21.54 -4.4,7.76 -7.8,15.91 -10.4,24.37 -2.6,8.54 -4.2,17.24 -4.9,26.09 -0.7,8.85 -0.5,17.63 0.8,26.4 v 619.9 l 598.9,-811.15 h 20.9 v 806.95 c 0,127.05 51.6,174.49 129.8,174.49 v 36.3 h -319.7 -5.5" /></g><g
     transform="matrix(0.15852,0,0,-0.15852,0,1806.5867)"
     id="g38"
     style="fill:#ffffff"><path
       id="path40-5"
       style="fill:#ffffff;fill-opacity:1;fill-rule:nonzero;stroke:none"
       d="m 15955.4,3508.88 v -38.98 c 9.8,-0.28 19.7,-1.62 29.3,-4.02 9.6,-2.36 18.9,-5.77 27.8,-10.13 8.9,-4.38 17.3,-9.63 25.1,-15.8 7.8,-6.13 14.9,-13.06 21.2,-20.74 6.3,-7.64 11.7,-15.87 16.3,-24.69 4.5,-8.83 8.1,-18.06 10.7,-27.64 2.5,-9.55 4.1,-19.3 4.6,-29.24 0.5,-9.91 -0.1,-19.77 -1.7,-29.58 v -566.53 l -559,767.35 H 15287 v -38.98 c 20.3,0.42 39.9,-3.63 58.5,-11.98 18.7,-8.42 34.6,-20.42 47.9,-35.97 l 31.4,-41.96 V 2659.1 c 0,-122.88 -42,-187.31 -139.4,-187.31 v -39.03 h 344.7 v 39.03 c -9.6,-0.34 -19.1,0.42 -28.5,2.19 -9.5,1.76 -18.6,4.54 -27.5,8.32 -8.8,3.71 -17.1,8.41 -24.9,13.97 -7.8,5.55 -15,11.94 -21.3,19.09 -6.4,7.15 -12,14.89 -16.8,23.22 -4.7,8.41 -8.5,17.15 -11.3,26.32 -2.8,9.17 -4.6,18.59 -5.4,28.1 -0.8,9.58 -0.4,19.09 0.8,28.59 v 665.49 l 643.1,-870.8 h 22.4 v 866.3 c 0,136.4 55.4,187.32 139.3,187.32 v 38.98 h -343.2 -1.4" /></g><g
     transform="matrix(0.141132,0,0,-0.141132,0,1806.5867)"
     id="g42"
     style="fill:#ffffff"><path
       id="path44-5"
       style="fill:#ffffff;fill-opacity:1;fill-rule:nonzero;stroke:none"
       d="m 16300,4289.63 v 43.78 h -373.7 l -486.5,-1306.27 -489.9,1306.27 h -380.5 v -43.78 c 168.4,0 203.7,-87.51 203.7,-245.75 v -983.11 c 0,-227.21 -64,-286.16 -207,-286.16 v -43.74 h 493.2 v 45.44 c -138.1,0 -203.7,58.86 -203.7,286.16 v 1026.84 l 505,-1360.14 h 47.2 l 518.5,1385.38 V 3062.47 c 0,-227.3 -52.3,-286.16 -195.3,-286.16 v -43.83 h 565.6 v 43.83 c -138,0 -191.9,58.86 -191.9,286.16 v 1009.99 c -2.7,13.93 -3.7,27.9 -3.1,42.04 0.6,14.1 2.8,27.99 6.6,41.6 3.8,13.59 9.1,26.6 15.9,38.98 6.8,12.41 14.9,23.87 24.4,34.37 9.4,10.5 20,19.81 31.6,27.89 11.6,8.08 23.9,14.71 37,19.96 13.2,5.19 26.8,8.86 40.8,10.96 13.9,2.05 27.9,2.55 42.1,1.37" /></g><g
     transform="matrix(0.14649466,0,0,-0.14649466,0,1806.5867)"
     id="g46"
     style="fill:#ffffff"><path
       id="path48-3"
       style="fill:#ffffff;fill-opacity:1;fill-rule:nonzero;stroke:none"
       d="m 16147.6,3603.91 c -1.5,10.25 -1.8,20.54 -0.9,30.87 0.9,10.29 3,20.36 6.3,30.22 3.2,9.8 7.6,19.18 13,27.98 5.4,8.78 11.9,16.88 19.1,24.23 7.4,7.29 15.4,13.67 24.2,19.13 8.9,5.41 18.2,9.76 28.1,13.06 9.7,3.25 19.8,5.31 30.2,6.23 10.3,0.89 20.6,0.59 30.9,-0.92 v 42.18 h -467.1 v -42.18 c 10.2,1.51 20.5,1.81 30.8,0.92 10.4,-0.92 20.4,-2.98 30.2,-6.23 9.9,-3.3 19.2,-7.61 28.1,-13.06 8.7,-5.46 16.8,-11.84 24.2,-19.13 7.3,-7.35 13.6,-15.4 19.1,-24.23 5.5,-8.8 9.7,-18.13 13,-27.98 3.3,-9.86 5.4,-19.93 6.3,-30.22 0.9,-10.33 0.6,-20.62 -0.9,-30.87 v -776.78 c 1.5,-10.29 1.8,-20.57 0.9,-30.85 -0.9,-10.38 -3,-20.39 -6.3,-30.31 -3.3,-9.74 -7.5,-19.12 -13,-27.94 -5.5,-8.74 -11.8,-16.84 -19.1,-24.22 -7.4,-7.28 -15.5,-13.65 -24.2,-19.11 -8.9,-5.46 -18.2,-9.83 -28.1,-13.02 -9.8,-3.36 -19.8,-5.36 -30.2,-6.27 -10.3,-0.91 -20.6,-0.64 -30.8,0.91 v -42.24 h 468.6 v 40.6 c -10.2,-1.46 -20.5,-1.82 -30.8,-0.91 -10.3,0.91 -20.4,3 -30.3,6.28 -9.8,3.19 -19.1,7.55 -27.9,13.01 -8.8,5.46 -16.9,11.83 -24.2,19.12 -7.4,7.37 -13.8,15.47 -19.1,24.21 -5.5,8.82 -9.9,18.2 -13.1,28.03 -3.2,9.83 -5.4,19.93 -6.2,30.22 -0.9,10.28 -0.7,20.57 0.8,30.85 v 778.42 h -1.6" /></g><path
     id="path50-2"
     style="fill:#ffffff;fill-opacity:1;fill-rule:nonzero;stroke:none;stroke-width:0.133333"
     d="m 1736.44,1247.2694 c -42.0534,0 -76.2667,34.6866 -76.2667,88.384 0,53.6933 34.2133,88.3733 76.2667,88.3733 42.0533,0 76.2666,-34.68 76.2666,-88.3733 0,-53.6974 -33.9733,-88.384 -76.2666,-88.384 z m 0,166.304 c -31.8267,0 -50.36,-30.64 -50.36,-78.4 0,-47.7547 18.2933,-78.396 50.36,-78.396 32.0666,0 50.1333,30.6413 50.1333,78.396 0,47.76 -18.0667,78.88 -50.1333,78.88 v -0.48" /><path
     id="path52-1"
     style="fill:#ffffff;fill-opacity:1;fill-rule:nonzero;stroke:none;stroke-width:0.133333"
     d="m 1960.48,1250.3614 h -124.0267 v 6.1786 c 1.48,-0.2066 2.9467,-0.2333 4.4267,-0.077 1.4666,0.1467 2.9066,0.476 4.3066,0.9733 1.3867,0.4947 2.7067,1.1467 3.9467,1.9587 1.24,0.8107 2.3733,1.7573 3.3867,2.84 1,1.0813 1.88,2.268 2.6,3.564 0.7333,1.2867 1.2933,2.6467 1.6933,4.072 0.4,1.4293 0.6267,2.88 0.6933,4.36 0.04,1.4827 -0.08,2.952 -0.3733,4.4013 v 113.7947 c 0.2933,1.4533 0.4133,2.92 0.3733,4.4 -0.067,1.48 -0.2933,2.9333 -0.6933,4.3733 -0.4,1.4134 -0.96,2.7734 -1.6933,4.0667 -0.72,1.2933 -1.6,2.48 -2.6,3.56 -1.0134,1.08 -2.1467,2.0267 -3.3867,2.84 -1.24,0.8133 -2.56,1.4667 -3.9467,1.96 -1.4,0.4933 -2.84,0.8133 -4.3066,0.9733 -1.48,0.1467 -2.9467,0.1334 -4.4267,-0.08 v 6.1867 h 66.0533 v -5.9467 c -1.4933,0.2 -2.9866,0.2267 -4.4933,0.08 -1.4933,-0.1466 -2.9467,-0.4666 -4.3867,-0.96 -1.4133,-0.48 -2.76,-1.12 -4.04,-1.92 -1.28,-0.8 -2.4533,-1.7333 -3.5066,-2.8133 -1.0534,-1.0667 -1.9734,-2.24 -2.76,-3.5333 -0.7867,-1.28 -1.4134,-2.64 -1.8934,-4.0667 -0.4666,-1.4267 -0.7733,-2.8933 -0.8933,-4.3867 -0.1467,-1.5066 -0.093,-3 0.12,-4.4933 v -55.12 h 35.3867 c 3.16,0 6.1866,0.6 9.0933,1.8133 2.92,1.2 5.48,2.92 7.72,5.1467 2.2267,2.2267 3.9333,4.8 5.1467,7.7067 1.2,2.92 1.8133,5.9466 1.8133,9.0933 h 5.6933 v -59.6293 h -5.6933 c 0.12,1.52 0.093,3.0413 -0.08,4.5626 -0.1867,1.512 -0.5333,2.996 -1.0267,4.444 -0.5066,1.444 -1.1466,2.8227 -1.9333,4.1374 -0.7733,1.308 -1.6933,2.5253 -2.7333,3.6413 -1.04,1.12 -2.1867,2.12 -3.44,3 -1.2534,0.8773 -2.5867,1.6187 -3.9867,2.2173 -1.4,0.5987 -2.8667,1.0507 -4.36,1.3467 -1.4933,0.296 -3.0133,0.432 -4.5467,0.4067 h -36.8133 v -57.0187 c -0.08,-1.1867 0.1067,-2.3267 0.5867,-3.4147 0.4666,-1.0906 1.16,-2.0186 2.08,-2.772 0.92,-0.7546 1.96,-1.256 3.12,-1.508 1.16,-0.244 2.3333,-0.2173 3.48,0.091 h 34.2 c 1.9733,-0.232 3.9466,-0.2573 5.9066,-0.077 1.9734,0.1826 3.92,0.5613 5.8,1.1413 1.8934,0.58 3.72,1.3533 5.4534,2.3133 1.7333,0.96 3.3333,2.0867 4.84,3.3814 1.4933,1.3013 2.8533,2.7373 4.04,4.3173 1.2,1.572 2.2266,3.2587 3.0666,5.0507 0.8534,1.792 1.5067,3.6466 1.96,5.5733 0.4667,1.9253 0.72,3.8773 0.7734,5.864 h 5.7066 l -1.4266,-38.0133" /><path
     id="path54-5"
     style="fill:#ffffff;fill-opacity:1;fill-rule:nonzero;stroke:none;stroke-width:0.133333"
     d="m 1390.7733,1250.6 1.4267,43.952 h -5.7067 c -5.2267,-28.04 -12.12,-32.788 -49.1733,-32.788 v 131.1427 c -0.2267,1.5067 -0.2667,3.0133 -0.1334,4.52 0.1334,1.5067 0.44,2.9867 0.9067,4.4267 0.48,1.44 1.12,2.8 1.92,4.1066 0.8,1.28 1.7333,2.4667 2.8,3.5334 1.08,1.08 2.2533,2.0133 3.5467,2.8133 1.2933,0.7867 2.6533,1.4267 4.0933,1.9067 1.44,0.48 2.92,0.7866 4.44,0.92 1.5067,0.1333 3.0133,0.08 4.52,-0.1334 v 6.1734 h -68.664 V 1415 c 1.5013,0.2134 3.008,0.2667 4.5227,0.1334 1.5093,-0.1334 2.9853,-0.44 4.4253,-0.92 1.4413,-0.48 2.8067,-1.12 4.0987,-1.9067 1.2906,-0.8 2.472,-1.7333 3.5466,-2.8133 1.0747,-1.0667 2.0094,-2.2534 2.8054,-3.5334 0.7946,-1.3066 1.4346,-2.6666 1.912,-4.1066 0.476,-1.44 0.78,-2.92 0.9146,-4.4267 0.1334,-1.5067 0.088,-3.0133 -0.1306,-4.52 V 1261.764 c -37.0627,0 -43.9534,4.748 -49.1787,32.788 h -5.7013 l 1.1893,-43.952 h 131.62" /><path
     id="path56-0"
     style="fill:#ffffff;fill-opacity:1;fill-rule:nonzero;stroke:none;stroke-width:0.133333"
     d="M 1522.3866,1256.7774 V 1250.6 h 52.2667 v 6.1774 c -4.92,0.9866 -9.44,2.908 -13.5733,5.7533 -4.12,2.848 -7.52,6.3907 -10.1867,10.6373 l -42.0533,70.0854 v 49.6533 c -0.2934,1.5867 -0.3734,3.1867 -0.2667,4.8 0.12,1.6133 0.4267,3.1867 0.9333,4.72 0.5067,1.5333 1.2,2.9867 2.08,4.3467 0.8667,1.36 1.8934,2.5866 3.08,3.6933 1.1867,1.0933 2.4934,2.04 3.9067,2.8133 1.4133,0.76 2.92,1.3467 4.48,1.7467 1.5733,0.4 3.16,0.5867 4.7733,0.5867 1.6134,0 3.2134,-0.2134 4.7734,-0.6134 v 6.1734 h -71.2667 V 1415 c 1.56,0.4 3.1467,0.6134 4.7733,0.6134 1.6134,0 3.2,-0.1867 4.7734,-0.5867 1.56,-0.4 3.0533,-0.9867 4.48,-1.7467 1.4133,-0.7733 2.72,-1.72 3.9066,-2.8133 1.1734,-1.1067 2.2134,-2.3333 3.08,-3.6933 0.88,-1.36 1.56,-2.8134 2.08,-4.3467 0.5067,-1.5333 0.8134,-3.1067 0.9334,-4.72 0.1066,-1.6133 0.013,-3.2133 -0.28,-4.8 v -47.52 l -45.1334,-71.272 c -2.4533,-4.4827 -5.76,-8.208 -9.9333,-11.1707 -4.1733,-2.9653 -8.7867,-4.8586 -13.8267,-5.696 v -6.648 h 67.48 v 6.1774 c -1.6533,-0.3547 -3.32,-0.4054 -4.9733,-0.148 -1.68,0.2586 -3.24,0.8066 -4.7067,1.636 -1.4666,0.8333 -2.7333,1.896 -3.8133,3.196 -1.08,1.296 -1.88,2.744 -2.4267,4.344 0.2134,3.1226 1.0934,6.0506 2.6134,8.788 l 32.5466,55.8333 33.7334,-58.452 c 0.9466,-1.6933 1.4266,-3.516 1.4266,-5.4627 0,-4.2706 -2.8533,-9.7346 -15.68,-9.7346" /><path
     id="path58-4"
     style="fill:#ffffff;fill-opacity:1;fill-rule:nonzero;stroke:none;stroke-width:0.133333"
     d="m 1118.7453,1246.8 4.9867,56.3 h -7.1254 c -8.5533,-27.7933 -23.7573,-44.66 -43.004,-44.66 -1.6,-0.168 -3.1986,-0.1613 -4.7986,0.033 -1.5987,0.1866 -3.1574,0.5466 -4.6747,1.0893 -1.516,0.5333 -2.956,1.236 -4.316,2.0907 -1.364,0.8586 -2.6133,1.8586 -3.7547,2.9973 -1.136,1.1413 -2.1346,2.3907 -2.9946,3.7507 -0.8574,1.3653 -1.556,2.8013 -2.0934,4.3146 -0.5386,1.5214 -0.9026,3.0827 -1.0933,4.6787 -0.1853,1.5987 -0.1987,3.2013 -0.032,4.8 0.8413,7.216 3.3733,13.7813 7.596,19.6907 4.22,5.9133 9.6107,10.4346 16.1613,13.5746 l 27.56,18.5267 c 7.096,4.92 12.7334,11.16 16.9134,18.72 4.1746,7.56 6.4586,15.6533 6.844,24.28 0,3.12 -0.3027,6.2133 -0.9107,9.2667 -0.6093,3.0666 -1.512,6.04 -2.7053,8.92 -1.1934,2.88 -2.6587,5.6266 -4.392,8.2133 -1.732,2.6 -3.7027,4.9867 -5.9094,7.2 -2.2053,2.2 -4.6053,4.1733 -7.1986,5.9067 -2.5934,1.7333 -5.332,3.2 -8.216,4.4 -2.8814,1.1866 -5.852,2.0933 -8.912,2.6933 -3.06,0.6133 -6.1494,0.92 -9.2707,0.92 -10.8893,-2 -21.58,-4.7733 -32.072,-8.32 -2.1027,0.4133 -3.8813,1.4 -5.332,2.9867 -1.4493,1.5733 -2.284,3.44 -2.5107,5.5733 h -6.8866 l -7.1294,-56.7867 h 6.1787 c 10.4547,28.9867 25.66,46.0934 47.516,46.0934 1.8853,0.067 3.756,-0.053 5.616,-0.3867 1.8573,-0.32 3.6613,-0.8267 5.4107,-1.5333 1.7533,-0.7067 3.412,-1.5734 4.9773,-2.64 1.5627,-1.0534 3.0027,-2.2534 4.312,-3.6134 1.3147,-1.3466 2.4707,-2.8266 3.468,-4.4266 1.0013,-1.6 1.8227,-3.2934 2.468,-5.0667 0.644,-1.7733 1.096,-3.5867 1.356,-5.4533 0.26,-1.8667 0.3213,-3.7467 0.1867,-5.6267 -0.01,-3.2133 -0.4507,-6.3733 -1.3254,-9.4667 -0.876,-3.0933 -2.1506,-6.0133 -3.8253,-8.76 -1.6747,-2.7333 -3.6933,-5.2 -6.044,-7.4 -2.3507,-2.1866 -4.956,-4.0266 -7.8107,-5.5066 l -33.7346,-23.7467 c -3.428,-2.1347 -6.5187,-4.672 -9.264,-7.6293 -2.752,-2.9507 -5.0667,-6.212 -6.9427,-9.7854 -1.8813,-3.5706 -3.2613,-7.3186 -4.1373,-11.2613 -0.8787,-3.9387 -1.2254,-7.9213 -1.04,-11.952 -0.168,-2.8293 -0.037,-5.6387 0.3786,-8.4413 0.4227,-2.8027 1.1294,-5.528 2.12,-8.1827 0.9894,-2.6467 2.2467,-5.1733 3.7627,-7.5653 1.5213,-2.388 3.268,-4.592 5.248,-6.6214 1.9813,-2.0213 4.1507,-3.82 6.5053,-5.3933 2.3547,-1.5707 4.8467,-2.88 7.4747,-3.9307 2.6333,-1.048 5.3413,-1.816 8.132,-2.3 2.7893,-0.4826 5.6013,-0.6693 8.4307,-0.564 11.6426,0 23.7573,7.6014 31.36,7.6014 1.0506,0.064 2.0693,-0.085 3.0573,-0.4374 0.9853,-0.3573 1.8627,-0.896 2.628,-1.6186 0.7667,-0.716 1.356,-1.5587 1.7733,-2.5254 0.4147,-0.9666 0.62,-1.972 0.62,-3.02 h 6.176 0.2387" /><path
     id="path60-8"
     style="fill:#ffffff;fill-opacity:1;fill-rule:nonzero;stroke:none;stroke-width:0.133333"
     d="m 1211.6386,1278.8707 c -0.2613,-1.5867 -0.324,-3.176 -0.192,-4.776 0.136,-1.6027 0.464,-3.1613 0.9827,-4.6813 0.5187,-1.5134 1.2173,-2.952 2.0907,-4.2987 0.8746,-1.3467 1.8973,-2.5653 3.072,-3.6587 1.1773,-1.0946 2.4693,-2.0293 3.8786,-2.8026 1.4027,-0.7734 2.8867,-1.3654 4.4387,-1.772 1.552,-0.408 3.128,-0.6254 4.7333,-0.6374 1.6067,-0.02 3.1894,0.1614 4.7534,0.5334 V 1250.6 h -69.3734 v 6.1774 c 1.5014,-0.224 3.008,-0.2627 4.52,-0.1347 1.5094,0.1347 2.988,0.4387 4.428,0.916 1.44,0.476 2.8054,1.1147 4.0974,1.9133 1.2933,0.7974 2.476,1.7334 3.548,2.8 1.0733,1.0787 2.0066,2.256 2.804,3.552 0.7973,1.288 1.436,2.652 1.9106,4.0974 0.476,1.4413 0.784,2.9186 0.916,4.4266 0.1334,1.5134 0.091,3.0214 -0.1293,4.5227 v 113.796 c 0.22,1.5067 0.2627,3.0133 0.1293,4.52 -0.132,1.5067 -0.44,2.9867 -0.916,4.4267 -0.4746,1.44 -1.1133,2.8133 -1.9106,4.1066 -0.7974,1.28 -1.7307,2.4667 -2.804,3.5467 -1.072,1.0667 -2.2547,2 -3.548,2.8 -1.292,0.8 -2.6574,1.44 -4.0974,1.9067 -1.44,0.48 -2.9186,0.7866 -4.428,0.92 -1.512,0.1333 -3.0186,0.08 -4.52,-0.1334 v 6.1867 h 69.3734 V 1415 c -1.564,0.3734 -3.1467,0.56 -4.7534,0.5334 -1.6053,-0.013 -3.1813,-0.2267 -4.7333,-0.64 -1.552,-0.4134 -3.036,-1 -4.4387,-1.7734 -1.4093,-0.7733 -2.7013,-1.7066 -3.8786,-2.8 -1.1747,-1.0933 -2.1974,-2.32 -3.072,-3.6666 -0.8734,-1.3467 -1.572,-2.7734 -2.0907,-4.2934 -0.5187,-1.52 -0.8467,-3.08 -0.9827,-4.68 -0.132,-1.6 -0.069,-3.1866 0.192,-4.7733 v -114.036" /><path
     id="path62-2"
     style="fill:#ffffff;fill-opacity:1;fill-rule:nonzero;stroke:none;stroke-width:0.133333"
     d="m 821.77331,1376.7467 c -1.23866,4.88 -3.252,9.4 -6.03866,13.5867 -2.78934,4.1866 -6.19334,7.7866 -10.20934,10.8133 -4.01733,3.0267 -8.42,5.2933 -13.21466,6.8133 -4.78934,1.52 -9.69867,2.2134 -14.724,2.0534 h -27.324 c -9.976,0 -14.25067,-3.3334 -14.25067,-11.64 v -60.8267 h 36.82267 c 3.15066,0 6.18,0.6 9.09066,1.8133 2.91067,1.2 5.48134,2.92 7.70934,5.1467 2.22533,2.2267 3.94266,4.8 5.148,7.7067 1.204,2.92 1.80933,5.9466 1.80933,9.0933 h 5.704 v -59.6293 h -5.704 c 0.132,1.52 0.10667,3.0413 -0.08,4.5626 -0.18667,1.512 -0.52933,2.996 -1.02533,4.444 -0.49467,1.444 -1.136,2.8227 -1.92134,4.1374 -0.78666,1.308 -1.70133,2.5253 -2.74133,3.6413 -1.04133,1.12 -2.18667,2.12 -3.43867,3 -1.25066,0.8773 -2.58,1.6187 -3.988,2.2173 -1.404,0.5987 -2.856,1.0507 -4.35866,1.3467 -1.496,0.296 -3.012,0.432 -4.54134,0.4067 h -38.012 v -57.0187 c -0.08,-1.1867 0.11467,-2.3267 0.58934,-3.4147 0.47333,-1.0906 1.16933,-2.0186 2.088,-2.772 0.91733,-0.7546 1.95866,-1.256 3.12133,-1.508 1.16267,-0.244 2.31867,-0.2173 3.46667,0.091 h 32.78666 c 1.96534,-0.232 3.93467,-0.2573 5.90934,-0.077 1.972,0.1826 3.90666,0.5613 5.8,1.1413 1.89066,0.58 3.70533,1.3533 5.43866,2.3133 1.73334,0.96 3.348,2.0867 4.84534,3.3814 1.496,1.3013 2.84666,2.7373 4.04666,4.3106 1.19734,1.5787 2.21867,3.2654 3.06534,5.0574 0.84666,1.792 1.50133,3.6466 1.96133,5.5733 0.45733,1.9253 0.71467,3.8773 0.76533,5.864 h 5.704 l -1.42533,-38.4907 h -122.828 v 6.18 c 1.47867,-0.2266 2.96134,-0.264 4.44934,-0.1293 1.488,0.136 2.93733,0.444 4.348,0.9267 1.41333,0.4906 2.748,1.1333 4.004,1.9466 1.25333,0.812 2.39733,1.7574 3.42266,2.84 1.02667,1.0827 1.91067,2.2734 2.64667,3.576 0.74133,1.3014 1.31467,2.6694 1.72267,4.104 0.408,1.436 0.636,2.9 0.692,4.3947 0.0507,1.4947 -0.0747,2.972 -0.37734,4.432 V 1391.96 c 0.30267,1.4534 0.428,2.9334 0.37734,4.4267 -0.056,1.4933 -0.284,2.96 -0.692,4.4 -0.408,1.44 -0.98134,2.8 -1.72267,4.0933 -0.736,1.3067 -1.62,2.4934 -2.64667,3.5734 -1.02533,1.0933 -2.16933,2.04 -3.42266,2.8533 -1.256,0.8 -2.59067,1.4533 -4.004,1.9467 -1.41067,0.48 -2.86,0.7866 -4.348,0.9333 -1.488,0.1333 -2.97067,0.08 -4.44934,-0.1333 v 6.1733 h 125.916 l 11.168,-44.4267 h -7.13067 v 0.9467" /><path
     id="path64-5"
     style="fill:#ffffff;fill-opacity:1;fill-rule:nonzero;stroke:none;stroke-width:0.133333"
     d="m 984.03998,1407.16 c -4.04,-4.7466 -41.81467,-56.5466 -50.128,-68.1866 2.756,-0.16 5.47333,-0.6 8.14533,-1.2934 2.67467,-0.6933 5.25333,-1.6266 7.748,-2.8266 2.492,-1.1867 4.84133,-2.6174 7.05867,-4.2667 2.216,-1.6493 4.252,-3.4933 6.10933,-5.5413 1.85733,-2.0427 3.50267,-4.2454 4.93333,-6.6094 1.43067,-2.364 2.61867,-4.8386 3.56934,-7.436 0.95066,-2.5893 1.644,-5.2493 2.07733,-7.9813 0.43333,-2.7253 0.60533,-5.4707 0.50667,-8.2333 0,-26.604 -19.95734,-44.424 -56.30534,-44.424 h -67.23199 v 6.1786 c 1.476,-0.2266 2.956,-0.2706 4.44533,-0.1346 1.488,0.1346 2.93733,0.4506 4.35067,0.9333 1.41333,0.4893 2.74533,1.1347 4,1.9467 1.26,0.804 2.39866,1.7506 3.42799,2.84 1.02667,1.0826 1.90934,2.2733 2.64667,3.5746 0.73733,1.2974 1.31067,2.6694 1.71867,4.1054 0.408,1.4386 0.64,2.8986 0.692,4.3933 0.0547,1.496 -0.0733,2.972 -0.37467,4.4333 v 113.7947 c 0.27333,1.4667 0.376,2.9333 0.30133,4.4133 -0.0693,1.4934 -0.31733,2.9467 -0.732,4.3734 -0.41866,1.4133 -1,2.7733 -1.73733,4.0533 -0.74,1.2933 -1.62267,2.4667 -2.64266,3.56 -1.02134,1.0667 -2.15067,2.0133 -3.39467,2.8267 -1.248,0.8133 -2.568,1.4533 -3.96667,1.96 -1.4,0.4933 -2.83733,0.8266 -4.31333,0.9733 -1.47733,0.16 -2.94933,0.1333 -4.42133,-0.067 v 6.1867 h 66.04533 v -5.9467 c -1.472,0.2 -2.94534,0.2134 -4.424,0.053 -1.476,-0.1467 -2.912,-0.4667 -4.31334,-0.9734 -1.39866,-0.4933 -2.72,-1.1466 -3.96533,-1.9466 -1.244,-0.8134 -2.37333,-1.76 -3.396,-2.84 -1.02,-1.08 -1.89867,-2.2534 -2.64133,-3.5467 -0.73734,-1.28 -1.316,-2.64 -1.736,-4.0667 -0.41467,-1.4266 -0.66534,-2.88 -0.73467,-4.36 -0.0733,-1.48 0.0253,-2.96 0.30267,-4.4133 v -50.1333 h 13.06666 l 55.35734,78.88 h 37.29862 v -5.6934 c -7.05062,-0.28 -12.83462,-3.1333 -17.34262,-8.56 z m -88.38,-74.8333 v -57.496 c 0,-11.88 2.37733,-14.7293 15.444,-14.7293 2.512,-0.488 5.05066,-0.6814 7.61066,-0.5854 2.56267,0.104 5.07467,0.4974 7.54267,1.1787 2.46933,0.6907 4.82533,1.6507 7.072,2.8867 2.244,1.2293 4.31467,2.7066 6.21867,4.4266 1.90266,1.7147 3.58,3.628 5.036,5.7347 1.45466,2.1067 2.652,4.3547 3.58533,6.7373 0.93333,2.3907 1.57867,4.852 1.94,7.3907 0.36,2.5333 0.42267,5.0787 0.19333,7.628 0,26.132 -19.71866,36.828 -49.17866,36.828 h -5.464" /><path
     id="path66-4"
     style="fill:#ffffff;fill-opacity:1;fill-rule:nonzero;stroke:none;stroke-width:0.133333"
     d="m 460.18532,1278.632 c -0.22,-1.5013 -0.264,-3.0093 -0.13066,-4.5213 0.13066,-1.508 0.436,-2.984 0.91466,-4.428 0.476,-1.436 1.11467,-2.8093 1.91334,-4.0987 0.79466,-1.2866 1.72933,-2.4733 2.80266,-3.5493 1.072,-1.068 2.25333,-2.0027 3.54533,-2.8027 1.29334,-0.7986 2.65867,-1.4293 4.09734,-1.9133 1.44533,-0.476 2.92,-0.7787 4.43066,-0.9133 1.51067,-0.1294 3.01867,-0.085 4.51867,0.1346 v -6.1786 h -68.656 v 6.1786 c 1.50134,-0.22 3.008,-0.264 4.51867,-0.1346 1.51067,0.1346 2.98667,0.4373 4.42667,0.9133 1.444,0.484 2.80933,1.1147 4.10133,1.9133 1.292,0.8 2.47333,1.7347 3.54533,2.8027 1.07467,1.076 2.008,2.2627 2.804,3.5493 0.79734,1.2894 1.432,2.656 1.91334,4.0987 0.47733,1.444 0.78266,2.92 0.91466,4.428 0.132,1.512 0.0893,3.02 -0.132,4.5213 v 113.7947 c 0.21867,1.5067 0.264,3.0133 0.132,4.52 -0.132,1.52 -0.43733,2.9867 -0.91466,4.44 -0.48134,1.4267 -1.116,2.8 -1.91334,4.0933 -0.796,1.28 -1.72933,2.4667 -2.804,3.5467 -1.072,1.0667 -2.25333,2 -3.54533,2.8 -1.292,0.8 -2.65733,1.44 -4.10133,1.9067 -1.44,0.4933 -2.916,0.7866 -4.42667,0.92 -1.51067,0.1333 -3.01733,0.093 -4.51867,-0.1334 v 6.1867 h 68.656 v -5.9467 c -1.5,0.2134 -3.008,0.2667 -4.51867,0.1334 -1.51066,-0.1334 -2.98533,-0.44 -4.43066,-0.92 -1.43867,-0.4667 -2.804,-1.1067 -4.09734,-1.9067 -1.292,-0.8 -2.47333,-1.7333 -3.54533,-2.8 -1.07333,-1.08 -2.008,-2.2667 -2.80266,-3.5467 -0.79867,-1.2933 -1.43734,-2.6666 -1.91334,-4.1066 -0.47866,-1.44 -0.784,-2.92 -0.91466,-4.4267 -0.13334,-1.5067 -0.0893,-3.0133 0.13066,-4.52 v -114.0347 0" /><path
     id="path68-1"
     style="fill:#ffffff;fill-opacity:1;fill-rule:nonzero;stroke:none;stroke-width:0.133333"
     d="m 572.55865,1256.54 v -6.1786 h -62.48266 v 6.1786 c 2.452,0.2174 4.80933,0.8054 7.07733,1.7587 2.268,0.948 4.33867,2.2227 6.21067,3.8213 1.87466,1.596 3.45866,3.4334 4.76133,5.5267 1.29733,2.0893 2.25067,4.3227 2.85733,6.708 l 61.532,149.432 h 4.04 c 0,0 49.17733,-137.3147 53.69067,-149.432 1.112,-4.5947 3.392,-8.512 6.84133,-11.7453 3.44933,-3.2347 7.50667,-5.2574 12.164,-6.0694 v -6.1786 h -47.516 v 6.1786 c 1.996,-0.3493 3.968,-0.264 5.928,0.244 1.956,0.5174 3.72,1.4067 5.28933,2.6814 1.57467,1.2746 2.80934,2.816 3.712,4.624 0.90534,1.8106 1.392,3.7306 1.46667,5.7546 -0.088,2.3 -0.564,4.516 -1.428,6.648 l -36.58667,101.4547 -42.52533,-101.9307 c -0.952,-2.4413 -1.42666,-4.9746 -1.42666,-7.6013 0,-7.836 5.70133,-11.8747 16.39466,-11.8747" /><path
     id="path70-4"
     style="fill:#ffffff;fill-opacity:1;fill-rule:nonzero;stroke:none;stroke-width:0.133333"
     d="m 0,1201.1827 c 18.530266,0 28.270799,9.2653 28.270799,35.8733 v 105.4774 c -0.338533,2.7333 -0.5208,5.4666 -0.551066,8.2 -0.028,2.7466 0.098,5.48 0.374,8.2133 0.280266,2.72 0.712533,5.4267 1.294266,8.1067 0.584934,2.68 1.317734,5.32 2.200534,7.92 0.880266,2.6 1.903599,5.1333 3.074533,7.6133 1.168666,2.48 2.469733,4.8933 3.909866,7.2267 1.440134,2.3333 3.0088,4.5733 4.700534,6.7333 1.695333,2.16 3.501599,4.2133 5.428666,6.1733 1.925467,1.9467 3.951467,3.7867 6.084267,5.52 2.132933,1.72 4.355333,3.32 6.667733,4.7867 2.313066,1.48 4.704666,2.8133 7.168266,4.0267 2.464534,1.2 4.986933,2.2666 7.570267,3.1866 2.583333,0.9067 5.210933,1.68 7.8828,2.3067 2.670933,0.6267 5.369866,1.0933 8.091199,1.4133 2.726534,0.32 5.457334,0.48 8.202136,0.4934 2.7416,0.013 5.4776,-0.1334 8.20146,-0.4267 2.59907,0.1867 5.2032,0.24 7.80574,0.1467 2.6032,-0.093 5.19693,-0.3334 7.7776,-0.7067 2.57706,-0.3733 5.1276,-0.88 7.65266,-1.52 2.52307,-0.6533 5.00574,-1.4267 7.4444,-2.3467 2.44,-0.92 4.824,-1.96 7.14934,-3.1333 2.328,-1.1733 4.58666,-2.4667 6.77466,-3.88 2.18667,-1.4133 4.292,-2.9467 6.31334,-4.5867 2.024,-1.6533 3.94933,-3.3866 5.78533,-5.24 1.83333,-1.8533 3.56267,-3.8 5.188,-5.8266 1.62267,-2.0534 3.13333,-4.16 4.528,-6.36 1.39467,-2.2134 2.66933,-4.48 3.82,-6.8134 1.152,-2.3333 2.17467,-4.7333 3.06667,-7.1733 0.89333,-2.4533 1.65066,-4.9333 2.27466,-7.4667 0.62534,-2.5333 1.112,-5.0933 1.46,-7.6666 0.348,-2.5867 0.55734,-5.1734 0.62534,-7.7867 0.0693,-2.6 0,-5.2 -0.212,-7.8 v -114.988 c -0.55867,-1.964 -0.85467,-3.9747 -0.89334,-6.0173 -0.036,-2.0494 0.18534,-4.0667 0.67067,-6.052 0.48267,-1.9907 1.21067,-3.8827 2.184,-5.68 0.972,-1.8054 2.15733,-3.448 3.55467,-4.9427 1.39866,-1.4947 2.96133,-2.7827 4.69466,-3.872 1.73067,-1.088 3.572,-1.9467 5.524,-2.5587 1.95333,-0.612 3.94933,-0.9666 5.992,-1.0613 2.044,-0.099 4.06533,0.063 6.06667,0.488 v -6.1787 h -68.42 v 6.1787 c 19.00667,0 27.08133,8.552 27.55867,31.3587 0.47466,22.8066 1.66266,83.388 1.66266,118.792 0.144,3.9733 -0.12533,7.92 -0.81333,11.84 -0.69067,3.9333 -1.78267,7.7333 -3.27467,11.4266 -1.49466,3.6934 -3.356,7.1867 -5.58533,10.48 -2.232,3.2934 -4.784,6.32 -7.65467,9.08 -2.87066,2.76 -5.99733,5.1867 -9.384,7.2934 -3.38133,2.0933 -6.948,3.8133 -10.69466,5.16 -3.74667,1.3466 -7.59227,2.28 -11.53854,2.8266 -3.94533,0.52 -7.9052,0.64 -11.874,0.3334 -4.1104,0.2933 -8.20573,0.1466 -12.28386,-0.4534 -4.078136,-0.6 -8.042669,-1.6266 -11.893202,-3.0933 -3.853067,-1.4667 -7.502667,-3.32 -10.945333,-5.5867 -3.447867,-2.2666 -6.605733,-4.8666 -9.480133,-7.8266 -2.874,-2.9467 -5.395867,-6.1867 -7.565734,-9.68 -2.167599,-3.5067 -3.929066,-7.2134 -5.289066,-11.0934 -1.359333,-3.8933 -2.283733,-7.8933 -2.7708,-11.9866 -0.4864,-4.0934 -0.5244,-8.1867 -0.1156,-12.2934 v -118.784 c -0.474,-1.892 -0.705733,-3.82 -0.702133,-5.7786 0.0032,-1.952 0.2448,-3.8774 0.721466,-5.772 0.480667,-1.8934 1.1828,-3.704 2.106667,-5.4254 0.926133,-1.72 2.045867,-3.304 3.362,-4.748 1.315066,-1.4426 2.788,-2.7133 4.4156,-3.788 1.628666,-1.0826 3.362,-1.952 5.204666,-2.6093 1.843867,-0.6507 3.737067,-1.0693 5.6824,-1.256 1.946267,-0.1853 3.8848,-0.1347 5.818667,0.1613 v -4.756 H 0 v 6.1787 0" /><path
     id="path72"
     style="fill:#ffffff;fill-opacity:1;fill-rule:nonzero;stroke:none;stroke-width:0.133333"
     d="m 323.57999,1250.3614 v 6.1786 c 1.608,0.039 3.19467,0.2507 4.75867,0.632 1.56133,0.3867 3.06667,0.9334 4.50933,1.648 1.44267,0.716 2.79067,1.5787 4.04533,2.584 1.25334,1.0134 2.384,2.1454 3.392,3.4014 1.00534,1.2573 1.86534,2.6026 2.57734,4.0466 0.712,1.4427 1.26,2.9507 1.644,4.516 0.38266,1.5587 0.59066,3.144 0.63066,4.756 0.0347,1.6107 -0.104,3.2067 -0.416,4.788 v 89.7947 l -88.61333,-121.636 h -38.48933 v 6.1773 c 3.24133,-0.057 6.336,0.5734 9.29067,1.9067 2.952,1.3347 5.47866,3.228 7.57866,5.6973 l 4.98667,6.6534 v 113.5613 c 0,19.48 -6.652,29.6933 -22.092,29.6933 v 6.1867 h 54.404 v -6.1867 c -1.52133,0.053 -3.02933,-0.067 -4.52667,-0.3466 -1.496,-0.28 -2.94133,-0.72 -4.34266,-1.32 -1.40134,-0.5867 -2.71867,-1.3334 -3.95867,-2.2134 -1.23733,-0.88 -2.36533,-1.8933 -3.38267,-3.0266 -1.01866,-1.1334 -1.904,-2.36 -2.65466,-3.68 -0.74667,-1.3334 -1.34667,-2.72 -1.79467,-4.1734 -0.444,-1.4533 -0.73067,-2.9466 -0.85067,-4.4533 -0.12133,-1.52 -0.08,-3.0267 0.13067,-4.5333 V 1285.52 l 101.91733,138.04 h 4.04 v -137.3253 c 0,-21.6227 8.79067,-29.6947 22.096,-29.6947 v -6.1786 h -54.88" /><g
     transform="matrix(0.156056,0,0,-0.156056,0,1806.5867)"
     id="g126"
     style="fill:#ffffff"><path
       id="path128"
       style="fill:#ffffff;fill-opacity:1;fill-rule:nonzero;stroke:none"
       d="M 11207.7,11561.3 H 8382.17 V 10073.9 H 8878.5 L 7136.88,7219.47 h -647 V 5732.13 H 9418.9 v 1487.34 h -525.2 l 886.01,1456.92 330.39,-509.99 H 9794.92 V 6648.57 H 12995 v 1502.59 h -330.4 l 299.9,510 901.3,-1426.45 h -479.6 V 5716.9 H 16300 v 1502.57 h -645.5 l -1743,2839.23 h 525.2 v 1517.8 h -2839.3 v -1502.6 h 450.6 l -660.7,-1067.17 -660.7,1067.17 h 481.1 v 1487.4" /></g><g
     transform="matrix(0.16781066,0,0,-0.16781066,0,1806.5867)"
     id="g130"
     style="fill:#ffffff"><path
       id="path132"
       style="fill:#ffffff;fill-opacity:1;fill-rule:nonzero;stroke:none"
       d="m 16299.4,5545.83 c 0.6,-19.8 -0.8,-39.47 -4.2,-58.97 -3.3,-19.54 -8.5,-38.55 -15.5,-57.03 -7.2,-18.5 -16,-36.11 -26.6,-52.85 -10.6,-16.74 -22.7,-32.28 -36.4,-46.64 -13.6,-14.33 -28.6,-27.18 -44.8,-38.6 -16.1,-11.35 -33.3,-21.07 -51.5,-29.06 -18.1,-7.98 -36.8,-14.12 -56.1,-18.39 -19.4,-4.29 -39,-6.64 -58.7,-7.02 -19.8,-0.42 -39.5,1.12 -59,4.6 -19.5,3.5 -38.4,8.84 -56.9,16.09 -18.4,7.23 -35.9,16.2 -52.6,26.92 -16.7,10.71 -32.1,22.96 -46.3,36.69 -14.3,13.81 -27,28.8 -38.3,45.08 -11.2,16.32 -20.8,33.56 -28.7,51.74 -7.8,18.17 -13.8,36.95 -18,56.32 -4.1,19.37 -6.2,38.96 -6.5,58.75 -0.3,19.82 1.5,39.47 5,58.93 3.7,19.46 9.2,38.4 16.6,56.76 7.3,18.39 16.5,35.86 27.3,52.44 10.8,16.58 23.2,31.93 37.1,46.06 13.8,14.13 29,26.75 45.4,37.9 16.3,11.13 33.6,20.57 51.8,28.26 18.4,7.7 37.2,13.55 56.5,17.53 19.5,3.98 39,6.01 58.9,6.13 19.5,0.46 38.9,-1 58.1,-4.37 19.2,-3.38 37.9,-8.62 56.1,-15.72 18.2,-7.11 35.4,-15.91 51.9,-26.45 16.4,-10.56 31.6,-22.61 45.7,-36.17 14,-13.58 26.6,-28.39 37.6,-44.47 11.1,-16.06 20.5,-33.05 28.2,-51.01 7.7,-17.92 13.6,-36.43 17.6,-55.52 4,-19.1 6.2,-38.41 6.3,-57.93 z m -526.7,0 c -0.4,-15.11 0.6,-30.13 3.1,-45.03 2.6,-14.89 6.6,-29.41 12,-43.52 5.4,-14.09 12.2,-27.53 20.3,-40.27 8.2,-12.75 17.5,-24.55 28,-35.45 10.5,-10.91 21.9,-20.62 34.4,-29.23 12.4,-8.56 25.6,-15.85 39.5,-21.81 13.9,-5.94 28.2,-10.47 43,-13.55 14.8,-3.07 29.7,-4.64 44.9,-4.76 15,0 29.9,1.51 44.7,4.49 14.7,3 29,7.46 42.9,13.33 13.9,5.87 27,13.08 39.4,21.62 12.4,8.56 23.8,18.23 34.2,29.06 10.4,10.83 19.7,22.62 27.8,35.32 8.1,12.71 14.7,26.1 20.1,40.16 5.4,14.07 9.3,28.53 11.7,43.39 2.5,14.83 3.4,29.79 2.9,44.84 2.2,16 2.8,32.09 1.6,48.22 -1.2,16.14 -4.1,31.97 -8.7,47.49 -4.5,15.52 -10.7,30.37 -18.5,44.58 -7.7,14.2 -16.9,27.42 -27.5,39.64 -10.6,12.22 -22.3,23.2 -35.4,32.89 -12.9,9.72 -26.7,17.97 -41.4,24.7 -14.7,6.75 -29.9,11.87 -45.8,15.33 -15.7,3.47 -31.8,5.24 -47.9,5.3 -16.2,0.06 -32.2,-1.61 -48.1,-5 -15.8,-3.36 -31,-8.37 -45.8,-15.03 -14.7,-6.67 -28.6,-14.8 -41.6,-24.42 -13,-9.64 -24.8,-20.52 -35.5,-32.7 -10.7,-12.15 -19.9,-25.32 -27.8,-39.46 -7.9,-14.16 -14.1,-28.97 -18.8,-44.47 -4.6,-15.49 -7.7,-31.29 -8.9,-47.43 -1.3,-16.12 -0.9,-32.2 1.2,-48.23 z m 179.8,-159.98 h -67.9 v 298.72 c 37,6.4 74.3,9.21 111.9,8.48 36.1,3.04 70.1,-4.05 101.9,-21.22 19.6,-16.72 29,-37.96 28.3,-63.72 -1.3,-16.89 -7.6,-31.66 -18.9,-44.28 -11.4,-12.63 -25.3,-20.53 -42,-23.67 14.8,-5.93 27.1,-15.22 36.8,-27.95 9.6,-12.69 15.3,-26.97 17,-42.83 1.2,-29.14 7.7,-57 19.8,-83.53 h -70.7 c -11.1,22.46 -18.7,46.05 -22.7,70.77 -0.5,7.34 -2.4,14.25 -5.9,20.74 -3.4,6.49 -8.1,11.98 -13.9,16.46 -5.9,4.47 -12.4,7.55 -19.5,9.21 -7.2,1.66 -14.3,1.77 -21.6,0.33 h -32.6 z m 0,165.63 h 32.6 c 36.8,0 68,12.75 68,42.49 0,29.73 -19.8,45.31 -62.3,45.31 -12.3,1.39 -24.6,1.39 -36.8,0 v -83.54 l -1.5,-4.26" /></g></g><g
   id="g1238"
   transform="translate(33.271515,179.92166)"><path
     fill="#fa4616"
     d="m 76.27987,48.31081 h 2 v -45.95 h -2 z"
     id="path836"
     style="fill:#ffffff;stroke-width:0.5" /><path
     fill="#0021a5"
     d="m 246.82987,0.7608 c -0.4,0 -0.7002,0.05039 -0.9502,0.15039 -0.2,0.1 -0.6996,0.399415 -1.3496,0.8994 -0.7,0.5 -1.3504,0.9998 -1.9004,1.5498 -0.35,0.35 -0.6496,0.7 -0.8496,1 -0.1,0.2 -0.20059,0.6004 -0.35059,1.1504 -0.05,0.25 -0.0994,0.449805 -0.14941,0.5498 -0.25,0.15 -0.5998,0.25039 -1.0498,0.40039 -0.45,0.1 -0.7502,0.199805 -0.9502,0.299805 l -0.10059,0.5 h 0.6006 1.2998 l -1.4004,7.3495 c -0.35,2 -0.6994,3.3502 -0.8994,3.9502 -0.1,0.3 -0.25039,0.5504 -0.40039,0.6504 -0.15,0.1 -0.3498,0.149415 -0.5498,0.149415 -0.2,0 -0.3498,-0.04922 -0.5498,-0.19922 -0.15,-0.15 -0.30019,-0.35039 -0.45019,-0.6504 l -0.29981,0.0498 c -0.05,0.35 -0.15,0.7 -0.25,1 -0.1,0.3 -0.20039,0.7004 -0.40039,1.1504 0.25,0.1 0.5,0.149415 0.75,0.149415 0.30001,0 0.65021,-0.1 0.9502,-0.25 0.65,-0.35 1.2504,-0.8496 1.9004,-1.5996 0.6,-0.7 1.15,-1.55 1.5,-2.5 0.35,-0.95 0.7996,-2.4496 1.3496,-4.5996 l 1.0996,-4.75 h 1 1.5 c 0.05,-0.3 0.20079,-0.65 0.30078,-1 L 246.1297,6.01071 c -0.2,0.05 -0.5502,0.04961 -0.9502,0.09961 -0.7,0.05 -1.1496,0.05078 -1.3496,0.05078 h -0.2002 c 0.15,-0.85 0.35059,-1.7506 0.6006,-2.6006 0.1,-0.35 0.2,-0.6 0.25,-0.75 0.1,-0.15 0.19961,-0.29961 0.34961,-0.34961 0.15,-0.1 0.3,-0.15039 0.5,-0.15039 0.2,0 0.4502,0.1 0.7002,0.25 0.25,0.15 0.5498,0.45039 0.7998,0.9004 l 0.29981,-0.049805 c 0.1,-0.8 0.2998,-1.65 0.5498,-2.5 -0.3,-0.1 -0.5498,-0.15039 -0.7998,-0.15039 h -0.0498 z m -70.15,1.4004 c -0.6,0 -1.1492,0.049218 -1.6992,0.19922 -0.55,0.1500015 -1.05,0.35039 -1.5,0.6504 -0.45,0.3 -0.8008,0.7 -1.0508,1.25 -0.25,0.55 -0.39942,1.15 -0.39942,1.75 0,0.45 0.0502,0.8998 0.2002,1.2998 0.15,0.4 0.34941,0.7 0.6494,1 0.3,0.3 0.7002,0.5004 1.2002,0.6504 0.35,0.1 0.9998,0.250195 2.0498,0.450195 0.7,0.15 1.2,0.35 1.5,0.5 0.3,0.15 0.5004,0.34961 0.6504,0.5996 0.15,0.25 0.2002,0.5504 0.20019,0.9004 0,0.4 -0.10078,0.7994 -0.30078,1.1494 -0.2,0.35 -0.49941,0.5998 -0.8994,0.7998 -0.4,0.2 -0.9002,0.30078 -1.4502,0.30078 -0.6,0 -1.2002,-0.10039 -1.7002,-0.40039 -0.5,-0.25 -0.8996,-0.6002 -1.0996,-0.9502 -0.1,-0.6 -0.10058,-1.0998 -0.10058,-1.5498 h -0.6992 c 0,1.35 -0.1,2.3002 -0.25,2.9502 0.65,0.3 1.2498,0.5502 1.7998,0.7002 0.55,0.15 1.1994,0.19922 1.8994,0.19922 0.95,0 1.7502,-0.149415 2.4502,-0.399415 0.4,-0.15 0.85,-0.449805 1.25,-0.7998 0.4,-0.35 0.7002,-0.7006 0.9502,-1.1006 0.3,-0.55 0.4502,-1.1994 0.4502,-1.8994 0,-0.4 -0.0504,-0.8006 -0.15039,-1.1006 -0.1,-0.35 -0.24941,-0.5996 -0.39942,-0.8496 -0.15,-0.2 -0.40039,-0.400585 -0.6504,-0.6006 -0.3,-0.15 -0.6496,-0.29922 -1.0996,-0.44922 -0.19999,-0.05 -0.5504,-0.100195 -1.1504,-0.200195 -0.6,-0.1 -1.0496,-0.2 -1.3496,-0.25 -0.44999,-0.1 -0.75,-0.250585 -1,-0.350585 -0.19999,-0.15 -0.4,-0.299805 -0.5,-0.5498 -0.1,-0.25 -0.20019,-0.5493 -0.20019,-0.8994 0,-0.5 0.19941,-1.0006 0.6494,-1.3506 0.4,-0.4 1.0008,-0.5996 1.8008,-0.5996 0.55,0 1.0492,0.099805 1.4492,0.299805 0.45,0.2 0.7504,0.40039 0.9004,0.6504 0.05,0.25 0.0496,0.7492 0.0996,1.3994 h 0.7002 c 0,-0.6002 0.0506,-1.0494 0.10058,-1.3994 0.05,-0.35 0.0994,-0.7006 0.14942,-1.1006 l -0.0498,-0.200195 c -0.4,-0.2 -0.9,-0.34922 -1.5,-0.44922 -0.55,-0.1 -1.15,-0.15039 -1.75,-0.15039 L 176.6799,2.1612 Z m 33.9005,0 c -0.35,0.1 -0.6502,0.15 -0.9502,0.25 l -1.7998,0.34961 v 0.6504 c 0.45,0 0.7,-1.953e-4 0.75,0.049805 0.1,0.05 0.29961,0.249805 0.5996,0.5498 0.4,0.45 0.9004,1.0997 1.4004,1.8496 0.6,0.95 1.1502,1.9004 1.7002,2.9004 0.2,0.4 0.34961,0.6998 0.34961,0.7998 v 1.600599 c 0,0.45 2e-4,0.9994 -0.0498,1.6494 0,0.3 -0.0496,0.45 -0.0996,0.5 -0.05,0.05 -0.1,0.10039 -0.25,0.15039 -0.1,0.05 -0.5004,0.04961 -1.1504,0.09961 v 0.75 c 0.9,-0.05 1.7496,-0.0498 2.5996,-0.0498 0.9,0 1.8502,-1.95e-4 2.9502,0.0498 v -0.75 c -0.65,0 -0.9994,-0.0498 -1.1494,-0.0498 -0.1,-0.05 -0.2,-0.10039 -0.25,-0.15039 -0.05,-0.05 -0.10039,-0.24961 -0.15039,-0.5996 -0.05,-0.35 -0.0498,-0.8496 -0.0498,-1.5996 V 9.7110195 c 0,-0.3 -1.9e-4,-0.5004 0.0498,-0.6504 0.05,-0.2 0.1,-0.399415 0.25,-0.6494 0.2,-0.35 0.7,-1.1504 1.5,-2.4004 0.8,-1.25 1.55,-2.35 2.25,-3.25 v -0.40039 h -1.3496 c -0.1,0.15 -0.25059,0.5008 -0.6006,1.0508 -0.9,1.6 -1.4496,2.5496 -1.5996,2.8496 l -1.1006,1.75 c -0.15,-0.3 -0.5492,-1.0996 -1.1992,-2.3496 -0.4,-0.8001 -0.8,-1.5006 -1.25,-2.1006 -0.3,-0.4 -0.5004,-0.6996 -0.6504,-0.8496 -0.15,-0.15 -0.4,-0.3 -0.75,-0.5 V 2.161225 Z m -109.7,0.149415 v 0.7002 c 0.6,0.05 0.9506,0.09961 1.1006,0.09961 0.15,0.05 0.2,0.10039 0.25,0.15039 0.05,0.05 0.0994,0.149805 0.14941,0.299805 0.05,0.15 0.0498,0.399805 0.0498,0.7998 l 0.0508,2.5 v 2.75 c 0,0.75 -0.001,1.3506 -0.0508,1.8506 -0.05,0.85 -0.0996,1.3496 -0.0996,1.5996 -0.05,0.15 -0.0496,0.249805 -0.0996,0.299805 -0.05,0.05 -0.10039,0.100585 -0.15039,0.100585 -0.1,0.05 -0.5004,0.04961 -1.1504,0.09961 v 0.7002 c 0.95,-0.05 1.7,-0.04981 2.25,-0.04981 0.15,0 0.7506,-1.95e-4 1.8506,0.04981 v -0.7002 h -0.15039 c -0.15,0 -0.4498,1.95e-4 -0.7998,-0.04981 -0.15,0 -0.2498,-0.04961 -0.2998,-0.09961 -0.05,-0.05 -0.10059,-0.10039 -0.10059,-0.15039 -0.05,-0.15 -0.0996,-0.5502 -0.0996,-1.2002 -0.05,-0.95 -0.0498,-1.9 -0.0498,-2.75 v -4.25 c 3.35,4.1002 5.95,7.2 7.8,9.25 0.5,0.05 1.0002,0.15 1.4502,0.25 l 0.0996,-0.09961 c -0.1,-0.8 -0.0996,-3.1004 -0.0996,-6.9005 0,-0.5 -1.9e-4,-1.25 0.0498,-2.25 0,-1.0002 0.10039,-1.6502 0.15039,-1.9502 0,-0.05 0.0496,-0.09961 0.0996,-0.09961 0.15,-0.1 0.55,-0.15039 1.25,-0.15039 V 2.4111 c -0.9,0.05 -1.6004,0.049805 -2.1504,0.049805 -0.6,0 -1.2494,1.953e-4 -1.8994,-0.049805 v 0.6992 c 0.75,0 1.1996,0.05039 1.3496,0.15039 0.1,0.05 0.10039,0.20039 0.15039,0.40039 0.05,0.55 0.0996,2.3495 0.0996,5.3995 v 1.9502 c -0.8,-0.8 -1.8,-1.9496 -3,-3.3496 -1.65,-2 -3.1,-3.7507 -4.25,-5.301 l -0.7998,0.05078 -1.25,0.049805 c -0.35,0 -0.8496,1.953e-4 -1.5996,-0.049805 L 100.8806,2.31038 Z m 17.2,0 v 0.75 c 0.6,0 0.9996,0.050585 1.0996,0.100585 0.1,0.05 0.15019,0.049609 0.20019,0.09961 0.05,0.05 0.0506,0.10039 0.10059,0.15039 0.05,0.2 0.0496,0.6496 0.0996,1.3496 0,0.3 0.0498,1.0502 0.0498,2.2002 v 3.5498 c 0,0.6 -0.0496,1.2004 -0.0996,1.9004 -0.05,0.45 -0.0498,0.7498 -0.0498,0.7998 0,0.05 -0.0506,0.09942 -0.10059,0.149415 -0.05,0.05 -0.15,0.05058 -0.25,0.100585 -0.1,0 -0.45,0.0498 -1,0.0498 v 0.75 c 0.7,-0.05 1.5502,-0.0498 2.4502,-0.0498 1.05,0 2.0502,-1.96e-4 2.9502,0.0498 v -0.75 c -0.55,0 -0.9,-0.0498 -1,-0.0498 -0.1,0 -0.2,-0.05058 -0.25,-0.100585 -0.05,-0.05 -0.10058,-0.09922 -0.10058,-0.19922 -0.05,-0.15 -0.0996,-0.5504 -0.0996,-1.1504 v -1.5498 -3.4502 c 0,-0.1 -2e-4,-0.85 0.0498,-2.25 0,-0.4 -2e-4,-0.6996 0.0498,-0.8496 0,-0.25 0.0506,-0.45078 0.10058,-0.5508 0,-0.05 0.0496,-0.09961 0.0996,-0.09961 0.05,-0.05 0.15,-0.09961 0.25,-0.09961 0.1,-0.05 0.44981,-0.05078 1.0498,-0.05078 v -0.75 c -0.95,0.05 -1.8992,0.05078 -2.9492,0.05078 -0.95,0 -1.7502,-7.8e-4 -2.4502,-0.05078 L 118.08037,2.31059 Z m 8.9005,0 v 0.75 c 0.55,0 0.8998,0.05039 1.0498,0.15039 0.1,0.05 0.3,0.3 0.5,0.75 0.2,0.45 0.8,1.7998 1.75,4.0498 l 1.2002,2.9004 c 0.45,1.05 0.8994,2.1994 1.3994,3.3994 h 1.2998 c 0.35,-0.95 1,-2.6502 2,-4.9502 l 1.1504,-2.75 0.5996,-1.3994 c 0.5,-1.15 0.8002,-1.8002 0.9502,-1.9502 0.1,-0.05 0.40019,-0.150195 0.9502,-0.200195 v -0.75 l -1.8496,0.049805 -2.1504,-0.049805 v 0.75 c 0.25,0 0.5502,0.049805 0.9502,0.049805 0.15,0 0.24981,0.05078 0.2998,0.05078 0.05,0 0.0996,0.049609 0.0996,0.09961 0.05,0.05 0.0508,0.100195 0.0508,0.200195 v 0.200195 c -0.05,0.25 -0.2002,0.6994 -0.4502,1.3994 -0.35,0.9502 -0.5506,1.5006 -0.6006,1.6006 l -1.8994,4.699201 -2.1504,-5.250001 c 0,-0.05 -0.0498,-0.099415 -0.0498,-0.149415 0,-0.05 -0.14961,-0.300685 -0.34961,-0.8506 -0.4,-0.9 -0.5508,-1.4496 -0.5508,-1.5996 0,-0.1 0.0506,-0.150195 0.10058,-0.200195 0.05,-0.05 0.1,-0.09961 0.25,-0.09961 0.2,-0.05 0.5498,-0.100585 1.0498,-0.100585 v -0.75 l -3.0498,0.05078 c -0.3,0 -1.15,-7.8e-4 -2.5,-0.05078 l -0.0498,-0.049805 z m 23.6495,0 -1.75,0.049805 c -0.95,0 -1.7996,0.05078 -2.5996,0.05078 h -1.1006 -2 v 0.6494 c 0.65,0.05 1.1,0.10039 1.25,0.15039 0.05,0.05 0.10039,0.049414 0.15039,0.149415 0.05,0.15 0.10039,0.5502 0.15039,1.2002 v 1.6504 3.849601 c 0,0.449999 -0.001,1.1504 -0.0508,2.1504 0,0.55 -0.0496,0.8994 -0.0996,1.1494 -0.2,0.15 -0.49961,0.349999 -0.8496,0.5 V 14.3106 c 1.75,-0.05 2.6996,-0.04981 2.8496,-0.04981 0.5,0 1.4498,-1.95e-4 2.7998,0.04981 l 1.4004,0.0498 c 0.65,0 1.1998,1.95e-4 1.5498,-0.0498 l 0.0996,-0.09961 c 0,-0.75 0.0504,-1.649801 0.15039,-2.7998 h -0.7002 c -0.1,0.75 -0.24961,1.2498 -0.34961,1.5498 -0.05,0.1 -0.0506,0.149415 -0.10059,0.149415 -0.1,0.05 -0.44922,0.150389 -0.9492,0.150389 -0.5,0.05 -1.1002,0.0498 -1.7002,0.0498 -0.65,0 -1.1506,1.95e-4 -1.6006,-0.0498 0,-0.3 -0.0498,-0.599999 -0.0498,-1 V 8.6611945 c 0.35,-0.05 0.8004,-0.05078 1.4004,-0.05078 0.6,0 1.1498,0.050585 1.5498,0.100585 0.2,0.05 0.29961,0.100195 0.34961,0.200195 0.1,0.15 0.15039,0.5492 0.15039,1.1992005 h 0.7002 l -0.0498,-1.8496005 0.0498,-1.8496 h -0.7002 c 0,0.5 -0.0496,0.8496 -0.0996,1.0996 -0.05,0.1 -0.0506,0.150195 -0.10058,0.200195 -0.05,0.05 -0.24981,0.049805 -0.5498,0.049805 -0.8,0 -1.3004,0.049805 -1.4004,0.049805 -0.4,0 -0.7992,1.95e-4 -1.1992,-0.049805 v -1.75 c 0,-1 0.0494,-1.8002 0.14941,-2.4502 0.55,-0.05 1.0498,-0.049805 1.5498,-0.049805 0.55,0 1.1004,0.049609 1.6504,0.09961 0.4,0.05 0.6002,0.10039 0.7002,0.15039 0.05,0.05 0.0496,0.10039 0.0996,0.15039 0.05,0.15 0.0506,0.55 0.10059,1.25 h 0.6494 c 0.05,-0.75 0.0506,-1.15 0.10058,-1.25 l 0.14942,-1.25 -0.0498,-0.100585 c -0.15,-0.05 -0.19981,-0.049805 -0.29981,-0.049805 -0.6,0 -1.05,-0.049805 -1.25,-0.049805 l -0.15039,-0.15039 z m 12.1505,0 c -0.45,0 -1.05,-1.953e-4 -1.75,0.049805 -0.45,0.05 -0.9498,0.05078 -1.5498,0.05078 h -1.6006 c -0.8,-0.05 -1.2496,-0.05078 -1.3496,-0.05078 v 0.7002 c 0.7,0.05 1.1,0.10039 1.25,0.15039 l 0.14941,0.149415 c 0.05,0.15 0.10059,0.5508 0.10059,1.3008 l 0.0498,1.7998 v 3.1494 l -0.0996,2.499999 c 0,0.45 -0.0506,0.800001 -0.10059,1 0,0.1 -0.0496,0.2 -0.0996,0.25 -0.05,0.05 -0.0504,0.100585 -0.15039,0.100585 -0.1,0.05 -0.49941,0.04961 -1.1494,0.09961 v 0.75 c 0.75,-0.05 1.5492,-0.04981 2.4492,-0.04981 1,0 2.0002,-1.95e-4 2.9502,0.04981 v -0.75 c -0.55,0 -0.85,1.94e-4 -1,-0.04981 -0.1,0 -0.2,-0.04961 -0.25,-0.09961 l -0.0996,-0.100585 c -0.05,-0.1 -0.10058,-0.29961 -0.10058,-0.599601 0,-0.15 -0.0498,-0.85 -0.0498,-2 0,-0.949999 -0.0498,-1.850199 -0.0498,-2.700199 0,-0.55 -2e-4,-1.6 0.0498,-3.2002 0,-0.7 0.0498,-1.1994 0.0498,-1.3994 0.25,-0.05 0.5508,-0.05078 0.8008,-0.05078 0.6,0 1.05,0.05039 1.25,0.15039 0.35,0.15 0.6992,0.4 0.9492,0.75 0.25,0.35 0.40039,0.7496 0.40039,1.2998 0,0.5 -0.0996,1.0004 -0.34961,1.4004 -0.25,0.4 -0.5506,0.6994 -0.8506,0.8994 -0.35,0.15 -0.8498,0.250195 -1.5498,0.200195 l -0.0996,0.299805 c 0.15,0.15 0.35,0.30078 0.5,0.5508 0.35,0.5 0.7996,1.149799 1.3496,2.0498 l 1.8496,3 c 0.1,0.199999 0.15019,0.349999 0.20019,0.5 0.45,0 0.9006,-0.0498 1.3506,-0.0498 0.40001,0 0.9994,-1.95e-4 1.8994,0.0498 v -0.75 c -0.25,0 -0.4498,1.96e-4 -0.5498,-0.0498 -0.1,-0.05 -0.1998,-0.100195 -0.2998,-0.200196 -0.1,-0.1 -0.3498,-0.449999 -0.7998,-1 -0.05,-0.05 -0.20059,-0.300584 -0.6006,-0.8506 l -1.3496,-1.949199 c -0.05,-0.05 -0.0506,-0.10039 -0.10059,-0.15039 -0.05,-0.05 -0.1498,-0.2 -0.2998,-0.5 -0.2,-0.25 -0.35,-0.5 -0.5,-0.75 0.9,-0.35 1.5502,-0.7996 1.9502,-1.3496 0.4,-0.55 0.6504,-1.2004 0.6504,-1.8506 0,-0.6 -0.1502,-1.1 -0.4502,-1.5 -0.3,-0.4 -0.7004,-0.6498 -1.1504,-0.7998 -0.45,-0.15 -1.1,-0.200195 -2,-0.200195 l 0.15039,-0.25 z m 22.1495,0 v 0.75 c 0.6,0 1.0006,0.050585 1.1006,0.100585 0.1,0.05 0.15019,0.049609 0.20019,0.09961 0.05,0.05 0.0496,0.10039 0.0996,0.15039 0.05,0.2 0.0996,0.6496 0.0996,1.3496 v 2.2002 3.5498 c 0,0.6 2e-4,1.2004 -0.0498,1.9004 -0.05,0.45 -0.0496,0.7498 -0.0996,0.7998 0,0.05 -0.0506,0.09942 -0.10058,0.149415 -0.05,0.05 -0.15,0.05058 -0.25,0.100585 -0.1,0 -0.45,0.0498 -1,0.0498 v 0.75 c 0.7,-0.05 1.5502,-0.0498 2.4502,-0.0498 1.05,0 2.0502,-1.96e-4 2.9502,0.0498 v -0.75 c -0.55,0 -0.9,-0.0498 -1,-0.0498 -0.1,0 -0.2,-0.05058 -0.25,-0.100585 -0.05,-0.05 -0.0996,-0.09922 -0.0996,-0.19922 -0.05,-0.15 -0.10059,-0.5504 -0.10059,-1.1504 v -1.5498 -3.4502 c 0,-0.1 -1.9e-4,-0.85 0.0498,-2.25 0,-0.4 0.001,-0.6996 0.0508,-0.8496 0,-0.25 0.0496,-0.45078 0.0996,-0.5508 0,-0.05 0.0496,-0.09961 0.0996,-0.09961 0.05,-0.05 0.1002,-0.09961 0.2002,-0.09961 0.1,-0.05 0.4498,-0.05078 1.0498,-0.05078 v -0.75 c -0.95,0.05 -1.8992,0.05078 -2.9492,0.05078 -0.95,0 -1.7502,-7.8e-4 -2.4502,-0.05078 L 184.93041,2.31059 Z m 8.95,0 -0.0996,0.100585 c 0.05,0.3 0.0496,0.5498 0.0996,0.7998 0,0.15 0.0498,0.8 0.0498,2 h 0.7002 c 0,-0.5 0.0504,-0.9506 0.15039,-1.3506 0.05,-0.15 0.0496,-0.249805 0.0996,-0.299805 0.05,-0.05 0.0998,-0.04961 0.2998,-0.09961 0.45,-0.05 1.0004,-0.049805 1.6504,-0.049805 h 1.25 v 2.3496 5.099501 c 0,1.25 -0.0496,1.9502 -0.0996,2.2002 -0.05,0.15 -0.15,0.300585 -0.25,0.350585 -0.15,0.05 -0.5502,0.09942 -1.2002,0.149415 v 0.7002 c 1.05,-0.05 1.9998,-0.0498 2.7998,-0.0498 0.75,0 1.6998,-1.96e-4 2.7998,0.0498 v -0.7002 c -0.7,0 -1.1002,-0.04941 -1.2002,-0.149415 -0.15,-0.05 -0.2,-0.200585 -0.25,-0.350585 -0.05,-0.25 -0.0996,-1.0002 -0.0996,-2.2002 V 5.7607805 c 0,-1.35 -1.9e-4,-2.1496 0.0498,-2.3496 h 1.2002 c 0.65,0 1.2002,-1.953e-4 1.7002,0.049805 0.15,0 0.25,0.049805 0.25,0.049805 0.05,0.05 0.0996,0.14961 0.0996,0.34961 0.05,0.4 0.10059,0.8508 0.10059,1.3008 h 0.6992 c 0,-1.2 0.001,-1.8506 0.0508,-1.8506 0,-0.25 0.0496,-0.5994 0.0996,-0.8994 l -0.1,-0.1006 c -0.25,0.05 -0.5508,0.049805 -0.8008,0.049805 h -2.8496 -3.4502 -2.8496 c -0.3,0 -0.6006,-0.049805 -0.8506,-0.049805 h -0.0498 z m -155.85,0.049805 v 7.6505 h 2.9004 v 30.249999 h -2.9004 v 7.700001 h 14.3995 v -7.700001 h -2.7998 V 28.61042 h 10.75 v -7.699 h -10.75 v -10.9005 h 11.8 v 4.2002 h 7.801 V 2.3606195 h -31.1505 -0.0498 z m 46.55,0 v 0.6504 l 1.1504,0.15039 0.19922,0.19922 c 0.05,0.1 0.100585,0.30078 0.100585,0.5508 0.05,0.65 0.0498,1.3492 0.0498,2.1494 v 2.1504 1.6494 c 0,0.899999 -1.95e-4,1.450399 0.0498,1.6504 0.05,0.349999 0.15059,0.6998 0.350585,1.049799 0.200005,0.35 0.449805,0.700201 0.7998,0.950201 0.35,0.3 0.7996,0.500199 1.3496,0.7002 0.75,0.25 1.5504,0.34961 2.4004,0.34961 0.75,0 1.4002,-0.05 1.9502,-0.25 0.55,-0.15 1.0492,-0.400195 1.4492,-0.7002 0.4,-0.300001 0.7502,-0.649801 0.9502,-1.0498 0.25,-0.4 0.350195,-0.849399 0.450195,-1.3994 0.05,-0.55 0.150395,-1.1006 0.15039,-1.6006 v -2 c 0,-0.6 -1.95e-4,-1.3993 0.0498,-2.3994 0.05,-1 0.09941,-1.6 0.149415,-1.75 0.05,-0.15 0.10039,-0.2 0.15039,-0.25 0.15,-0.1 0.45,-0.100585 1,-0.100585 v -0.7002 l -1.9004,0.05078 h -0.25 c -0.2,0 -0.7996,-7.8e-4 -1.8496,-0.05078 v 0.7002 c 0.65,0 1.05,0.10039 1.25,0.15039 0.1,0.05 0.150195,0.100195 0.200195,0.200195 0.05,0.15 0.09941,0.5998 0.149415,1.2998 v 2.75 1.75 c 0,1.2 -0.0998,2.0502 -0.299805,2.4502 -0.2,0.45 -0.55,0.7998 -1,1.0498 -0.45,0.25 -1.0994,0.399414 -1.8994,0.399414 -0.7,0 -1.2502,-0.0998 -1.7002,-0.299804 -0.45,-0.2 -0.75,-0.449805 -1,-0.7998 -0.2,-0.35 -0.35039,-0.7498 -0.40039,-1.299799 0,-0.25 -0.0498,-0.900401 -0.0498,-1.900401 v -1 -1.9502 c 0,-1.1999 0.05039,-1.9496 0.15039,-2.3496 0.05,-0.15 0.09941,-0.249805 0.149415,-0.299805 0.15,-0.1 0.5504,-0.15039 1.1504,-0.15039 v -0.7002 h -0.350585 l -1.1494,0.05078 h -1.1504 l -2.7998,-0.05078 z m -62.1,0.05078 v 7.6495 h 2.79885 v 18.1505 c 0,7.599999 -0.8996,11.249999 -6.3495,11.249999 -5.4499,0 -6.3495,-3.65 -6.3495,-11.249999 V 10.0607 h 2.79885 V 2.4611995 H 0.93007 V 10.0112 h 2.8496 v 20.7 c 0,4.499999 3.907e-4,8.249499 2.1504,11.599499 2.4,3.75 6.7,6.1505 13,6.1505 11.1,0 15.051,-5.799999 15.051,-17.749999 v -20.7 h 2.89845 V 2.4116995 h -14.3985 z m 211.45,3.3996 c -0.7,0 -1.2994,0.15039 -1.8994,0.40039 -0.6,0.25 -1.1504,0.6 -1.6504,1 -0.5,0.4 -0.8498,0.7002 -1.0498,0.9502 -0.3,0.4 -0.5996,1.0494 -0.8496,1.899401 -0.25,0.9 -0.40039,1.6998 -0.40039,2.5498 0,0.599999 0.1,1.1006 0.25,1.6006 0.2,0.5 0.5002,0.849399 0.9502,1.1494 0.45,0.3 1.0496,0.400389 1.8496,0.400389 0.65,0 1.2498,-0.0998 1.7998,-0.299804 0.55,-0.2 1.1004,-0.5006 1.6504,-0.8506 0.55,-0.4 1,-0.7498 1.25,-1.0498 0.35,-0.45 0.7,-1.1002 1,-1.9502 0.3,-0.85 0.45019,-1.699601 0.45019,-2.599601 0,-0.45 -0.0504,-0.85 -0.15039,-1.25 -0.1,-0.4 -0.3,-0.7002 -0.5,-0.9502 -0.25,-0.25 -0.5998,-0.499415 -1.0498,-0.6494 -0.45,-0.15 -0.9998,-0.25 -1.5498,-0.25 L 233.9304,5.81079 Z m -0.7744,0.9033 c 0.49,0.007 0.9296,0.202875 1.2246,0.5469 0.3,0.35 0.45019,0.95 0.45019,1.75 0,0.95 -0.15039,1.950199 -0.40039,2.950199 -0.2,0.7 -0.39961,1.2494 -0.5996,1.6494 -0.25,0.400001 -0.5,0.7004 -0.75,0.9004 -0.25,0.2 -0.6002,0.299805 -0.9502,0.299805 -0.55,0 -0.9998,-0.199805 -1.2998,-0.5498 -0.3,-0.35 -0.45019,-0.95 -0.45019,-1.75 0,-0.9 0.15019,-1.9 0.45019,-2.999999 0.3,-1.1 0.65,-1.8502 1,-2.2002 0.345,-0.3935 0.8352,-0.5897 1.3252,-0.5967 z m -87.125,12.447499 c -2.5,0 -4.7506,0.34961 -6.8505,1.0996 -1.65,0.55 -3.1498,1.4998 -4.5498,2.7998 -1.4,1.300002 -2.5,2.850201 -3.25,4.7002 -0.75,1.850001 -1.0996,4 -1.0996,6.500001 0,3.2 0.6494,5.9 1.8994,8.049999 1.25,2.15 2.9504,3.8004 5.1505,4.9004 2.2,1.1 4.7996,1.6494 7.8495,1.6494 2.8,0 5.351,-0.44961 7.551,-1.3496 1.6,-0.7 3.0498,-1.6504 4.2998,-2.9004 1.25,-1.25 2.1996,-2.699599 2.8496,-4.3496 0.9,-2.2 1.2998,-4.5496 1.2998,-7.0995 0,-1.5 -0.14922,-2.9004 -0.44922,-4.1504 -0.3,-1.25 -0.7506,-2.4002 -1.3506,-3.4502 -0.6,-1.05 -1.4496,-2.0498 -2.5996,-3.0498 -1.15,-1 -2.4502,-1.7498 -3.9502,-2.2998 -2,-0.7 -4.2502,-1.0498 -6.7,-1.0498 h -0.0996 z m 99.9,0.299805 0.0508,0.0498 -1.8008,4.6504 -5.3,13.0995 c -1,2.5 -1.6998,4.149999 -2.0498,5 -0.75,1.799999 -1.2504,2.8496 -1.4004,3.0996 -0.15,0.3 -0.29922,0.5006 -0.44922,0.6006 -0.15,0.15 -0.35078,0.249805 -0.5508,0.299805 -0.2,0.05 -0.8492,0.100195 -1.9492,0.200195 v 1.7002 l 4.6494,-0.15039 4.7002,0.15039 v -1.7002 c -1.6,-0.05 -2.6004,-0.150585 -2.9004,-0.350585 -0.2,-0.15 -0.34961,-0.349221 -0.34961,-0.6992 0,-0.45 0.35,-1.6 1,-3.5 l 0.9004,-2.4502 h 10.5 l 1.75,4.4502 c 0.3,0.75 0.44922,1.349401 0.44922,1.6494 0,0.25 -0.0998,0.450584 -0.29981,0.6006 -0.2,0.1 -1.1498,0.200001 -2.7998,0.25 v 1.6992 l 7.1505,-0.149415 5.6495,0.149415 v -1.6992 c -0.4,-0.05 -0.6994,-0.05058 -0.8994,-0.100585 -0.65,-0.05 -1.0502,-0.09942 -1.2002,-0.149415 -0.15,-0.05 -0.30039,-0.15 -0.40039,-0.25 -0.1,-0.1 -0.24941,-0.300781 -0.39941,-0.5508 l -0.8008,-1.849601 -1.25,-2.799799 -9.0995,-21.25 h -2.9004 z m -144.3,0.0498 0.0498,0.09961 -9.8,0.200195 -7.25,-0.149415 v 1.6992 c 1.3,0.100001 2.1504,0.150195 2.4004,0.200196 0.3,0.05 0.449805,0.150195 0.5498,0.200195 0.1,0.05 0.150195,0.19961 0.200195,0.349609 0.1,0.45 0.200195,1.150201 0.200195,2.2002 0.150005,3.6 0.19922,5.5 0.19922,5.7 v 8.45 c 0,0.7 3.9e-4,1.8998 -0.09961,3.5498 -0.05,1.65 -0.15039,2.6502 -0.15039,2.9502 -0.05,0.55 -0.149805,0.8998 -0.299805,1.0498 -0.1,0.1 -0.199805,0.200195 -0.299805,0.200195 -0.25,0.1 -1.15,0.150195 -2.75,0.200195 v 1.6992 c 2.5,-0.1 4.35,-0.149415 5.5,-0.149415 l 8,0.149415 v -1.5996 c -1.9,-0.15 -2.9502,-0.24961 -3.2002,-0.34961 -0.25,-0.1 -0.4,-0.200585 -0.5,-0.350585 -0.15,-0.2 -0.24961,-0.95 -0.34961,-2.25 -0.05,-1.3 -0.100585,-3.55 -0.100585,-6.75 v -2.25 c 0.75,0 1.3004,-0.0498 1.6504,-0.0498 2.15,0 3.75,0.1 4.749995,0.25 0.4,0.1 0.65,0.20039 0.75,0.40039 0.2,0.35 0.29961,1.3498 0.34961,3.0498 h 1.8008 v -8.8 h -1.8008 c -0.05,1.2 -0.1,1.9498 -0.25,2.2998 -0.1,0.25 -0.19961,0.400195 -0.34961,0.450195 -0.45,0.15 -1.549595,0.25 -3.349595,0.25 -0.6,0 -1.75,-0.05039 -3.5,-0.15039 v -2.8496 c 0,-3.5 0.0492,-5.951 0.19922,-7.301 0.4,-0.05 1.1004,-0.04961 2.1504,-0.09961 1.05,-0.05 1.7004,-0.0498 1.9004,-0.0498 1.2,0 2.199595,0.0502 3.099595,0.200195 0.9,0.15 1.4502,0.3 1.7002,0.5 0.1,0.05 0.14942,0.09922 0.14942,0.19922 0.05,0.1 0.10039,0.45078 0.15039,1.0508 0.05,1.15 0.0996,1.8492 0.0996,2.1992 h 1.6504 c 0,-0.9 0.10019,-1.9494 0.20019,-3.1494 0.1,-1.2 0.24942,-2.2002 0.39942,-2.9502 l -0.14942,-0.299805 c -1.2,-0.15 -2.5004,-0.200195 -3.9004,-0.200195 z m 74.45,0.09961 c -1.1,0 -2.5004,0.05039 -4.1504,0.150391 -1,0.05 -2.2494,0.09961 -3.6494,0.09961 -1.65,0 -2.9506,1.96e-4 -3.8506,-0.0498 -1.85,-0.05 -2.95,-0.09961 -3.25,-0.09961 v 1.6494 c 1.65,0.100001 2.65,0.25039 3,0.400391 0.15,0.1 0.25078,0.19961 0.30078,0.349609 0.15,0.350001 0.2,1.3508 0.25,3.0508 l 0.0996,4.2998 v 7.55 l -0.15039,5.95 c -0.05,1.05 -0.0992,1.8994 -0.19922,2.3994 -0.05,0.3 -0.10039,0.450781 -0.15039,0.550801 -0.05,0.100001 -0.19961,0.14922 -0.34961,0.199219 -0.3,0.1 -1.2,0.150195 -2.75,0.200195 v 1.7998 c 1.8,-0.1 3.7494,-0.149415 5.8995,-0.149415 2.35,0 4.6998,0.04942 7.05,0.149415 v -1.7998 c -1.3,-0.05 -2.0996,-0.04961 -2.3496,-0.09961 -0.25,-0.05 -0.44961,-0.150195 -0.5996,-0.200196 -0.1,-0.1 -0.2,-0.199804 -0.25,-0.299804 -0.1,-0.25 -0.2,-0.75 -0.25,-1.5 -0.05,-0.4 -0.0506,-1.950001 -0.10059,-4.75 -0.05,-2.3 -0.0498,-4.4002 -0.0498,-6.450001 0,-1.299999 0.0504,-3.850199 0.15039,-7.699999 0.05,-1.7 0.0994,-2.7998 0.14942,-3.2998 0.65,-0.100001 1.3002,-0.150391 1.9502,-0.150391 1.45,0 2.4998,0.10078 3.0498,0.30078 0.9,0.350001 1.6002,0.9 2.2002,1.75 0.6,0.850001 0.9004,1.8496 0.9004,3.0996 0,1.25 -0.25059,2.349599 -0.8506,3.349599 -0.55,1 -1.2996,1.700801 -2.0996,2.050801 -0.85,0.4 -2.0502,0.549999 -3.7002,0.5 l -0.2002,0.6494 c 0.4,0.299999 0.8,0.7506 1.25,1.3506 0.85,1.2 1.9502,2.799599 3.2002,4.8496 l 4.3496,7.2 c 0.25,0.45 0.4,0.8494 0.5,1.1494 1.05,-0.05 2.15,-0.09961 3.25,-0.09961 0.95,0 2.4508,0.04961 4.5508,0.09961 v -1.7998 c -0.65,0 -1.0508,-0.04942 -1.3008,-0.149414 -0.2,-0.1 -0.44941,-0.25 -0.6494,-0.5 -0.25,-0.25 -0.8506,-1.050401 -1.8506,-2.4004 -0.05,-0.1 -0.49961,-0.75 -1.3496,-2 l -3.1504,-4.7002 c -0.1,-0.1 -0.15,-0.24961 -0.25,-0.34961 -0.05,-0.15 -0.35,-0.5004 -0.75,-1.1504 -0.45,-0.65 -0.7994,-1.2496 -1.1494,-1.8496 2.1,-0.8 3.7002,-1.8502 4.7002,-3.2002 1,-1.35 1.5498,-2.85 1.5498,-4.5 0,-1.4 -0.40058,-2.5498 -1.1006,-3.5498 -0.75,-0.95 -1.6492,-1.6004 -2.6992,-1.9004 -1.05,-0.3 -2.6508,-0.450195 -4.8008,-0.450195 h -0.34961 z m 45.1505,0 c -1.05,0 -2.4504,8.01e-4 -4.1504,0.05078 -2.4,0.1 -4.0504,0.149415 -4.9004,0.149415 l -7.3995,-0.149415 v 1.6494 c 1.45,0.2 2.3498,0.300586 2.5498,0.350585 0.25,0.05 0.4,0.15 0.5,0.25 0.05,0.05 0.10039,0.149805 0.15039,0.299805 0.15,0.55 0.2,1.7494 0.25,3.6494 0.05,3.45 0.0996,6.1005 0.0996,7.9005 v 3.3496 c 0,4.1 -0.0502,7.0505 -0.2002,8.8505 -0.45,0.3 -0.8994,0.5994 -1.3994,0.8994 -0.25,0.15 -0.45078,0.250585 -0.5508,0.350585 v 1 l 6.1505,-0.15039 6.05,0.15039 c 2.75,0 5.1,-0.30039 7,-0.9004 1.95,-0.6 3.7504,-1.6002 5.4005,-2.9502 1.65,-1.35 2.9494,-3.0496 3.8994,-5.0995 0.95,-2.05 1.4004,-4.3502 1.4004,-6.95 0,-2.05 -0.30019,-3.8996 -0.9502,-5.5995 -0.4,-1 -0.9494,-2.0006 -1.6494,-2.8506 -0.75,-0.9 -1.6502,-1.6498 -2.7002,-2.2998 -1.05,-0.65 -2.3,-1.0994 -3.75,-1.3994 -1.45,-0.3 -3.35,-0.450195 -5.75,-0.450195 l -0.0498,-0.100585 z m -114.05,0.05078 -0.0498,0.09961 c 0.015,0.001 0.0348,9.5e-4 0.0498,0.002 z m 0,0.10156 v 1.69825 c 1.75,0.05 2.8004,0.199415 3.1504,0.399416 0.15,0.1 0.2498,0.200585 0.2998,0.350584 0.1,0.350001 0.2,1.8494 0.25,4.3994 0,1 0.0498,3.6502 0.0498,7.950001 0,2.9 3.9e-4,5.4 -0.0996,7.5 -0.05,2.1 -0.10019,3.300399 -0.20019,3.650399 0,0.100001 -0.0496,0.150195 -0.0996,0.200196 -0.1,0.1 -0.2498,0.249414 -0.5498,0.399414 -0.65,0.4 -1.15,0.6498 -1.5,0.7998 v 1.0508 c 2.7,-0.1 4.7498,-0.200195 6.05,-0.200195 0.9,0 2.4494,-3.9e-4 4.6494,0.09961 2.95,0.05 4.5508,0.100585 4.8008,0.100585 1.75,0 3.0496,-0.05059 3.8496,-0.100585 0.4,-0.05 0.8004,-0.1 1.1504,-0.25 0,-0.25 0.0992,-1.0498 0.19922,-2.2998 l 0.5,-4.0996 c 0,-0.05 0.001,-0.30039 0.0508,-0.6504 h -1.6504 c -0.25,1.35 -0.5498,2.4998 -0.7998,3.5498 -0.1,0.4 -0.25059,0.65 -0.35059,0.75 -0.1,0.1 -0.45,0.2 -1,0.25 -1.55,0.25 -3.3494,0.350585 -5.3995,0.350585 -0.7,0 -1.9506,-0.05039 -3.8506,-0.15039 0,-0.4 2e-4,-1.5502 -0.0498,-3.4502 0,-1.9 2e-4,-3.85 -0.0498,-5.75 v -5.8495 c 0,-2.3 0.0496,-4.1504 0.0996,-5.6505 0.05,-1.5 0.1502,-2.35 0.2002,-2.5 0.05,-0.2 0.20059,-0.299415 0.35058,-0.399415 0.35,-0.2 1.2498,-0.300585 2.7998,-0.350585 v -1.7998 c -2.2,0.1 -4.55,0.15039 -7,0.15039 -2.18,0 -4.1606,-0.05044 -5.8505,-0.14844 z m 83.5,-0.10156 v 1.7998 c 1.5,0.05 2.3506,0.09942 2.6006,0.149416 0.25,0.05 0.4,0.149999 0.5,0.25 0.1,0.1 0.1502,0.25039 0.20019,0.40039 0.1,0.449999 0.15,1.5 0.25,3.25 0.05,0.75 0.0498,2.500199 0.0498,5.199999 v 8.5 c 0,1.4 -0.0504,2.8998 -0.15039,4.5498 -0.05,1.1 -0.0994,1.7504 -0.14941,1.9004 -0.05,0.1 -0.1002,0.24961 -0.2002,0.34961 -0.1,0.1 -0.30058,0.150195 -0.6006,0.200195 -0.2,0.05 -0.9992,0.09942 -2.4492,0.149415 v 1.8008 c 1.7,-0.1 3.6496,-0.15039 5.8495,-0.15039 2.5,0 4.8996,0.05039 7.0995,0.15039 v -1.8008 c -1.35,-0.05 -2.1492,-0.04961 -2.4492,-0.09961 -0.3,-0.05 -0.5006,-0.15 -0.6006,-0.25 -0.15,-0.1 -0.2498,-0.250195 -0.2998,-0.450195 -0.15,-0.4 -0.2002,-1.3002 -0.2002,-2.7002 l -0.0498,-3.75 v -8.199 c 0,-0.25 -3.9e-4,-2.0504 0.0996,-5.4005 0,-1 0.0508,-1.65 0.0508,-2 0.05,-0.65 0.0992,-1.0998 0.19922,-1.2998 0.05,-0.15 0.15,-0.250585 0.25,-0.350585 0.1,-0.1 0.30078,-0.14922 0.5508,-0.19922 0.25,-0.05 1.04921,-0.10039 2.4492,-0.15039 v -1.7998 c -2.2,0.1 -4.5498,0.149415 -7.05,0.149415 -2.2,0 -4.1994,-0.04941 -5.8995,-0.149415 l -0.0508,-0.04981 z m -45.0995,1.7998 c 1.75,0 3.1502,0.299415 4.2002,0.8994 1.05,0.599985 1.95,1.450801 2.75,2.5508 0.75,1.1 1.3498,2.4498 1.7998,4.0498 0.4,1.600001 0.6504,3.3002 0.6504,5.2 0,2.75 -0.40039,5.149501 -1.1504,7.0995 -0.75001,1.950001 -1.8004,3.3504 -3.1504,4.1504 -1.35,0.8 -2.8996,1.1992 -4.5996,1.1992 -1.85,0 -3.4498,-0.449805 -4.7998,-1.2998 -1.35,-0.849995 -2.4506,-2.3494 -3.3506,-4.3994 -0.85,-2.05 -1.2998,-4.7006 -1.2998,-7.8505 0,-2.2 0.30019,-4.1998 0.9502,-6.05 0.65,-1.8 1.6498,-3.1996 3.0498,-4.0996 1.4,-0.949999 3.0998,-1.4004 5.05,-1.4004 l -0.0996,-0.0498 z m 72.2,0.34961 c 2.8,0 4.8502,0.25 6.2,0.75 1.35,0.5 2.4994,1.3006 3.3994,2.3506 0.9,1.1 1.5502,2.3498 1.9502,3.7998 0.4,1.45 0.5996,2.95 0.5996,4.5 0,1.700001 -0.19961,3.3 -0.5996,4.75 -0.4,1.450001 -0.9504,2.699801 -1.6504,3.7998 -0.7,1.05 -1.45,1.8504 -2.25,2.4004 -0.8,0.55 -1.6492,0.95 -2.6992,1.25 -1.4,0.4 -3.0008,0.5996 -4.8008,0.5996 -1.15,0 -2.3496,-0.09961 -3.5996,-0.34961 -0.15,-1.299999 -0.2002,-3.95 -0.2002,-8 v -4.650399 c 0,-5.3 0.0502,-8.9495 0.2002,-10.8495 1.25,-0.199999 2.4002,-0.300779 3.4502,-0.300779 v -0.0498 z m 27.8995,4.7998 4.3506,10.551001 c -1.25,0.05 -2.6002,0.0498 -4.2002,0.0498 -1.6,0 -3.0496,1.97e-4 -4.3496,-0.0498 z"
     id="path838"
     style="fill:#ffffff;stroke-width:0.5" /></g></svg>
