<?xml version="1.0" encoding="UTF-8" standalone="no"?>
<!-- Created with Inkscape (http://www.inkscape.org/) -->

<svg
   width="230"
   height="120"
   viewBox="0 0 60.854166 31.75"
   version="1.1"
   id="svg1123"
   inkscape:version="1.1.2 (0a00cf5339, 2022-02-04, custom)"
   sodipodi:docname="minnesota.svg"
   xmlns:inkscape="http://www.inkscape.org/namespaces/inkscape"
   xmlns:sodipodi="http://sodipodi.sourceforge.net/DTD/sodipodi-0.dtd"
   xmlns="http://www.w3.org/2000/svg"
   xmlns:svg="http://www.w3.org/2000/svg">
  <sodipodi:namedview
     id="namedview1125"
     pagecolor="#ffffff"
     bordercolor="#666666"
     borderopacity="1.0"
     inkscape:pageshadow="2"
     inkscape:pageopacity="0.0"
     inkscape:pagecheckerboard="0"
     inkscape:document-units="mm"
     showgrid="false"
     fit-margin-top="0"
     fit-margin-left="0"
     fit-margin-right="0"
     fit-margin-bottom="0"
     lock-margins="true"
     units="px"
     inkscape:zoom="1"
     inkscape:cx="-144.5"
     inkscape:cy="18"
     inkscape:window-width="3440"
     inkscape:window-height="1369"
     inkscape:window-x="-8"
     inkscape:window-y="-8"
     inkscape:window-maximized="1"
     inkscape:current-layer="layer1"
     width="277px" />
  <defs
     id="defs1120" />
  <g
     inkscape:label="Layer 1"
     inkscape:groupmode="layer"
     id="layer1"
     transform="translate(-63.568942,-143.65198)">
    <g
       id="g5928"
       transform="matrix(0.01489275,0,0,0.01489275,67.537696,148.91775)"
       style="fill:#ffffff">
      <g
         transform="matrix(0.20874666,0,0,-0.20874666,0,1806.5867)"
         id="g14"
         style="fill:#ffffff">
        <path
           id="path16-3"
           style="fill:#ffffff;fill-opacity:1;fill-rule:nonzero;stroke:none"
           d="m 16294.3,2664.6 5.7,-210.56 h -25 c -25.1,135.45 -58.1,157.07 -235.6,157.07 v -628.22 c -1.1,-7.22 -1.3,-14.44 -0.6,-21.65 0.6,-7.22 2.1,-14.31 4.4,-21.21 2.2,-6.9 5.3,-13.48 9.1,-19.67 3.8,-6.14 8.3,-11.82 13.4,-17 5.2,-5.11 10.9,-9.58 17,-13.41 6.2,-3.83 12.8,-6.89 19.6,-9.13 7,-2.3 14,-3.77 21.3,-4.41 7.2,-0.64 14.4,-0.38 21.6,0.64 v -29.64 h -325.5 v 29.64 c 7.2,-1.02 14.4,-1.28 21.7,-0.64 7.2,0.64 14.3,2.11 21.2,4.41 6.9,2.24 13.4,5.3 19.6,9.13 6.2,3.83 11.9,8.3 17,13.41 5.2,5.18 9.6,10.86 13.5,17 3.8,6.19 6.8,12.77 9.1,19.67 2.3,6.9 3.8,13.99 4.4,21.21 0.6,7.21 0.4,14.43 -0.6,21.65 v 628.22 c -177.6,0 -210.6,-22.74 -235.7,-157.07 h -27.2 l 5.7,210.56 h 630.5 -4.6" />
      </g>
      <g
         transform="matrix(0.19937466,0,0,-0.19937466,0,1806.5867)"
         id="g18"
         style="fill:#ffffff">
        <path
           id="path20-1"
           style="fill:#ffffff;fill-opacity:1;fill-rule:nonzero;stroke:none"
           d="m 15917.5,2806.53 c -210.9,0 -382.5,-173.95 -382.5,-443.27 0,-269.31 171.6,-443.25 382.5,-443.25 210.9,0 382.5,172.74 382.5,443.25 0,270.52 -170.4,443.27 -382.5,443.27 z m 0,-834.09 c -159.7,0 -251.5,153.68 -251.5,393.23 0,239.5 91.8,393.19 251.5,393.19 159.7,0 252.6,-153.69 252.6,-393.19 0,-239.55 -91.7,-395.64 -252.6,-395.64 v 2.41" />
      </g>
      <g
         transform="matrix(0.21798666,0,0,-0.21798666,0,1806.5867)"
         id="g22"
         style="fill:#ffffff">
        <path
           id="path24-9"
           style="fill:#ffffff;fill-opacity:1;fill-rule:nonzero;stroke:none"
           d="m 16215,1865 -276.9,697.56 h -26.1 c 0,0 -232.2,-605.93 -260.5,-676.82 -2,-11.13 -5.7,-21.71 -11,-31.74 -5.3,-9.97 -12,-18.91 -20.1,-26.86 -8.1,-7.89 -17.3,-14.37 -27.4,-19.45 -10.1,-5.07 -20.7,-8.5 -31.9,-10.21 v -28.38 h 218 v 28.38 c -8.1,-0.49 -15.9,0.55 -23.6,3.06 -7.6,2.5 -14.6,6.36 -20.7,11.56 -6.2,5.13 -11.2,11.25 -15,18.34 -3.9,7.1 -6.3,14.62 -7.3,22.58 -1.5,9.85 -1.5,19.63 0,29.48 l 52.4,140.56 h 271.4 l 50,-136.22 c 4.8,-11.19 7.6,-22.81 8.8,-34.86 -0.7,-8.44 -3,-16.4 -7,-23.86 -4,-7.46 -9.2,-13.82 -15.8,-19.08 -6.6,-5.26 -14,-9.05 -22.2,-11.19 -8.1,-2.21 -16.4,-2.7 -24.8,-1.47 v -28.32 h 274.7 v 29.42 c -19.5,2.08 -36.9,9.23 -52.3,21.41 -15.4,12.23 -26.3,27.58 -32.7,46.11 z m -435.9,218 115.4,312.8 120,-320.38 h -231.1 l -4.3,7.58" />
      </g>
      <g
         transform="matrix(0.180048,0,0,-0.180048,0,1806.5867)"
         id="g26"
         style="fill:#ffffff">
        <path
           id="path28-6"
           style="fill:#ffffff;fill-opacity:1;fill-rule:nonzero;stroke:none"
           d="m 16260.5,2387.37 c -7,-27.18 -18.3,-52.43 -33.8,-75.76 -15.6,-23.32 -34.6,-43.39 -57,-60.2 -22.5,-16.81 -47.1,-29.4 -73.9,-37.77 -26.7,-8.37 -54.1,-12.07 -82.2,-11.03 h -150.4 c -55.4,0 -79.1,18.51 -79.1,64.64 v 337.84 h 204.5 c 17.5,0 34.4,-3.33 50.5,-10.07 16.1,-6.67 30.4,-16.22 42.8,-28.58 12.4,-12.37 21.9,-26.66 28.6,-42.81 6.7,-16.22 10.1,-33.03 10.1,-50.5 h 31.6 v 331.18 h -34.3 c 0.7,-8.44 0.6,-16.89 -0.4,-25.34 -1.1,-8.4 -2.9,-16.64 -5.7,-24.68 -2.8,-8.02 -6.3,-15.68 -10.7,-22.98 -4.4,-7.27 -9.5,-14.03 -15.2,-20.22 -5.8,-6.22 -12.2,-11.78 -19.2,-16.67 -6.9,-4.87 -14.3,-8.99 -22,-12.31 -7.9,-3.33 -16,-5.84 -24.3,-7.48 -8.3,-1.65 -16.7,-2.4 -25.2,-2.26 h -211.1 v 316.69 c 0.3,6.08 1.7,11.84 4.6,17.24 2.8,5.46 6.5,9.99 11.4,13.68 4.8,3.72 10.3,6.18 16.2,7.47 6,1.3 12,1.26 17.9,-0.14 h 182.1 c 11,1.29 21.8,1.44 32.8,0.43 11,-0.96 21.7,-3.08 32.2,-6.33 10.5,-3.21 20.6,-7.51 30.2,-12.85 9.7,-5.32 18.6,-11.6 27,-18.78 8.3,-7.2 15.8,-15.17 22.4,-23.93 6.7,-8.78 12.4,-18.12 17.1,-28.07 4.7,-9.94 8.3,-20.29 10.8,-30.98 2.6,-10.7 4,-21.54 4.3,-32.53 h 37 l -7.9,213.73 H 15540 v -34.31 c 8.1,1.25 16.4,1.5 24.6,0.75 8.3,-0.75 16.3,-2.5 24.3,-5.2 7.7,-2.71 15.2,-6.29 22.2,-10.8 6.9,-4.47 13.3,-9.73 18.9,-15.77 5.8,-6.01 10.7,-12.64 14.8,-19.87 4.1,-7.19 7.2,-14.81 9.5,-22.79 2.3,-7.98 3.6,-16.1 3.9,-24.41 0.3,-8.27 -0.5,-16.49 -2.1,-24.62 v -632.03 c 1.5,-8.07 2.1,-16.29 1.6,-24.51 -0.3,-8.22 -1.7,-16.29 -4,-24.22 -2.3,-7.92 -5.6,-15.48 -9.7,-22.58 -4,-7.19 -8.9,-13.7 -14.6,-19.7 -5.7,-6 -12,-11.26 -18.8,-15.78 -7,-4.44 -14.3,-8.07 -22.1,-10.81 -7.8,-2.81 -15.8,-4.59 -23.9,-5.4 -8.3,-0.89 -16.5,-0.82 -24.6,0.29 v -34.36 h 699.3 l 60.7,246.82 h -39.5 v -1.33" />
      </g>
      <g
         transform="matrix(0.18802,0,0,-0.18802,0,1806.5867)"
         id="g30"
         style="fill:#ffffff">
        <path
           id="path32-9"
           style="fill:#ffffff;fill-opacity:1;fill-rule:nonzero;stroke:none"
           d="m 16262.1,2977.28 26.6,-299.44 h -32.9 c -44.2,147.82 -126.4,237.53 -228.7,237.53 -8.5,0.89 -17,0.86 -25.5,-0.18 -8.5,-0.99 -16.8,-2.91 -24.9,-5.79 -8.1,-2.84 -15.7,-6.58 -22.9,-11.12 -7.3,-4.57 -14,-9.89 -20,-15.94 -6,-6.07 -11.4,-12.72 -15.9,-19.95 -4.6,-7.26 -8.3,-14.9 -11.2,-22.98 -2.8,-8.06 -4.7,-16.36 -5.8,-24.85 -1,-8.51 -1.1,-17.03 -0.1,-25.53 4.4,-38.38 17.9,-73.3 40.4,-104.73 22.4,-31.45 51,-55.5 85.9,-72.2 l 146.6,-98.53 c 37.7,-26.17 67.7,-59.36 89.9,-99.57 22.2,-40.21 34.3,-83.25 36.4,-129.13 0,-16.6 -1.6,-33.05 -4.8,-49.29 -3.3,-16.31 -8,-32.12 -14.4,-47.44 -6.3,-15.32 -14.1,-29.93 -23.3,-43.68 -9.3,-13.83 -19.8,-26.53 -31.5,-38.3 -11.7,-11.7 -24.5,-22.19 -38.3,-31.41 -13.8,-9.22 -28.3,-17.02 -43.6,-23.4 -15.4,-6.32 -31.2,-11.14 -47.5,-14.33 -16.3,-3.26 -32.7,-4.89 -49.3,-4.89 -64.8,10.07 -128.4,25.24 -190.8,45.45 -11.4,-1.84 -21.1,-7.02 -29.1,-15.46 -8,-8.43 -12.6,-18.43 -13.8,-29.99 h -18.9 l -38,302.02 h 32.9 c 55.6,-154.17 136.5,-245.15 252.7,-245.15 10,-0.35 19.9,0.28 29.9,1.99 9.8,1.77 19.5,4.46 28.7,8.22 9.3,3.76 18.1,8.37 26.5,13.97 8.3,5.61 15.9,12.06 23,19.29 6.9,7.16 13.1,15.04 18.4,23.55 5.3,8.51 9.7,17.44 13.1,26.87 3.4,9.43 5.8,19.15 7.2,29.08 1.4,9.92 1.7,19.92 1,29.92 0.1,16.95 -2.1,33.62 -6.6,50.07 -4.5,16.31 -11.1,31.77 -19.7,46.38 -8.7,14.61 -19.2,27.72 -31.4,39.43 -12.2,11.77 -25.9,21.62 -40.8,29.64 l -179.5,126.36 c -18.2,11.35 -34.6,24.85 -49.2,40.57 -14.7,15.7 -27,33.03 -37,52.02 -10,19.02 -17.3,38.96 -22,59.93 -4.6,20.94 -6.5,42.12 -5.5,63.57 -0.9,15.04 -0.2,29.98 2,44.88 2.3,14.92 6,29.41 11.3,43.52 5.2,14.09 11.9,27.53 20,40.24 8.1,12.71 17.4,24.42 27.9,35.19 10.5,10.79 22.1,20.36 34.6,28.71 12.6,8.36 25.8,15.32 39.8,20.91 14,5.58 28.4,9.66 43.3,12.22 14.8,2.58 29.7,3.58 44.8,3.02 60.6,0 126.3,-40.42 166.7,-40.42 5.6,-0.34 11.1,0.44 16.3,2.32 5.3,1.89 9.9,4.77 14,8.6 4.1,3.81 7.1,8.3 9.4,13.43 2.2,5.14 3.3,10.49 3.3,16.07 h 32.9 l -2.6,-1.27" />
      </g>
      <g
         transform="matrix(0.17018,0,0,-0.17018,0,1806.5867)"
         id="g34"
         style="fill:#ffffff">
        <path
           id="path36-1"
           style="fill:#ffffff;fill-opacity:1;fill-rule:nonzero;stroke:none"
           d="m 15974.8,3268.45 v -36.3 c 9.1,-0.26 18.3,-1.52 27.2,-3.75 9.1,-2.19 17.7,-5.37 26,-9.43 8.3,-4.08 16.1,-8.97 23.4,-14.72 7.2,-5.71 13.8,-12.16 19.7,-19.32 5.8,-7.12 10.9,-14.79 15.2,-23 4.2,-8.22 7.5,-16.82 9.9,-25.74 2.4,-8.9 3.9,-17.99 4.3,-27.24 0.5,-9.23 -0.1,-18.42 -1.5,-27.55 v -527.71 l -520.7,714.76 h -222 v -36.3 c 19,0.39 37.2,-3.38 54.6,-11.17 17.3,-7.83 32.2,-19.01 44.5,-33.5 l 29.3,-39.08 v -671.49 c 0,-114.47 -39,-174.49 -129.8,-174.49 v -36.35 h 319.7 v 36.35 c -8.9,-0.15 -17.7,0.55 -26.4,2.28 -8.7,1.72 -17.1,4.38 -25.3,7.91 -8.1,3.61 -15.8,7.91 -22.9,13.16 -7.3,5.25 -13.8,11.13 -19.7,17.79 -5.9,6.66 -11.1,13.86 -15.4,21.54 -4.4,7.76 -7.8,15.91 -10.4,24.37 -2.6,8.54 -4.2,17.24 -4.9,26.09 -0.7,8.85 -0.5,17.63 0.8,26.4 v 619.9 l 598.9,-811.15 h 20.9 v 806.95 c 0,127.05 51.6,174.49 129.8,174.49 v 36.3 h -319.7 -5.5" />
      </g>
      <g
         transform="matrix(0.15852,0,0,-0.15852,0,1806.5867)"
         id="g38"
         style="fill:#ffffff">
        <path
           id="path40-5"
           style="fill:#ffffff;fill-opacity:1;fill-rule:nonzero;stroke:none"
           d="m 15955.4,3508.88 v -38.98 c 9.8,-0.28 19.7,-1.62 29.3,-4.02 9.6,-2.36 18.9,-5.77 27.8,-10.13 8.9,-4.38 17.3,-9.63 25.1,-15.8 7.8,-6.13 14.9,-13.06 21.2,-20.74 6.3,-7.64 11.7,-15.87 16.3,-24.69 4.5,-8.83 8.1,-18.06 10.7,-27.64 2.5,-9.55 4.1,-19.3 4.6,-29.24 0.5,-9.91 -0.1,-19.77 -1.7,-29.58 v -566.53 l -559,767.35 H 15287 v -38.98 c 20.3,0.42 39.9,-3.63 58.5,-11.98 18.7,-8.42 34.6,-20.42 47.9,-35.97 l 31.4,-41.96 V 2659.1 c 0,-122.88 -42,-187.31 -139.4,-187.31 v -39.03 h 344.7 v 39.03 c -9.6,-0.34 -19.1,0.42 -28.5,2.19 -9.5,1.76 -18.6,4.54 -27.5,8.32 -8.8,3.71 -17.1,8.41 -24.9,13.97 -7.8,5.55 -15,11.94 -21.3,19.09 -6.4,7.15 -12,14.89 -16.8,23.22 -4.7,8.41 -8.5,17.15 -11.3,26.32 -2.8,9.17 -4.6,18.59 -5.4,28.1 -0.8,9.58 -0.4,19.09 0.8,28.59 v 665.49 l 643.1,-870.8 h 22.4 v 866.3 c 0,136.4 55.4,187.32 139.3,187.32 v 38.98 h -343.2 -1.4" />
      </g>
      <g
         transform="matrix(0.141132,0,0,-0.141132,0,1806.5867)"
         id="g42"
         style="fill:#ffffff">
        <path
           id="path44-5"
           style="fill:#ffffff;fill-opacity:1;fill-rule:nonzero;stroke:none"
           d="m 16300,4289.63 v 43.78 h -373.7 l -486.5,-1306.27 -489.9,1306.27 h -380.5 v -43.78 c 168.4,0 203.7,-87.51 203.7,-245.75 v -983.11 c 0,-227.21 -64,-286.16 -207,-286.16 v -43.74 h 493.2 v 45.44 c -138.1,0 -203.7,58.86 -203.7,286.16 v 1026.84 l 505,-1360.14 h 47.2 l 518.5,1385.38 V 3062.47 c 0,-227.3 -52.3,-286.16 -195.3,-286.16 v -43.83 h 565.6 v 43.83 c -138,0 -191.9,58.86 -191.9,286.16 v 1009.99 c -2.7,13.93 -3.7,27.9 -3.1,42.04 0.6,14.1 2.8,27.99 6.6,41.6 3.8,13.59 9.1,26.6 15.9,38.98 6.8,12.41 14.9,23.87 24.4,34.37 9.4,10.5 20,19.81 31.6,27.89 11.6,8.08 23.9,14.71 37,19.96 13.2,5.19 26.8,8.86 40.8,10.96 13.9,2.05 27.9,2.55 42.1,1.37" />
      </g>
      <g
         transform="matrix(0.14649466,0,0,-0.14649466,0,1806.5867)"
         id="g46"
         style="fill:#ffffff">
        <path
           id="path48-3"
           style="fill:#ffffff;fill-opacity:1;fill-rule:nonzero;stroke:none"
           d="m 16147.6,3603.91 c -1.5,10.25 -1.8,20.54 -0.9,30.87 0.9,10.29 3,20.36 6.3,30.22 3.2,9.8 7.6,19.18 13,27.98 5.4,8.78 11.9,16.88 19.1,24.23 7.4,7.29 15.4,13.67 24.2,19.13 8.9,5.41 18.2,9.76 28.1,13.06 9.7,3.25 19.8,5.31 30.2,6.23 10.3,0.89 20.6,0.59 30.9,-0.92 v 42.18 h -467.1 v -42.18 c 10.2,1.51 20.5,1.81 30.8,0.92 10.4,-0.92 20.4,-2.98 30.2,-6.23 9.9,-3.3 19.2,-7.61 28.1,-13.06 8.7,-5.46 16.8,-11.84 24.2,-19.13 7.3,-7.35 13.6,-15.4 19.1,-24.23 5.5,-8.8 9.7,-18.13 13,-27.98 3.3,-9.86 5.4,-19.93 6.3,-30.22 0.9,-10.33 0.6,-20.62 -0.9,-30.87 v -776.78 c 1.5,-10.29 1.8,-20.57 0.9,-30.85 -0.9,-10.38 -3,-20.39 -6.3,-30.31 -3.3,-9.74 -7.5,-19.12 -13,-27.94 -5.5,-8.74 -11.8,-16.84 -19.1,-24.22 -7.4,-7.28 -15.5,-13.65 -24.2,-19.11 -8.9,-5.46 -18.2,-9.83 -28.1,-13.02 -9.8,-3.36 -19.8,-5.36 -30.2,-6.27 -10.3,-0.91 -20.6,-0.64 -30.8,0.91 v -42.24 h 468.6 v 40.6 c -10.2,-1.46 -20.5,-1.82 -30.8,-0.91 -10.3,0.91 -20.4,3 -30.3,6.28 -9.8,3.19 -19.1,7.55 -27.9,13.01 -8.8,5.46 -16.9,11.83 -24.2,19.12 -7.4,7.37 -13.8,15.47 -19.1,24.21 -5.5,8.82 -9.9,18.2 -13.1,28.03 -3.2,9.83 -5.4,19.93 -6.2,30.22 -0.9,10.28 -0.7,20.57 0.8,30.85 v 778.42 h -1.6" />
      </g>
      <path
         id="path50-2"
         style="fill:#ffffff;fill-opacity:1;fill-rule:nonzero;stroke:none;stroke-width:0.133333"
         d="m 1736.44,1247.2694 c -42.0534,0 -76.2667,34.6866 -76.2667,88.384 0,53.6933 34.2133,88.3733 76.2667,88.3733 42.0533,0 76.2666,-34.68 76.2666,-88.3733 0,-53.6974 -33.9733,-88.384 -76.2666,-88.384 z m 0,166.304 c -31.8267,0 -50.36,-30.64 -50.36,-78.4 0,-47.7547 18.2933,-78.396 50.36,-78.396 32.0666,0 50.1333,30.6413 50.1333,78.396 0,47.76 -18.0667,78.88 -50.1333,78.88 v -0.48" />
      <path
         id="path52-1"
         style="fill:#ffffff;fill-opacity:1;fill-rule:nonzero;stroke:none;stroke-width:0.133333"
         d="m 1960.48,1250.3614 h -124.0267 v 6.1786 c 1.48,-0.2066 2.9467,-0.2333 4.4267,-0.077 1.4666,0.1467 2.9066,0.476 4.3066,0.9733 1.3867,0.4947 2.7067,1.1467 3.9467,1.9587 1.24,0.8107 2.3733,1.7573 3.3867,2.84 1,1.0813 1.88,2.268 2.6,3.564 0.7333,1.2867 1.2933,2.6467 1.6933,4.072 0.4,1.4293 0.6267,2.88 0.6933,4.36 0.04,1.4827 -0.08,2.952 -0.3733,4.4013 v 113.7947 c 0.2933,1.4533 0.4133,2.92 0.3733,4.4 -0.067,1.48 -0.2933,2.9333 -0.6933,4.3733 -0.4,1.4134 -0.96,2.7734 -1.6933,4.0667 -0.72,1.2933 -1.6,2.48 -2.6,3.56 -1.0134,1.08 -2.1467,2.0267 -3.3867,2.84 -1.24,0.8133 -2.56,1.4667 -3.9467,1.96 -1.4,0.4933 -2.84,0.8133 -4.3066,0.9733 -1.48,0.1467 -2.9467,0.1334 -4.4267,-0.08 v 6.1867 h 66.0533 v -5.9467 c -1.4933,0.2 -2.9866,0.2267 -4.4933,0.08 -1.4933,-0.1466 -2.9467,-0.4666 -4.3867,-0.96 -1.4133,-0.48 -2.76,-1.12 -4.04,-1.92 -1.28,-0.8 -2.4533,-1.7333 -3.5066,-2.8133 -1.0534,-1.0667 -1.9734,-2.24 -2.76,-3.5333 -0.7867,-1.28 -1.4134,-2.64 -1.8934,-4.0667 -0.4666,-1.4267 -0.7733,-2.8933 -0.8933,-4.3867 -0.1467,-1.5066 -0.093,-3 0.12,-4.4933 v -55.12 h 35.3867 c 3.16,0 6.1866,0.6 9.0933,1.8133 2.92,1.2 5.48,2.92 7.72,5.1467 2.2267,2.2267 3.9333,4.8 5.1467,7.7067 1.2,2.92 1.8133,5.9466 1.8133,9.0933 h 5.6933 v -59.6293 h -5.6933 c 0.12,1.52 0.093,3.0413 -0.08,4.5626 -0.1867,1.512 -0.5333,2.996 -1.0267,4.444 -0.5066,1.444 -1.1466,2.8227 -1.9333,4.1374 -0.7733,1.308 -1.6933,2.5253 -2.7333,3.6413 -1.04,1.12 -2.1867,2.12 -3.44,3 -1.2534,0.8773 -2.5867,1.6187 -3.9867,2.2173 -1.4,0.5987 -2.8667,1.0507 -4.36,1.3467 -1.4933,0.296 -3.0133,0.432 -4.5467,0.4067 h -36.8133 v -57.0187 c -0.08,-1.1867 0.1067,-2.3267 0.5867,-3.4147 0.4666,-1.0906 1.16,-2.0186 2.08,-2.772 0.92,-0.7546 1.96,-1.256 3.12,-1.508 1.16,-0.244 2.3333,-0.2173 3.48,0.091 h 34.2 c 1.9733,-0.232 3.9466,-0.2573 5.9066,-0.077 1.9734,0.1826 3.92,0.5613 5.8,1.1413 1.8934,0.58 3.72,1.3533 5.4534,2.3133 1.7333,0.96 3.3333,2.0867 4.84,3.3814 1.4933,1.3013 2.8533,2.7373 4.04,4.3173 1.2,1.572 2.2266,3.2587 3.0666,5.0507 0.8534,1.792 1.5067,3.6466 1.96,5.5733 0.4667,1.9253 0.72,3.8773 0.7734,5.864 h 5.7066 l -1.4266,-38.0133" />
      <path
         id="path54-5"
         style="fill:#ffffff;fill-opacity:1;fill-rule:nonzero;stroke:none;stroke-width:0.133333"
         d="m 1390.7733,1250.6 1.4267,43.952 h -5.7067 c -5.2267,-28.04 -12.12,-32.788 -49.1733,-32.788 v 131.1427 c -0.2267,1.5067 -0.2667,3.0133 -0.1334,4.52 0.1334,1.5067 0.44,2.9867 0.9067,4.4267 0.48,1.44 1.12,2.8 1.92,4.1066 0.8,1.28 1.7333,2.4667 2.8,3.5334 1.08,1.08 2.2533,2.0133 3.5467,2.8133 1.2933,0.7867 2.6533,1.4267 4.0933,1.9067 1.44,0.48 2.92,0.7866 4.44,0.92 1.5067,0.1333 3.0133,0.08 4.52,-0.1334 v 6.1734 h -68.664 V 1415 c 1.5013,0.2134 3.008,0.2667 4.5227,0.1334 1.5093,-0.1334 2.9853,-0.44 4.4253,-0.92 1.4413,-0.48 2.8067,-1.12 4.0987,-1.9067 1.2906,-0.8 2.472,-1.7333 3.5466,-2.8133 1.0747,-1.0667 2.0094,-2.2534 2.8054,-3.5334 0.7946,-1.3066 1.4346,-2.6666 1.912,-4.1066 0.476,-1.44 0.78,-2.92 0.9146,-4.4267 0.1334,-1.5067 0.088,-3.0133 -0.1306,-4.52 V 1261.764 c -37.0627,0 -43.9534,4.748 -49.1787,32.788 h -5.7013 l 1.1893,-43.952 h 131.62" />
      <path
         id="path56-0"
         style="fill:#ffffff;fill-opacity:1;fill-rule:nonzero;stroke:none;stroke-width:0.133333"
         d="M 1522.3866,1256.7774 V 1250.6 h 52.2667 v 6.1774 c -4.92,0.9866 -9.44,2.908 -13.5733,5.7533 -4.12,2.848 -7.52,6.3907 -10.1867,10.6373 l -42.0533,70.0854 v 49.6533 c -0.2934,1.5867 -0.3734,3.1867 -0.2667,4.8 0.12,1.6133 0.4267,3.1867 0.9333,4.72 0.5067,1.5333 1.2,2.9867 2.08,4.3467 0.8667,1.36 1.8934,2.5866 3.08,3.6933 1.1867,1.0933 2.4934,2.04 3.9067,2.8133 1.4133,0.76 2.92,1.3467 4.48,1.7467 1.5733,0.4 3.16,0.5867 4.7733,0.5867 1.6134,0 3.2134,-0.2134 4.7734,-0.6134 v 6.1734 h -71.2667 V 1415 c 1.56,0.4 3.1467,0.6134 4.7733,0.6134 1.6134,0 3.2,-0.1867 4.7734,-0.5867 1.56,-0.4 3.0533,-0.9867 4.48,-1.7467 1.4133,-0.7733 2.72,-1.72 3.9066,-2.8133 1.1734,-1.1067 2.2134,-2.3333 3.08,-3.6933 0.88,-1.36 1.56,-2.8134 2.08,-4.3467 0.5067,-1.5333 0.8134,-3.1067 0.9334,-4.72 0.1066,-1.6133 0.013,-3.2133 -0.28,-4.8 v -47.52 l -45.1334,-71.272 c -2.4533,-4.4827 -5.76,-8.208 -9.9333,-11.1707 -4.1733,-2.9653 -8.7867,-4.8586 -13.8267,-5.696 v -6.648 h 67.48 v 6.1774 c -1.6533,-0.3547 -3.32,-0.4054 -4.9733,-0.148 -1.68,0.2586 -3.24,0.8066 -4.7067,1.636 -1.4666,0.8333 -2.7333,1.896 -3.8133,3.196 -1.08,1.296 -1.88,2.744 -2.4267,4.344 0.2134,3.1226 1.0934,6.0506 2.6134,8.788 l 32.5466,55.8333 33.7334,-58.452 c 0.9466,-1.6933 1.4266,-3.516 1.4266,-5.4627 0,-4.2706 -2.8533,-9.7346 -15.68,-9.7346" />
      <path
         id="path58-4"
         style="fill:#ffffff;fill-opacity:1;fill-rule:nonzero;stroke:none;stroke-width:0.133333"
         d="m 1118.7453,1246.8 4.9867,56.3 h -7.1254 c -8.5533,-27.7933 -23.7573,-44.66 -43.004,-44.66 -1.6,-0.168 -3.1986,-0.1613 -4.7986,0.033 -1.5987,0.1866 -3.1574,0.5466 -4.6747,1.0893 -1.516,0.5333 -2.956,1.236 -4.316,2.0907 -1.364,0.8586 -2.6133,1.8586 -3.7547,2.9973 -1.136,1.1413 -2.1346,2.3907 -2.9946,3.7507 -0.8574,1.3653 -1.556,2.8013 -2.0934,4.3146 -0.5386,1.5214 -0.9026,3.0827 -1.0933,4.6787 -0.1853,1.5987 -0.1987,3.2013 -0.032,4.8 0.8413,7.216 3.3733,13.7813 7.596,19.6907 4.22,5.9133 9.6107,10.4346 16.1613,13.5746 l 27.56,18.5267 c 7.096,4.92 12.7334,11.16 16.9134,18.72 4.1746,7.56 6.4586,15.6533 6.844,24.28 0,3.12 -0.3027,6.2133 -0.9107,9.2667 -0.6093,3.0666 -1.512,6.04 -2.7053,8.92 -1.1934,2.88 -2.6587,5.6266 -4.392,8.2133 -1.732,2.6 -3.7027,4.9867 -5.9094,7.2 -2.2053,2.2 -4.6053,4.1733 -7.1986,5.9067 -2.5934,1.7333 -5.332,3.2 -8.216,4.4 -2.8814,1.1866 -5.852,2.0933 -8.912,2.6933 -3.06,0.6133 -6.1494,0.92 -9.2707,0.92 -10.8893,-2 -21.58,-4.7733 -32.072,-8.32 -2.1027,0.4133 -3.8813,1.4 -5.332,2.9867 -1.4493,1.5733 -2.284,3.44 -2.5107,5.5733 h -6.8866 l -7.1294,-56.7867 h 6.1787 c 10.4547,28.9867 25.66,46.0934 47.516,46.0934 1.8853,0.067 3.756,-0.053 5.616,-0.3867 1.8573,-0.32 3.6613,-0.8267 5.4107,-1.5333 1.7533,-0.7067 3.412,-1.5734 4.9773,-2.64 1.5627,-1.0534 3.0027,-2.2534 4.312,-3.6134 1.3147,-1.3466 2.4707,-2.8266 3.468,-4.4266 1.0013,-1.6 1.8227,-3.2934 2.468,-5.0667 0.644,-1.7733 1.096,-3.5867 1.356,-5.4533 0.26,-1.8667 0.3213,-3.7467 0.1867,-5.6267 -0.01,-3.2133 -0.4507,-6.3733 -1.3254,-9.4667 -0.876,-3.0933 -2.1506,-6.0133 -3.8253,-8.76 -1.6747,-2.7333 -3.6933,-5.2 -6.044,-7.4 -2.3507,-2.1866 -4.956,-4.0266 -7.8107,-5.5066 l -33.7346,-23.7467 c -3.428,-2.1347 -6.5187,-4.672 -9.264,-7.6293 -2.752,-2.9507 -5.0667,-6.212 -6.9427,-9.7854 -1.8813,-3.5706 -3.2613,-7.3186 -4.1373,-11.2613 -0.8787,-3.9387 -1.2254,-7.9213 -1.04,-11.952 -0.168,-2.8293 -0.037,-5.6387 0.3786,-8.4413 0.4227,-2.8027 1.1294,-5.528 2.12,-8.1827 0.9894,-2.6467 2.2467,-5.1733 3.7627,-7.5653 1.5213,-2.388 3.268,-4.592 5.248,-6.6214 1.9813,-2.0213 4.1507,-3.82 6.5053,-5.3933 2.3547,-1.5707 4.8467,-2.88 7.4747,-3.9307 2.6333,-1.048 5.3413,-1.816 8.132,-2.3 2.7893,-0.4826 5.6013,-0.6693 8.4307,-0.564 11.6426,0 23.7573,7.6014 31.36,7.6014 1.0506,0.064 2.0693,-0.085 3.0573,-0.4374 0.9853,-0.3573 1.8627,-0.896 2.628,-1.6186 0.7667,-0.716 1.356,-1.5587 1.7733,-2.5254 0.4147,-0.9666 0.62,-1.972 0.62,-3.02 h 6.176 0.2387" />
      <path
         id="path60-8"
         style="fill:#ffffff;fill-opacity:1;fill-rule:nonzero;stroke:none;stroke-width:0.133333"
         d="m 1211.6386,1278.8707 c -0.2613,-1.5867 -0.324,-3.176 -0.192,-4.776 0.136,-1.6027 0.464,-3.1613 0.9827,-4.6813 0.5187,-1.5134 1.2173,-2.952 2.0907,-4.2987 0.8746,-1.3467 1.8973,-2.5653 3.072,-3.6587 1.1773,-1.0946 2.4693,-2.0293 3.8786,-2.8026 1.4027,-0.7734 2.8867,-1.3654 4.4387,-1.772 1.552,-0.408 3.128,-0.6254 4.7333,-0.6374 1.6067,-0.02 3.1894,0.1614 4.7534,0.5334 V 1250.6 h -69.3734 v 6.1774 c 1.5014,-0.224 3.008,-0.2627 4.52,-0.1347 1.5094,0.1347 2.988,0.4387 4.428,0.916 1.44,0.476 2.8054,1.1147 4.0974,1.9133 1.2933,0.7974 2.476,1.7334 3.548,2.8 1.0733,1.0787 2.0066,2.256 2.804,3.552 0.7973,1.288 1.436,2.652 1.9106,4.0974 0.476,1.4413 0.784,2.9186 0.916,4.4266 0.1334,1.5134 0.091,3.0214 -0.1293,4.5227 v 113.796 c 0.22,1.5067 0.2627,3.0133 0.1293,4.52 -0.132,1.5067 -0.44,2.9867 -0.916,4.4267 -0.4746,1.44 -1.1133,2.8133 -1.9106,4.1066 -0.7974,1.28 -1.7307,2.4667 -2.804,3.5467 -1.072,1.0667 -2.2547,2 -3.548,2.8 -1.292,0.8 -2.6574,1.44 -4.0974,1.9067 -1.44,0.48 -2.9186,0.7866 -4.428,0.92 -1.512,0.1333 -3.0186,0.08 -4.52,-0.1334 v 6.1867 h 69.3734 V 1415 c -1.564,0.3734 -3.1467,0.56 -4.7534,0.5334 -1.6053,-0.013 -3.1813,-0.2267 -4.7333,-0.64 -1.552,-0.4134 -3.036,-1 -4.4387,-1.7734 -1.4093,-0.7733 -2.7013,-1.7066 -3.8786,-2.8 -1.1747,-1.0933 -2.1974,-2.32 -3.072,-3.6666 -0.8734,-1.3467 -1.572,-2.7734 -2.0907,-4.2934 -0.5187,-1.52 -0.8467,-3.08 -0.9827,-4.68 -0.132,-1.6 -0.069,-3.1866 0.192,-4.7733 v -114.036" />
      <path
         id="path62-2"
         style="fill:#ffffff;fill-opacity:1;fill-rule:nonzero;stroke:none;stroke-width:0.133333"
         d="m 821.77331,1376.7467 c -1.23866,4.88 -3.252,9.4 -6.03866,13.5867 -2.78934,4.1866 -6.19334,7.7866 -10.20934,10.8133 -4.01733,3.0267 -8.42,5.2933 -13.21466,6.8133 -4.78934,1.52 -9.69867,2.2134 -14.724,2.0534 h -27.324 c -9.976,0 -14.25067,-3.3334 -14.25067,-11.64 v -60.8267 h 36.82267 c 3.15066,0 6.18,0.6 9.09066,1.8133 2.91067,1.2 5.48134,2.92 7.70934,5.1467 2.22533,2.2267 3.94266,4.8 5.148,7.7067 1.204,2.92 1.80933,5.9466 1.80933,9.0933 h 5.704 v -59.6293 h -5.704 c 0.132,1.52 0.10667,3.0413 -0.08,4.5626 -0.18667,1.512 -0.52933,2.996 -1.02533,4.444 -0.49467,1.444 -1.136,2.8227 -1.92134,4.1374 -0.78666,1.308 -1.70133,2.5253 -2.74133,3.6413 -1.04133,1.12 -2.18667,2.12 -3.43867,3 -1.25066,0.8773 -2.58,1.6187 -3.988,2.2173 -1.404,0.5987 -2.856,1.0507 -4.35866,1.3467 -1.496,0.296 -3.012,0.432 -4.54134,0.4067 h -38.012 v -57.0187 c -0.08,-1.1867 0.11467,-2.3267 0.58934,-3.4147 0.47333,-1.0906 1.16933,-2.0186 2.088,-2.772 0.91733,-0.7546 1.95866,-1.256 3.12133,-1.508 1.16267,-0.244 2.31867,-0.2173 3.46667,0.091 h 32.78666 c 1.96534,-0.232 3.93467,-0.2573 5.90934,-0.077 1.972,0.1826 3.90666,0.5613 5.8,1.1413 1.89066,0.58 3.70533,1.3533 5.43866,2.3133 1.73334,0.96 3.348,2.0867 4.84534,3.3814 1.496,1.3013 2.84666,2.7373 4.04666,4.3106 1.19734,1.5787 2.21867,3.2654 3.06534,5.0574 0.84666,1.792 1.50133,3.6466 1.96133,5.5733 0.45733,1.9253 0.71467,3.8773 0.76533,5.864 h 5.704 l -1.42533,-38.4907 h -122.828 v 6.18 c 1.47867,-0.2266 2.96134,-0.264 4.44934,-0.1293 1.488,0.136 2.93733,0.444 4.348,0.9267 1.41333,0.4906 2.748,1.1333 4.004,1.9466 1.25333,0.812 2.39733,1.7574 3.42266,2.84 1.02667,1.0827 1.91067,2.2734 2.64667,3.576 0.74133,1.3014 1.31467,2.6694 1.72267,4.104 0.408,1.436 0.636,2.9 0.692,4.3947 0.0507,1.4947 -0.0747,2.972 -0.37734,4.432 V 1391.96 c 0.30267,1.4534 0.428,2.9334 0.37734,4.4267 -0.056,1.4933 -0.284,2.96 -0.692,4.4 -0.408,1.44 -0.98134,2.8 -1.72267,4.0933 -0.736,1.3067 -1.62,2.4934 -2.64667,3.5734 -1.02533,1.0933 -2.16933,2.04 -3.42266,2.8533 -1.256,0.8 -2.59067,1.4533 -4.004,1.9467 -1.41067,0.48 -2.86,0.7866 -4.348,0.9333 -1.488,0.1333 -2.97067,0.08 -4.44934,-0.1333 v 6.1733 h 125.916 l 11.168,-44.4267 h -7.13067 v 0.9467" />
      <path
         id="path64-5"
         style="fill:#ffffff;fill-opacity:1;fill-rule:nonzero;stroke:none;stroke-width:0.133333"
         d="m 984.03998,1407.16 c -4.04,-4.7466 -41.81467,-56.5466 -50.128,-68.1866 2.756,-0.16 5.47333,-0.6 8.14533,-1.2934 2.67467,-0.6933 5.25333,-1.6266 7.748,-2.8266 2.492,-1.1867 4.84133,-2.6174 7.05867,-4.2667 2.216,-1.6493 4.252,-3.4933 6.10933,-5.5413 1.85733,-2.0427 3.50267,-4.2454 4.93333,-6.6094 1.43067,-2.364 2.61867,-4.8386 3.56934,-7.436 0.95066,-2.5893 1.644,-5.2493 2.07733,-7.9813 0.43333,-2.7253 0.60533,-5.4707 0.50667,-8.2333 0,-26.604 -19.95734,-44.424 -56.30534,-44.424 h -67.23199 v 6.1786 c 1.476,-0.2266 2.956,-0.2706 4.44533,-0.1346 1.488,0.1346 2.93733,0.4506 4.35067,0.9333 1.41333,0.4893 2.74533,1.1347 4,1.9467 1.26,0.804 2.39866,1.7506 3.42799,2.84 1.02667,1.0826 1.90934,2.2733 2.64667,3.5746 0.73733,1.2974 1.31067,2.6694 1.71867,4.1054 0.408,1.4386 0.64,2.8986 0.692,4.3933 0.0547,1.496 -0.0733,2.972 -0.37467,4.4333 v 113.7947 c 0.27333,1.4667 0.376,2.9333 0.30133,4.4133 -0.0693,1.4934 -0.31733,2.9467 -0.732,4.3734 -0.41866,1.4133 -1,2.7733 -1.73733,4.0533 -0.74,1.2933 -1.62267,2.4667 -2.64266,3.56 -1.02134,1.0667 -2.15067,2.0133 -3.39467,2.8267 -1.248,0.8133 -2.568,1.4533 -3.96667,1.96 -1.4,0.4933 -2.83733,0.8266 -4.31333,0.9733 -1.47733,0.16 -2.94933,0.1333 -4.42133,-0.067 v 6.1867 h 66.04533 v -5.9467 c -1.472,0.2 -2.94534,0.2134 -4.424,0.053 -1.476,-0.1467 -2.912,-0.4667 -4.31334,-0.9734 -1.39866,-0.4933 -2.72,-1.1466 -3.96533,-1.9466 -1.244,-0.8134 -2.37333,-1.76 -3.396,-2.84 -1.02,-1.08 -1.89867,-2.2534 -2.64133,-3.5467 -0.73734,-1.28 -1.316,-2.64 -1.736,-4.0667 -0.41467,-1.4266 -0.66534,-2.88 -0.73467,-4.36 -0.0733,-1.48 0.0253,-2.96 0.30267,-4.4133 v -50.1333 h 13.06666 l 55.35734,78.88 h 37.29862 v -5.6934 c -7.05062,-0.28 -12.83462,-3.1333 -17.34262,-8.56 z m -88.38,-74.8333 v -57.496 c 0,-11.88 2.37733,-14.7293 15.444,-14.7293 2.512,-0.488 5.05066,-0.6814 7.61066,-0.5854 2.56267,0.104 5.07467,0.4974 7.54267,1.1787 2.46933,0.6907 4.82533,1.6507 7.072,2.8867 2.244,1.2293 4.31467,2.7066 6.21867,4.4266 1.90266,1.7147 3.58,3.628 5.036,5.7347 1.45466,2.1067 2.652,4.3547 3.58533,6.7373 0.93333,2.3907 1.57867,4.852 1.94,7.3907 0.36,2.5333 0.42267,5.0787 0.19333,7.628 0,26.132 -19.71866,36.828 -49.17866,36.828 h -5.464" />
      <path
         id="path66-4"
         style="fill:#ffffff;fill-opacity:1;fill-rule:nonzero;stroke:none;stroke-width:0.133333"
         d="m 460.18532,1278.632 c -0.22,-1.5013 -0.264,-3.0093 -0.13066,-4.5213 0.13066,-1.508 0.436,-2.984 0.91466,-4.428 0.476,-1.436 1.11467,-2.8093 1.91334,-4.0987 0.79466,-1.2866 1.72933,-2.4733 2.80266,-3.5493 1.072,-1.068 2.25333,-2.0027 3.54533,-2.8027 1.29334,-0.7986 2.65867,-1.4293 4.09734,-1.9133 1.44533,-0.476 2.92,-0.7787 4.43066,-0.9133 1.51067,-0.1294 3.01867,-0.085 4.51867,0.1346 v -6.1786 h -68.656 v 6.1786 c 1.50134,-0.22 3.008,-0.264 4.51867,-0.1346 1.51067,0.1346 2.98667,0.4373 4.42667,0.9133 1.444,0.484 2.80933,1.1147 4.10133,1.9133 1.292,0.8 2.47333,1.7347 3.54533,2.8027 1.07467,1.076 2.008,2.2627 2.804,3.5493 0.79734,1.2894 1.432,2.656 1.91334,4.0987 0.47733,1.444 0.78266,2.92 0.91466,4.428 0.132,1.512 0.0893,3.02 -0.132,4.5213 v 113.7947 c 0.21867,1.5067 0.264,3.0133 0.132,4.52 -0.132,1.52 -0.43733,2.9867 -0.91466,4.44 -0.48134,1.4267 -1.116,2.8 -1.91334,4.0933 -0.796,1.28 -1.72933,2.4667 -2.804,3.5467 -1.072,1.0667 -2.25333,2 -3.54533,2.8 -1.292,0.8 -2.65733,1.44 -4.10133,1.9067 -1.44,0.4933 -2.916,0.7866 -4.42667,0.92 -1.51067,0.1333 -3.01733,0.093 -4.51867,-0.1334 v 6.1867 h 68.656 v -5.9467 c -1.5,0.2134 -3.008,0.2667 -4.51867,0.1334 -1.51066,-0.1334 -2.98533,-0.44 -4.43066,-0.92 -1.43867,-0.4667 -2.804,-1.1067 -4.09734,-1.9067 -1.292,-0.8 -2.47333,-1.7333 -3.54533,-2.8 -1.07333,-1.08 -2.008,-2.2667 -2.80266,-3.5467 -0.79867,-1.2933 -1.43734,-2.6666 -1.91334,-4.1066 -0.47866,-1.44 -0.784,-2.92 -0.91466,-4.4267 -0.13334,-1.5067 -0.0893,-3.0133 0.13066,-4.52 v -114.0347 0" />
      <path
         id="path68-1"
         style="fill:#ffffff;fill-opacity:1;fill-rule:nonzero;stroke:none;stroke-width:0.133333"
         d="m 572.55865,1256.54 v -6.1786 h -62.48266 v 6.1786 c 2.452,0.2174 4.80933,0.8054 7.07733,1.7587 2.268,0.948 4.33867,2.2227 6.21067,3.8213 1.87466,1.596 3.45866,3.4334 4.76133,5.5267 1.29733,2.0893 2.25067,4.3227 2.85733,6.708 l 61.532,149.432 h 4.04 c 0,0 49.17733,-137.3147 53.69067,-149.432 1.112,-4.5947 3.392,-8.512 6.84133,-11.7453 3.44933,-3.2347 7.50667,-5.2574 12.164,-6.0694 v -6.1786 h -47.516 v 6.1786 c 1.996,-0.3493 3.968,-0.264 5.928,0.244 1.956,0.5174 3.72,1.4067 5.28933,2.6814 1.57467,1.2746 2.80934,2.816 3.712,4.624 0.90534,1.8106 1.392,3.7306 1.46667,5.7546 -0.088,2.3 -0.564,4.516 -1.428,6.648 l -36.58667,101.4547 -42.52533,-101.9307 c -0.952,-2.4413 -1.42666,-4.9746 -1.42666,-7.6013 0,-7.836 5.70133,-11.8747 16.39466,-11.8747" />
      <path
         id="path70-4"
         style="fill:#ffffff;fill-opacity:1;fill-rule:nonzero;stroke:none;stroke-width:0.133333"
         d="m 0,1201.1827 c 18.530266,0 28.270799,9.2653 28.270799,35.8733 v 105.4774 c -0.338533,2.7333 -0.5208,5.4666 -0.551066,8.2 -0.028,2.7466 0.098,5.48 0.374,8.2133 0.280266,2.72 0.712533,5.4267 1.294266,8.1067 0.584934,2.68 1.317734,5.32 2.200534,7.92 0.880266,2.6 1.903599,5.1333 3.074533,7.6133 1.168666,2.48 2.469733,4.8933 3.909866,7.2267 1.440134,2.3333 3.0088,4.5733 4.700534,6.7333 1.695333,2.16 3.501599,4.2133 5.428666,6.1733 1.925467,1.9467 3.951467,3.7867 6.084267,5.52 2.132933,1.72 4.355333,3.32 6.667733,4.7867 2.313066,1.48 4.704666,2.8133 7.168266,4.0267 2.464534,1.2 4.986933,2.2666 7.570267,3.1866 2.583333,0.9067 5.210933,1.68 7.8828,2.3067 2.670933,0.6267 5.369866,1.0933 8.091199,1.4133 2.726534,0.32 5.457334,0.48 8.202136,0.4934 2.7416,0.013 5.4776,-0.1334 8.20146,-0.4267 2.59907,0.1867 5.2032,0.24 7.80574,0.1467 2.6032,-0.093 5.19693,-0.3334 7.7776,-0.7067 2.57706,-0.3733 5.1276,-0.88 7.65266,-1.52 2.52307,-0.6533 5.00574,-1.4267 7.4444,-2.3467 2.44,-0.92 4.824,-1.96 7.14934,-3.1333 2.328,-1.1733 4.58666,-2.4667 6.77466,-3.88 2.18667,-1.4133 4.292,-2.9467 6.31334,-4.5867 2.024,-1.6533 3.94933,-3.3866 5.78533,-5.24 1.83333,-1.8533 3.56267,-3.8 5.188,-5.8266 1.62267,-2.0534 3.13333,-4.16 4.528,-6.36 1.39467,-2.2134 2.66933,-4.48 3.82,-6.8134 1.152,-2.3333 2.17467,-4.7333 3.06667,-7.1733 0.89333,-2.4533 1.65066,-4.9333 2.27466,-7.4667 0.62534,-2.5333 1.112,-5.0933 1.46,-7.6666 0.348,-2.5867 0.55734,-5.1734 0.62534,-7.7867 0.0693,-2.6 0,-5.2 -0.212,-7.8 v -114.988 c -0.55867,-1.964 -0.85467,-3.9747 -0.89334,-6.0173 -0.036,-2.0494 0.18534,-4.0667 0.67067,-6.052 0.48267,-1.9907 1.21067,-3.8827 2.184,-5.68 0.972,-1.8054 2.15733,-3.448 3.55467,-4.9427 1.39866,-1.4947 2.96133,-2.7827 4.69466,-3.872 1.73067,-1.088 3.572,-1.9467 5.524,-2.5587 1.95333,-0.612 3.94933,-0.9666 5.992,-1.0613 2.044,-0.099 4.06533,0.063 6.06667,0.488 v -6.1787 h -68.42 v 6.1787 c 19.00667,0 27.08133,8.552 27.55867,31.3587 0.47466,22.8066 1.66266,83.388 1.66266,118.792 0.144,3.9733 -0.12533,7.92 -0.81333,11.84 -0.69067,3.9333 -1.78267,7.7333 -3.27467,11.4266 -1.49466,3.6934 -3.356,7.1867 -5.58533,10.48 -2.232,3.2934 -4.784,6.32 -7.65467,9.08 -2.87066,2.76 -5.99733,5.1867 -9.384,7.2934 -3.38133,2.0933 -6.948,3.8133 -10.69466,5.16 -3.74667,1.3466 -7.59227,2.28 -11.53854,2.8266 -3.94533,0.52 -7.9052,0.64 -11.874,0.3334 -4.1104,0.2933 -8.20573,0.1466 -12.28386,-0.4534 -4.078136,-0.6 -8.042669,-1.6266 -11.893202,-3.0933 -3.853067,-1.4667 -7.502667,-3.32 -10.945333,-5.5867 -3.447867,-2.2666 -6.605733,-4.8666 -9.480133,-7.8266 -2.874,-2.9467 -5.395867,-6.1867 -7.565734,-9.68 -2.167599,-3.5067 -3.929066,-7.2134 -5.289066,-11.0934 -1.359333,-3.8933 -2.283733,-7.8933 -2.7708,-11.9866 -0.4864,-4.0934 -0.5244,-8.1867 -0.1156,-12.2934 v -118.784 c -0.474,-1.892 -0.705733,-3.82 -0.702133,-5.7786 0.0032,-1.952 0.2448,-3.8774 0.721466,-5.772 0.480667,-1.8934 1.1828,-3.704 2.106667,-5.4254 0.926133,-1.72 2.045867,-3.304 3.362,-4.748 1.315066,-1.4426 2.788,-2.7133 4.4156,-3.788 1.628666,-1.0826 3.362,-1.952 5.204666,-2.6093 1.843867,-0.6507 3.737067,-1.0693 5.6824,-1.256 1.946267,-0.1853 3.8848,-0.1347 5.818667,0.1613 v -4.756 H 0 v 6.1787 0" />
      <path
         id="path72"
         style="fill:#ffffff;fill-opacity:1;fill-rule:nonzero;stroke:none;stroke-width:0.133333"
         d="m 323.57999,1250.3614 v 6.1786 c 1.608,0.039 3.19467,0.2507 4.75867,0.632 1.56133,0.3867 3.06667,0.9334 4.50933,1.648 1.44267,0.716 2.79067,1.5787 4.04533,2.584 1.25334,1.0134 2.384,2.1454 3.392,3.4014 1.00534,1.2573 1.86534,2.6026 2.57734,4.0466 0.712,1.4427 1.26,2.9507 1.644,4.516 0.38266,1.5587 0.59066,3.144 0.63066,4.756 0.0347,1.6107 -0.104,3.2067 -0.416,4.788 v 89.7947 l -88.61333,-121.636 h -38.48933 v 6.1773 c 3.24133,-0.057 6.336,0.5734 9.29067,1.9067 2.952,1.3347 5.47866,3.228 7.57866,5.6973 l 4.98667,6.6534 v 113.5613 c 0,19.48 -6.652,29.6933 -22.092,29.6933 v 6.1867 h 54.404 v -6.1867 c -1.52133,0.053 -3.02933,-0.067 -4.52667,-0.3466 -1.496,-0.28 -2.94133,-0.72 -4.34266,-1.32 -1.40134,-0.5867 -2.71867,-1.3334 -3.95867,-2.2134 -1.23733,-0.88 -2.36533,-1.8933 -3.38267,-3.0266 -1.01866,-1.1334 -1.904,-2.36 -2.65466,-3.68 -0.74667,-1.3334 -1.34667,-2.72 -1.79467,-4.1734 -0.444,-1.4533 -0.73067,-2.9466 -0.85067,-4.4533 -0.12133,-1.52 -0.08,-3.0267 0.13067,-4.5333 V 1285.52 l 101.91733,138.04 h 4.04 v -137.3253 c 0,-21.6227 8.79067,-29.6947 22.096,-29.6947 v -6.1786 h -54.88" />
      <g
         transform="matrix(0.156056,0,0,-0.156056,0,1806.5867)"
         id="g126"
         style="fill:#ffffff">
        <path
           id="path128"
           style="fill:#ffffff;fill-opacity:1;fill-rule:nonzero;stroke:none"
           d="M 11207.7,11561.3 H 8382.17 V 10073.9 H 8878.5 L 7136.88,7219.47 h -647 V 5732.13 H 9418.9 v 1487.34 h -525.2 l 886.01,1456.92 330.39,-509.99 H 9794.92 V 6648.57 H 12995 v 1502.59 h -330.4 l 299.9,510 901.3,-1426.45 h -479.6 V 5716.9 H 16300 v 1502.57 h -645.5 l -1743,2839.23 h 525.2 v 1517.8 h -2839.3 v -1502.6 h 450.6 l -660.7,-1067.17 -660.7,1067.17 h 481.1 v 1487.4" />
      </g>
      <g
         transform="matrix(0.16781066,0,0,-0.16781066,0,1806.5867)"
         id="g130"
         style="fill:#ffffff">
        <path
           id="path132"
           style="fill:#ffffff;fill-opacity:1;fill-rule:nonzero;stroke:none"
           d="m 16299.4,5545.83 c 0.6,-19.8 -0.8,-39.47 -4.2,-58.97 -3.3,-19.54 -8.5,-38.55 -15.5,-57.03 -7.2,-18.5 -16,-36.11 -26.6,-52.85 -10.6,-16.74 -22.7,-32.28 -36.4,-46.64 -13.6,-14.33 -28.6,-27.18 -44.8,-38.6 -16.1,-11.35 -33.3,-21.07 -51.5,-29.06 -18.1,-7.98 -36.8,-14.12 -56.1,-18.39 -19.4,-4.29 -39,-6.64 -58.7,-7.02 -19.8,-0.42 -39.5,1.12 -59,4.6 -19.5,3.5 -38.4,8.84 -56.9,16.09 -18.4,7.23 -35.9,16.2 -52.6,26.92 -16.7,10.71 -32.1,22.96 -46.3,36.69 -14.3,13.81 -27,28.8 -38.3,45.08 -11.2,16.32 -20.8,33.56 -28.7,51.74 -7.8,18.17 -13.8,36.95 -18,56.32 -4.1,19.37 -6.2,38.96 -6.5,58.75 -0.3,19.82 1.5,39.47 5,58.93 3.7,19.46 9.2,38.4 16.6,56.76 7.3,18.39 16.5,35.86 27.3,52.44 10.8,16.58 23.2,31.93 37.1,46.06 13.8,14.13 29,26.75 45.4,37.9 16.3,11.13 33.6,20.57 51.8,28.26 18.4,7.7 37.2,13.55 56.5,17.53 19.5,3.98 39,6.01 58.9,6.13 19.5,0.46 38.9,-1 58.1,-4.37 19.2,-3.38 37.9,-8.62 56.1,-15.72 18.2,-7.11 35.4,-15.91 51.9,-26.45 16.4,-10.56 31.6,-22.61 45.7,-36.17 14,-13.58 26.6,-28.39 37.6,-44.47 11.1,-16.06 20.5,-33.05 28.2,-51.01 7.7,-17.92 13.6,-36.43 17.6,-55.52 4,-19.1 6.2,-38.41 6.3,-57.93 z m -526.7,0 c -0.4,-15.11 0.6,-30.13 3.1,-45.03 2.6,-14.89 6.6,-29.41 12,-43.52 5.4,-14.09 12.2,-27.53 20.3,-40.27 8.2,-12.75 17.5,-24.55 28,-35.45 10.5,-10.91 21.9,-20.62 34.4,-29.23 12.4,-8.56 25.6,-15.85 39.5,-21.81 13.9,-5.94 28.2,-10.47 43,-13.55 14.8,-3.07 29.7,-4.64 44.9,-4.76 15,0 29.9,1.51 44.7,4.49 14.7,3 29,7.46 42.9,13.33 13.9,5.87 27,13.08 39.4,21.62 12.4,8.56 23.8,18.23 34.2,29.06 10.4,10.83 19.7,22.62 27.8,35.32 8.1,12.71 14.7,26.1 20.1,40.16 5.4,14.07 9.3,28.53 11.7,43.39 2.5,14.83 3.4,29.79 2.9,44.84 2.2,16 2.8,32.09 1.6,48.22 -1.2,16.14 -4.1,31.97 -8.7,47.49 -4.5,15.52 -10.7,30.37 -18.5,44.58 -7.7,14.2 -16.9,27.42 -27.5,39.64 -10.6,12.22 -22.3,23.2 -35.4,32.89 -12.9,9.72 -26.7,17.97 -41.4,24.7 -14.7,6.75 -29.9,11.87 -45.8,15.33 -15.7,3.47 -31.8,5.24 -47.9,5.3 -16.2,0.06 -32.2,-1.61 -48.1,-5 -15.8,-3.36 -31,-8.37 -45.8,-15.03 -14.7,-6.67 -28.6,-14.8 -41.6,-24.42 -13,-9.64 -24.8,-20.52 -35.5,-32.7 -10.7,-12.15 -19.9,-25.32 -27.8,-39.46 -7.9,-14.16 -14.1,-28.97 -18.8,-44.47 -4.6,-15.49 -7.7,-31.29 -8.9,-47.43 -1.3,-16.12 -0.9,-32.2 1.2,-48.23 z m 179.8,-159.98 h -67.9 v 298.72 c 37,6.4 74.3,9.21 111.9,8.48 36.1,3.04 70.1,-4.05 101.9,-21.22 19.6,-16.72 29,-37.96 28.3,-63.72 -1.3,-16.89 -7.6,-31.66 -18.9,-44.28 -11.4,-12.63 -25.3,-20.53 -42,-23.67 14.8,-5.93 27.1,-15.22 36.8,-27.95 9.6,-12.69 15.3,-26.97 17,-42.83 1.2,-29.14 7.7,-57 19.8,-83.53 h -70.7 c -11.1,22.46 -18.7,46.05 -22.7,70.77 -0.5,7.34 -2.4,14.25 -5.9,20.74 -3.4,6.49 -8.1,11.98 -13.9,16.46 -5.9,4.47 -12.4,7.55 -19.5,9.21 -7.2,1.66 -14.3,1.77 -21.6,0.33 h -32.6 z m 0,165.63 h 32.6 c 36.8,0 68,12.75 68,42.49 0,29.73 -19.8,45.31 -62.3,45.31 -12.3,1.39 -24.6,1.39 -36.8,0 v -83.54 l -1.5,-4.26" />
      </g>
    </g>
  </g>
</svg>
