<?xml version="1.0" encoding="UTF-8" standalone="no"?>
<!-- Generator: Adobe Illustrator 24.3.0, SVG Export Plug-In . SVG Version: 6.00 Build 0)  -->

<svg
   version="1.1"
   id="Layer_1"
   x="0px"
   y="0px"
   viewBox="0 0 230 120"
   xml:space="preserve"
   sodipodi:docname="tamu.svg"
   width="230"
   height="120"
   inkscape:version="1.1.2 (0a00cf5339, 2022-02-04, custom)"
   xmlns:inkscape="http://www.inkscape.org/namespaces/inkscape"
   xmlns:sodipodi="http://sodipodi.sourceforge.net/DTD/sodipodi-0.dtd"
   xmlns="http://www.w3.org/2000/svg"
   xmlns:svg="http://www.w3.org/2000/svg"><defs
   id="defs1096" /><sodipodi:namedview
   id="namedview1094"
   pagecolor="#ffffff"
   bordercolor="#666666"
   borderopacity="1.0"
   inkscape:pageshadow="2"
   inkscape:pageopacity="0.0"
   inkscape:pagecheckerboard="0"
   showgrid="false"
   showguides="false"
   width="230px"
   inkscape:zoom="2"
   inkscape:cx="89.25"
   inkscape:cy="75.25"
   inkscape:window-width="1718"
   inkscape:window-height="1360"
   inkscape:window-x="-7"
   inkscape:window-y="0"
   inkscape:window-maximized="0"
   inkscape:current-layer="Layer_1" />
<style
   type="text/css"
   id="style961">
	.st0{fill:#FFFFFF;}
	.st1{fill:none;stroke:#FFFFFF;stroke-width:0.75;stroke-miterlimit:10;}
	.st2{fill:#B1B3B6;}
	.st3{enable-background:new    ;}
</style>
<g
   id="g1091"
   transform="matrix(1.5056793,0,0,1.5056793,37.005812,-4.518358)">
	<g
   id="g997">
		<g
   id="g971">
			<polygon
   class="st0"
   points="84.2,33.9 91.1,17 95.3,17 96.9,13.4 78.1,13.4 74.3,23.6 74.6,13.4 70,13.4 66.1,23.5 66.6,13.4 61.5,13.4 61.5,33.8 66,33.8 70.2,23.5 70,33.8 74.5,33.8 81.6,17 85.8,17 79,33.9 "
   id="polygon963" />
			<g
   id="g969">
				<path
   class="st0"
   d="m 85.7,32.9 h -0.3 v -0.1 h 0.8 v 0.1 h -0.3 v 1 h -0.1 c -0.1,0 -0.1,-1 -0.1,-1 z"
   id="path965" />
				<path
   class="st0"
   d="m 87.3,33.4 c 0,-0.2 0,-0.3 0,-0.5 v 0 c 0,0.1 -0.1,0.3 -0.1,0.4 L 87,33.8 H 86.9 L 86.7,33.3 C 86.6,33.1 86.6,33 86.6,32.9 v 0 c 0,0.1 0,0.3 0,0.5 v 0.5 h -0.1 l 0.1,-1.1 h 0.2 l 0.2,0.5 c 0.1,0.1 0.1,0.3 0.1,0.4 v 0 c 0,-0.1 0.1,-0.2 0.1,-0.4 l 0.2,-0.5 h 0.2 l 0.1,1.1 h -0.1 z"
   id="path967" />
			</g>
		</g>
		<line
   class="st1"
   x1="50.799999"
   y1="5"
   x2="50.799999"
   y2="40.099998"
   id="line973" />
		<g
   id="g995">
			<path
   class="st0"
   d="m 32.4,33.3 c 0,-0.5 0.4,-0.9 0.9,-0.9 0.5,0 0.9,0.4 0.9,0.9 0,0.5 -0.4,0.9 -0.9,0.9 -0.5,0 -0.9,-0.4 -0.9,-0.9 m 1.6,0 c 0,-0.4 -0.3,-0.7 -0.7,-0.7 -0.4,0 -0.7,0.3 -0.7,0.7 0,0.4 0.3,0.7 0.7,0.7 0.4,0 0.7,-0.3 0.7,-0.7 m -1,-0.5 h 0.4 c 0.2,0 0.4,0.1 0.4,0.3 0,0.2 -0.1,0.2 -0.3,0.3 l 0.3,0.4 h -0.2 l -0.3,-0.4 h -0.1 v 0.4 H 33 Z m 0.1,0.4 h 0.2 c 0.1,0 0.2,0 0.2,-0.2 0,-0.1 -0.1,-0.1 -0.2,-0.1 h -0.2 z"
   id="path975" />
			<g
   id="g993">
				<polygon
   class="st0"
   points="31.1,26.6 30.6,26.6 30.4,26.6 30.4,26.8 30.4,28.3 30.4,28.5 30.6,28.5 33.7,28.5 33.9,28.5 33.9,28.3 33.9,26.8 33.9,26.6 33.7,26.6 33.2,26.6 33.2,22.3 35.4,27 35.7,27.4 35.9,27 38.2,22.2 38.2,26.6 37.7,26.6 37.5,26.6 37.5,26.8 37.5,28.3 37.5,28.5 37.7,28.5 40.8,28.5 41,28.5 41,28.3 41,26.8 41,26.6 40.8,26.6 40.2,26.6 40.2,20.5 40.8,20.5 41,20.5 41,20.2 41,18.8 41,18.5 40.8,18.5 37.9,18.5 37.8,18.5 37.7,18.7 35.7,22.9 33.6,18.7 33.6,18.5 33.4,18.5 30.7,18.5 30.4,18.5 30.4,18.8 30.4,20.2 30.4,20.5 30.7,20.5 31.1,20.5 "
   id="polygon977" />
				<path
   class="st0"
   d="m 23,26.6 h -0.8 l -2.6,-6.1 h 0.2 0.3 v -0.3 -1.5 -0.3 h -0.3 -3.7 -0.3 v 0.3 1.5 0.3 h 0.3 0.3 l -2.6,6.1 H 13 12.7 v 0.3 1.5 0.3 h 0.3 3.3 0.3 V 28.4 26.9 26.6 H 16.3 16 l 0.4,-1 h 3.2 l 0.4,1 h -0.3 -0.3 v 0.3 1.5 0.3 h 0.3 3.3 0.3 v -0.3 -1.5 -0.3 z m -4.3,-3 h -1.5 l 0.7,-1.7 z"
   id="path979" />
				<polygon
   class="st0"
   points="22.2,30.2 22.2,33.9 22.2,34.2 22.5,34.2 31.1,34.2 31.4,34.2 31.4,33.9 31.4,30.2 31.4,29.9 31.1,29.9 29,29.9 29,14.8 33.5,14.8 33.5,16.9 33.5,17.2 33.8,17.2 37.5,17.2 37.8,17.2 37.8,16.9 37.8,11.2 37.8,10.9 37.5,10.9 16.1,10.9 15.8,10.9 15.8,11.2 15.8,16.9 15.8,17.2 16.1,17.2 19.8,17.2 20.1,17.2 20.1,16.9 20.1,14.8 24.7,14.8 24.7,29.9 22.5,29.9 22.2,29.9 "
   id="polygon981" />
				<g
   id="g991">
					<polygon
   class="st2"
   points="29.6,32.4 29.6,31.6 30.5,30.7 30.5,33.2 "
   id="polygon983" />
					<polygon
   class="st2"
   points="28.1,13.9 28.1,30.8 27.2,31.7 27.2,13 "
   id="polygon985" />
					<polygon
   class="st2"
   points="35.3,12.7 17.6,12.7 16.7,11.8 36.5,11.8 "
   id="polygon987" />
					<polygon
   class="st2"
   points="37,12.2 37,16.3 36.1,15.5 36.1,13.2 "
   id="polygon989" />
				</g>
			</g>
		</g>
	</g>
	<g
   id="g1089">
		<g
   class="st3"
   id="g1039">
			<path
   class="st0"
   d="m 10.3,65.8 h 0.9 L 9.4,71 H 8.5 L 6.7,65.8 H 7.6 L 8.7,69 c 0.1,0.2 0.1,0.4 0.2,0.6 C 9,69.8 9,70 9,70.1 9,70 9,69.8 9.1,69.6 9.2,69.4 9.2,69.2 9.3,69.1 Z"
   id="path999" />
			<path
   class="st0"
   d="m 14.8,71 h -2.9 v -5.2 h 2.9 v 0.7 H 12.7 V 68 h 1.9 v 0.7 h -1.9 v 1.6 h 2.1 z"
   id="path1001" />
			<path
   class="st0"
   d="m 17.7,71 h -0.8 v -4.4 h -1.5 v -0.7 h 3.9 v 0.7 H 17.8 V 71 Z"
   id="path1003" />
			<path
   class="st0"
   d="M 22.9,71 H 20 v -5.2 h 2.9 v 0.7 H 20.8 V 68 h 1.9 v 0.7 h -1.9 v 1.6 h 2.1 z"
   id="path1005" />
			<path
   class="st0"
   d="M 24.9,68.9 V 71 h -0.8 v -5.2 h 1.5 c 0.7,0 1.2,0.1 1.5,0.4 0.3,0.3 0.5,0.6 0.5,1.1 0,0.6 -0.3,1.1 -1,1.4 l 1.5,2.3 h -1 l -1.2,-2.1 z m 0,-0.7 h 0.6 c 0.4,0 0.7,-0.1 0.9,-0.2 0.2,-0.1 0.3,-0.4 0.3,-0.7 0,-0.3 -0.1,-0.5 -0.3,-0.6 -0.2,-0.1 -0.5,-0.2 -0.9,-0.2 h -0.6 z"
   id="path1007" />
			<path
   class="st0"
   d="m 28.7,71 v -5.2 h 0.8 V 71 Z"
   id="path1009" />
			<path
   class="st0"
   d="m 35.2,71 h -1 l -2.5,-4.1 v 0 0.2 c 0,0.4 0,0.8 0,1.2 V 71 h -0.8 v -5.2 h 1 l 2.5,4.1 v 0 c 0,-0.1 0,-0.3 0,-0.6 0,-0.3 0,-0.6 0,-0.8 v -2.7 h 0.8 z"
   id="path1011" />
			<path
   class="st0"
   d="m 39.8,71 -0.5,-1.4 h -2 L 36.8,71 h -0.9 l 1.9,-5.2 h 0.9 l 1.9,5.2 z m -0.7,-2.2 -0.5,-1.4 c 0,-0.1 -0.1,-0.2 -0.1,-0.4 -0.1,-0.2 -0.1,-0.4 -0.1,-0.4 -0.1,0.3 -0.2,0.6 -0.3,1 l -0.5,1.3 h 1.5 z"
   id="path1013" />
			<path
   class="st0"
   d="M 42.2,68.9 V 71 h -0.8 v -5.2 h 1.5 c 0.7,0 1.2,0.1 1.5,0.4 0.3,0.3 0.5,0.6 0.5,1.1 0,0.6 -0.3,1.1 -1,1.4 l 1.5,2.3 h -1 l -1.2,-2.1 z m 0,-0.7 h 0.6 c 0.4,0 0.7,-0.1 0.9,-0.2 0.2,-0.1 0.3,-0.4 0.3,-0.7 0,-0.3 -0.1,-0.5 -0.3,-0.6 -0.2,-0.1 -0.5,-0.2 -0.9,-0.2 h -0.6 z"
   id="path1015" />
			<path
   class="st0"
   d="m 47.5,68.2 1.2,-2.4 h 0.9 L 47.9,69 v 2 H 47 v -2 l -1.7,-3.2 h 0.9 z"
   id="path1017" />
			<path
   class="st0"
   d="m 55.1,71 h -2.9 v -5.2 h 2.9 v 0.7 H 53 V 68 h 2 v 0.7 h -2 v 1.6 h 2.1 z"
   id="path1019" />
			<path
   class="st0"
   d="m 60.4,68.4 c 0,0.9 -0.2,1.5 -0.7,2 -0.5,0.5 -1.2,0.7 -2,0.7 h -1.4 v -5.2 h 1.6 c 0.8,0 1.5,0.2 1.9,0.7 0.4,0.5 0.6,1 0.6,1.8 z m -0.9,0 c 0,-1.2 -0.6,-1.9 -1.7,-1.9 h -0.7 v 3.8 h 0.6 c 1.2,0 1.8,-0.6 1.8,-1.9 z"
   id="path1021" />
			<path
   class="st0"
   d="m 65.6,65.8 v 3.3 c 0,0.4 -0.1,0.7 -0.2,1 -0.2,0.3 -0.4,0.5 -0.7,0.7 C 64.4,71 64,71 63.6,71 63,71 62.5,70.8 62.1,70.5 61.7,70.2 61.6,69.7 61.6,69.1 v -3.3 h 0.8 v 3.3 c 0,0.4 0.1,0.7 0.3,0.9 0.2,0.2 0.5,0.3 0.9,0.3 0.8,0 1.2,-0.4 1.2,-1.3 v -3.3 h 0.8 z"
   id="path1023" />
			<path
   class="st0"
   d="m 69.1,66.5 c -0.5,0 -0.9,0.2 -1.1,0.5 -0.2,0.3 -0.4,0.8 -0.4,1.4 0,0.6 0.1,1.1 0.4,1.4 0.3,0.3 0.7,0.5 1.2,0.5 0.2,0 0.4,0 0.6,-0.1 0.2,0 0.4,-0.1 0.6,-0.2 v 0.7 C 70,71 69.5,71.1 69,71.1 c -0.8,0 -1.3,-0.2 -1.7,-0.7 -0.4,-0.5 -0.6,-1.1 -0.6,-2 0,-0.5 0.1,-1 0.3,-1.4 0.2,-0.4 0.5,-0.7 0.9,-0.9 0.4,-0.2 0.8,-0.3 1.3,-0.3 0.5,0 1,0.1 1.5,0.3 l -0.3,0.7 c -0.2,-0.1 -0.4,-0.2 -0.6,-0.2 -0.2,0 -0.5,-0.1 -0.7,-0.1 z"
   id="path1025" />
			<path
   class="st0"
   d="m 74.7,71 -0.5,-1.4 h -2 L 71.7,71 h -0.9 l 1.9,-5.2 h 0.9 L 75.5,71 Z M 74,68.8 73.5,67.4 c 0,-0.1 -0.1,-0.2 -0.1,-0.4 -0.1,-0.2 -0.1,-0.4 -0.1,-0.4 -0.1,0.3 -0.2,0.6 -0.3,1 l -0.5,1.3 H 74 Z"
   id="path1027" />
			<path
   class="st0"
   d="m 78.1,71 h -0.8 v -4.4 h -1.5 v -0.7 h 3.9 v 0.7 H 78.2 V 71 Z"
   id="path1029" />
			<path
   class="st0"
   d="m 80.4,71 v -5.2 h 0.8 V 71 Z"
   id="path1031" />
			<path
   class="st0"
   d="m 87.2,68.4 c 0,0.8 -0.2,1.5 -0.6,2 -0.4,0.5 -1,0.7 -1.8,0.7 -0.8,0 -1.4,-0.2 -1.8,-0.7 -0.4,-0.5 -0.6,-1.1 -0.6,-2 0,-0.9 0.2,-1.5 0.6,-2 0.4,-0.5 1,-0.7 1.8,-0.7 0.8,0 1.4,0.2 1.8,0.7 0.4,0.5 0.6,1.2 0.6,2 z m -3.9,0 c 0,0.6 0.1,1.1 0.4,1.4 0.3,0.3 0.6,0.5 1.1,0.5 0.5,0 0.9,-0.2 1.1,-0.5 0.3,-0.3 0.4,-0.8 0.4,-1.5 0,-0.6 -0.1,-1.1 -0.4,-1.4 -0.3,-0.3 -0.6,-0.5 -1.1,-0.5 -0.5,0 -0.9,0.2 -1.1,0.5 -0.3,0.4 -0.4,0.9 -0.4,1.5 z"
   id="path1033" />
			<path
   class="st0"
   d="m 92.6,71 h -1 l -2.5,-4.1 v 0 0.2 c 0,0.4 0,0.8 0,1.2 V 71 h -0.8 v -5.2 h 1 l 2.5,4.1 v 0 c 0,-0.1 0,-0.3 0,-0.6 0,-0.3 0,-0.6 0,-0.8 v -2.7 h 0.8 z"
   id="path1035" />
			<path
   class="st0"
   d="m 94.8,70.3 c -0.1,0.4 -0.3,1 -0.6,1.7 h -0.6 c 0.2,-0.6 0.3,-1.2 0.4,-1.8 z"
   id="path1037" />
		</g>
		<g
   class="st3"
   id="g1077">
			<path
   class="st0"
   d="m 9.7,77.6 v 2.1 H 8.9 v -5.2 h 1.5 c 0.7,0 1.2,0.1 1.5,0.4 0.3,0.3 0.5,0.6 0.5,1.1 0,0.6 -0.3,1.1 -1,1.4 l 1.5,2.3 h -1 l -1.2,-2.1 z m 0,-0.7 h 0.6 c 0.4,0 0.7,-0.1 0.9,-0.2 0.2,-0.1 0.3,-0.4 0.3,-0.7 0,-0.3 -0.1,-0.5 -0.3,-0.6 C 11,75.3 10.7,75.2 10.3,75.2 H 9.7 Z"
   id="path1041" />
			<path
   class="st0"
   d="m 16.4,79.7 h -2.9 v -5.2 h 2.9 v 0.7 h -2.1 v 1.4 h 1.9 v 0.7 H 14.3 V 79 h 2.1 z"
   id="path1043" />
			<path
   class="st0"
   d="m 20.5,78.3 c 0,0.5 -0.2,0.8 -0.5,1.1 -0.3,0.3 -0.8,0.4 -1.4,0.4 -0.6,0 -1.1,-0.1 -1.4,-0.3 v -0.8 c 0.2,0.1 0.5,0.2 0.8,0.3 0.3,0.1 0.5,0.1 0.7,0.1 0.3,0 0.6,-0.1 0.7,-0.2 0.2,-0.1 0.2,-0.3 0.2,-0.5 0,-0.2 -0.1,-0.4 -0.2,-0.5 -0.1,-0.1 -0.4,-0.3 -0.9,-0.5 -0.5,-0.2 -0.8,-0.4 -1,-0.7 -0.2,-0.3 -0.3,-0.5 -0.3,-0.9 0,-0.4 0.2,-0.8 0.5,-1 0.3,-0.2 0.7,-0.4 1.2,-0.4 0.5,0 1,0.1 1.5,0.3 l -0.3,0.7 c -0.5,-0.2 -0.9,-0.3 -1.2,-0.3 -0.3,0 -0.5,0.1 -0.6,0.2 -0.1,0.1 -0.2,0.3 -0.2,0.5 0,0.1 0,0.2 0.1,0.3 0.1,0.1 0.1,0.2 0.3,0.3 0.2,0.1 0.4,0.2 0.7,0.3 0.4,0.2 0.7,0.3 0.8,0.4 0.2,0.1 0.3,0.3 0.4,0.5 0.1,0.2 0.1,0.5 0.1,0.7 z"
   id="path1045" />
			<path
   class="st0"
   d="m 24.5,79.7 h -2.9 v -5.2 h 2.9 v 0.7 h -2.1 v 1.4 h 1.9 v 0.7 H 22.4 V 79 h 2.1 z"
   id="path1047" />
			<path
   class="st0"
   d="m 28.8,79.7 -0.5,-1.4 h -2 l -0.5,1.4 h -0.9 l 1.9,-5.2 h 0.9 l 1.9,5.2 z M 28,77.5 27.5,76.1 c 0,-0.1 -0.1,-0.2 -0.1,-0.4 -0.1,-0.2 -0.1,-0.4 -0.1,-0.4 -0.1,0.3 -0.2,0.6 -0.3,1 l -0.5,1.3 H 28 Z"
   id="path1049" />
			<path
   class="st0"
   d="m 31.2,77.6 v 2.1 h -0.8 v -5.2 h 1.5 c 0.7,0 1.2,0.1 1.5,0.4 0.3,0.3 0.5,0.6 0.5,1.1 0,0.6 -0.3,1.1 -1,1.4 l 1.5,2.3 h -1 l -1.2,-2.1 z m 0,-0.7 h 0.6 c 0.4,0 0.7,-0.1 0.9,-0.2 0.2,-0.1 0.3,-0.4 0.3,-0.7 0,-0.3 -0.1,-0.5 -0.3,-0.6 -0.2,-0.1 -0.5,-0.2 -0.9,-0.2 h -0.6 z"
   id="path1051" />
			<path
   class="st0"
   d="m 37.2,75.2 c -0.5,0 -0.9,0.2 -1.1,0.5 -0.3,0.3 -0.4,0.8 -0.4,1.4 0,0.6 0.1,1.1 0.4,1.4 0.3,0.3 0.7,0.5 1.2,0.5 0.2,0 0.4,0 0.6,-0.1 0.2,0 0.4,-0.1 0.6,-0.2 v 0.7 c -0.4,0.2 -0.9,0.2 -1.4,0.2 -0.8,0 -1.3,-0.2 -1.7,-0.7 -0.4,-0.5 -0.6,-1.1 -0.6,-2 0,-0.5 0.1,-1 0.3,-1.4 0.2,-0.4 0.5,-0.7 0.9,-0.9 0.4,-0.2 0.8,-0.3 1.3,-0.3 0.5,0 1,0.1 1.5,0.3 l -0.3,0.7 c -0.2,-0.1 -0.4,-0.2 -0.6,-0.2 -0.3,0.1 -0.5,0.1 -0.7,0.1 z"
   id="path1053" />
			<path
   class="st0"
   d="m 43.7,79.7 h -0.8 v -2.3 h -2.4 v 2.3 h -0.8 v -5.2 h 0.8 v 2.1 h 2.4 v -2.1 h 0.8 z"
   id="path1055" />
			<path
   class="st0"
   d="m 45.8,79 c -0.1,0.4 -0.3,1 -0.6,1.7 h -0.6 c 0.2,-0.6 0.3,-1.2 0.4,-1.8 z"
   id="path1057" />
			<path
   class="st0"
   d="m 48.5,78.3 c 0,-0.3 0.1,-0.6 0.2,-0.8 0.2,-0.2 0.4,-0.5 0.8,-0.7 -0.2,-0.3 -0.4,-0.5 -0.5,-0.7 0,-0.1 0,-0.3 0,-0.5 0,-0.4 0.1,-0.6 0.4,-0.8 0.3,-0.2 0.6,-0.3 1,-0.3 0.4,0 0.7,0.1 1,0.3 0.2,0.2 0.4,0.5 0.4,0.8 0,0.3 -0.1,0.5 -0.2,0.7 -0.2,0.2 -0.4,0.4 -0.8,0.7 l 1.2,1.2 c 0.2,-0.3 0.3,-0.6 0.5,-1.1 h 0.9 c -0.2,0.7 -0.4,1.2 -0.8,1.6 l 1.1,1 h -1.1 l -0.5,-0.5 c -0.2,0.2 -0.5,0.3 -0.8,0.4 -0.3,0.1 -0.6,0.1 -0.9,0.1 -0.5,0 -1,-0.1 -1.3,-0.4 -0.4,-0.2 -0.6,-0.5 -0.6,-1 z m 1.8,0.8 c 0.4,0 0.8,-0.1 1.1,-0.4 L 50,77.4 c -0.2,0.2 -0.4,0.3 -0.5,0.5 -0.1,0.1 -0.1,0.3 -0.1,0.5 0,0.2 0.1,0.4 0.2,0.6 0.2,0 0.4,0.1 0.7,0.1 z m -0.5,-3.4 c 0,0.1 0,0.3 0.1,0.4 0.1,0.1 0.2,0.3 0.3,0.4 0.3,-0.2 0.5,-0.3 0.6,-0.4 0.1,-0.1 0.2,-0.3 0.2,-0.4 0,-0.2 -0.1,-0.3 -0.2,-0.4 -0.1,-0.1 -0.2,-0.1 -0.4,-0.1 -0.2,0 -0.3,0 -0.4,0.1 -0.1,0.1 -0.2,0.2 -0.2,0.4 z"
   id="path1059" />
			<path
   class="st0"
   d="m 60.7,77.1 c 0,0.8 -0.2,1.5 -0.6,2 -0.4,0.5 -1,0.7 -1.8,0.7 -0.8,0 -1.4,-0.2 -1.8,-0.7 -0.4,-0.5 -0.6,-1.1 -0.6,-2 0,-0.9 0.2,-1.5 0.6,-2 0.4,-0.5 1,-0.7 1.8,-0.7 0.8,0 1.4,0.2 1.8,0.7 0.4,0.5 0.6,1.2 0.6,2 z m -4,0 c 0,0.6 0.1,1.1 0.4,1.4 0.3,0.3 0.6,0.5 1.1,0.5 0.5,0 0.9,-0.2 1.1,-0.5 0.3,-0.3 0.4,-0.8 0.4,-1.5 0,-0.6 -0.1,-1.1 -0.4,-1.4 -0.3,-0.3 -0.6,-0.5 -1.1,-0.5 -0.5,0 -0.9,0.2 -1.1,0.5 -0.2,0.4 -0.4,0.9 -0.4,1.5 z"
   id="path1061" />
			<path
   class="st0"
   d="m 65.9,74.5 v 3.3 c 0,0.4 -0.1,0.7 -0.2,1 -0.2,0.3 -0.4,0.5 -0.7,0.7 -0.3,0.2 -0.7,0.2 -1.1,0.2 -0.6,0 -1.1,-0.2 -1.5,-0.5 -0.4,-0.3 -0.5,-0.8 -0.5,-1.4 v -3.3 h 0.8 v 3.3 c 0,0.4 0.1,0.7 0.3,0.9 0.2,0.2 0.5,0.3 0.9,0.3 0.8,0 1.2,-0.4 1.2,-1.3 v -3.3 h 0.8 z"
   id="path1063" />
			<path
   class="st0"
   d="m 69,79.7 h -0.8 v -4.4 h -1.5 v -0.7 h 3.9 v 0.7 H 69 Z"
   id="path1065" />
			<path
   class="st0"
   d="m 72.1,77.6 v 2.1 h -0.8 v -5.2 h 1.5 c 0.7,0 1.2,0.1 1.5,0.4 0.3,0.2 0.5,0.6 0.5,1.1 0,0.6 -0.3,1.1 -1,1.4 l 1.5,2.3 h -1 L 73,77.6 Z m 0,-0.7 h 0.6 c 0.4,0 0.7,-0.1 0.9,-0.2 0.2,-0.1 0.3,-0.4 0.3,-0.7 0,-0.3 -0.1,-0.5 -0.3,-0.6 -0.2,-0.1 -0.5,-0.2 -0.9,-0.2 h -0.6 z"
   id="path1067" />
			<path
   class="st0"
   d="m 78.8,79.7 h -2.9 v -5.2 h 2.9 v 0.7 h -2.1 v 1.4 h 2 v 0.7 h -2 V 79 h 2.1 z"
   id="path1069" />
			<path
   class="st0"
   d="m 83.2,79.7 -0.5,-1.4 h -2 l -0.5,1.4 h -0.9 l 1.9,-5.2 h 0.9 L 84,79.7 Z M 82.4,77.5 82,76.1 c 0,-0.1 -0.1,-0.2 -0.1,-0.4 -0.1,-0.2 -0.1,-0.4 -0.1,-0.4 -0.1,0.3 -0.2,0.6 -0.3,1 L 81,77.6 h 1.4 z"
   id="path1071" />
			<path
   class="st0"
   d="m 87,75.2 c -0.5,0 -0.9,0.2 -1.1,0.5 -0.2,0.3 -0.4,0.8 -0.4,1.4 0,0.6 0.1,1.1 0.4,1.4 0.3,0.3 0.7,0.5 1.2,0.5 0.2,0 0.4,0 0.6,-0.1 0.2,0 0.4,-0.1 0.6,-0.2 v 0.7 c -0.4,0.2 -0.9,0.2 -1.4,0.2 -0.8,0 -1.3,-0.2 -1.7,-0.7 -0.4,-0.5 -0.6,-1.1 -0.6,-2 0,-0.5 0.1,-1 0.3,-1.4 0.2,-0.4 0.5,-0.7 0.9,-0.9 0.4,-0.2 0.8,-0.3 1.3,-0.3 0.5,0 1,0.1 1.5,0.3 l -0.3,0.7 c -0.2,-0.1 -0.4,-0.2 -0.6,-0.2 -0.2,0 -0.5,0.1 -0.7,0.1 z"
   id="path1073" />
			<path
   class="st0"
   d="m 93.4,79.7 h -0.8 v -2.3 h -2.4 v 2.3 h -0.8 v -5.2 h 0.8 v 2.1 h 2.4 v -2.1 h 0.8 z"
   id="path1075" />
		</g>
		<g
   class="st3"
   id="g1087">
			<path
   class="st0"
   d="m 43.4,48.5 h 2 l -3.2,9.6 H 40 l -3.2,-9.6 h 2 l 1.8,5.7 c 0.1,0.3 0.2,0.7 0.3,1.2 0.1,0.4 0.2,0.8 0.2,0.9 0,-0.4 0.2,-1.1 0.5,-2.1 z"
   id="path1079" />
			<path
   class="st0"
   d="m 52.2,58.1 h -5.5 v -9.6 h 5.5 v 1.7 h -3.5 v 2.1 h 3.2 V 54 h -3.2 v 2.5 h 3.5 z"
   id="path1081" />
			<path
   class="st0"
   d="m 56.2,54.4 v 3.7 h -2 V 48.5 H 57 c 1.3,0 2.3,0.2 2.9,0.7 0.6,0.5 0.9,1.2 0.9,2.2 0,0.6 -0.2,1.1 -0.5,1.5 -0.3,0.4 -0.7,0.8 -1.3,1 1.4,2.1 2.4,3.5 2.8,4.2 h -2.2 l -2.3,-3.7 z m 0,-1.6 h 0.7 c 0.6,0 1.1,-0.1 1.4,-0.3 0.3,-0.2 0.5,-0.5 0.5,-1 0,-0.5 -0.2,-0.8 -0.5,-1 -0.3,-0.2 -0.8,-0.3 -1.4,-0.3 h -0.6 v 2.6 z"
   id="path1083" />
			<path
   class="st0"
   d="m 71.6,53.3 c 0,1.6 -0.4,2.8 -1.2,3.6 -0.8,0.8 -1.9,1.3 -3.4,1.3 -1.5,0 -2.6,-0.4 -3.4,-1.3 -0.8,-0.8 -1.2,-2.1 -1.2,-3.7 0,-1.6 0.4,-2.8 1.2,-3.6 0.8,-0.8 1.9,-1.3 3.4,-1.3 1.5,0 2.6,0.4 3.4,1.3 0.8,0.9 1.2,2.1 1.2,3.7 z m -6.9,0 c 0,1.1 0.2,1.9 0.6,2.4 0.4,0.5 1,0.8 1.8,0.8 1.6,0 2.4,-1.1 2.4,-3.2 0,-2.2 -0.8,-3.2 -2.4,-3.2 -0.8,0 -1.4,0.3 -1.8,0.8 -0.4,0.5 -0.6,1.3 -0.6,2.4 z"
   id="path1085" />
		</g>
	</g>
</g>
</svg>
