<?xml version="1.0" encoding="UTF-8" standalone="no"?>
<!-- Generator: Adobe Illustrator 24.3.0, SVG Export Plug-In . SVG Version: 6.00 Build 0)  -->

<svg
   version="1.1"
   id="Layer_1"
   x="0px"
   y="0px"
   viewBox="0 0 230 120"
   xml:space="preserve"
   sodipodi:docname="tamu.svg"
   width="230"
   height="120"
   inkscape:version="1.1.2 (0a00cf5339, 2022-02-04, custom)"
   xmlns:inkscape="http://www.inkscape.org/namespaces/inkscape"
   xmlns:sodipodi="http://sodipodi.sourceforge.net/DTD/sodipodi-0.dtd"
   xmlns="http://www.w3.org/2000/svg"
   xmlns:svg="http://www.w3.org/2000/svg"><defs
   id="defs6412" /><sodipodi:namedview
   id="namedview6410"
   pagecolor="#ffffff"
   bordercolor="#666666"
   borderopacity="1.0"
   inkscape:pageshadow="2"
   inkscape:pageopacity="0.0"
   inkscape:pagecheckerboard="0"
   showgrid="false"
   fit-margin-top="0"
   fit-margin-left="0"
   fit-margin-right="0"
   fit-margin-bottom="0"
   inkscape:zoom="2.5995086"
   inkscape:cx="331.0241"
   inkscape:cy="110.79017"
   inkscape:window-width="3440"
   inkscape:window-height="1369"
   inkscape:window-x="-8"
   inkscape:window-y="-8"
   inkscape:window-maximized="1"
   inkscape:current-layer="Layer_1"
   width="230px" />
<style
   type="text/css"
   id="style6277">
	.st0{fill:none;stroke:#FFFFFF;stroke-width:0.75;stroke-miterlimit:10;}
	.st1{fill:#FFFFFF;}
	.st2{fill:#B1B3B6;}
	.st3{enable-background:new    ;}
</style>
<g
   id="g1899"
   transform="matrix(0.59811927,0,0,0.59811927,-199.61757,19.233858)"><g
     id="g6407"
     transform="matrix(1.7767347,0,0,1.7767347,352.0691,30.401601)">
	<line
   class="st0"
   x1="96.800003"
   y1="3.7"
   x2="96.800003"
   y2="38.799999"
   id="line6279" />
	<g
   id="g6289">
		<polygon
   class="st1"
   points="70,31.5 75.3,31.5 82.2,14.7 86.4,14.7 87.9,11 69.2,11 65.4,21.3 65.7,11 61.1,11 57.1,21.2 57.7,11 52.6,11 52.6,31.5 57.1,31.5 61.3,21.2 61.1,31.5 65.6,31.5 72.7,14.7 76.9,14.7 "
   id="polygon6281" />
		<g
   id="g6287">
			<path
   class="st1"
   d="m 76.8,30.6 h -0.3 v -0.1 h 0.8 v 0.1 H 77 v 1 h -0.1 v -1 z"
   id="path6283" />
			<path
   class="st1"
   d="m 78.3,31.1 c 0,-0.1 0,-0.3 0,-0.5 v 0 c 0,0.1 -0.1,0.3 -0.1,0.4 L 78,31.5 H 77.9 L 77.7,31 c -0.1,-0.2 -0.1,-0.3 -0.1,-0.4 v 0 c 0,0.1 0,0.3 0,0.5 v 0.5 h -0.1 l 0.1,-1.1 h 0.2 L 78,31 c 0.1,0.1 0.1,0.3 0.1,0.4 v 0 c 0,-0.1 0.1,-0.2 0.1,-0.4 l 0.2,-0.5 h 0.2 l 0.1,1.1 h -0.1 z"
   id="path6285" />
		</g>
	</g>
	<line
   class="st0"
   x1="41.900002"
   y1="3.7"
   x2="41.900002"
   y2="38.799999"
   id="line6291" />
	<g
   id="g6313">
		<path
   class="st1"
   d="m 23.5,32 c 0,-0.5 0.4,-0.9 0.9,-0.9 0.5,0 0.9,0.4 0.9,0.9 0,0.5 -0.4,0.9 -0.9,0.9 -0.5,0 -0.9,-0.4 -0.9,-0.9 m 1.5,0 c 0,-0.4 -0.3,-0.7 -0.7,-0.7 -0.4,0 -0.7,0.3 -0.7,0.7 0,0.4 0.3,0.7 0.7,0.7 0.5,0.1 0.7,-0.2 0.7,-0.7 m -1,-0.5 h 0.4 c 0.2,0 0.4,0.1 0.4,0.3 0,0.2 -0.1,0.2 -0.3,0.3 l 0.3,0.4 h -0.2 l -0.3,-0.4 h -0.1 v 0.4 H 24 Z m 0.2,0.5 h 0.2 c 0.1,0 0.2,0 0.2,-0.1 0,-0.1 -0.1,-0.1 -0.2,-0.1 h -0.2 z"
   id="path6293" />
		<g
   id="g6311">
			<polygon
   class="st1"
   points="22.2,19.2 22.2,25.3 21.7,25.3 21.5,25.3 21.5,25.6 21.5,27 21.5,27.3 21.7,27.3 24.8,27.3 25,27.3 25,27 25,25.6 25,25.3 24.8,25.3 24.2,25.3 24.2,21 26.5,25.7 26.8,26.2 27,25.7 29.3,21 29.3,25.3 28.8,25.3 28.5,25.3 28.5,25.6 28.5,27 28.5,27.3 28.8,27.3 31.9,27.3 32.1,27.3 32.1,27 32.1,25.6 32.1,25.3 31.9,25.3 31.3,25.3 31.3,19.2 31.9,19.2 32.1,19.2 32.1,19 32.1,17.5 32.1,17.3 31.9,17.3 29,17.3 28.9,17.3 28.8,17.4 26.8,21.7 24.7,17.4 24.6,17.3 24.5,17.3 21.8,17.3 21.5,17.3 21.5,17.5 21.5,19 21.5,19.2 21.8,19.2 "
   id="polygon6295" />
			<path
   class="st1"
   d="m 14.1,25.3 h -0.8 l -2.6,-6.1 h 0.2 0.3 V 19 17.5 17.2 H 10.9 7.2 6.9 v 0.3 1.5 0.3 H 7.2 7.5 L 4.9,25.4 H 4 3.8 v 0.3 1.3 0.3 H 4 7.3 7.6 V 27 25.5 25.2 H 7.4 7.1 l 0.4,-1 h 3.2 l 0.4,1 h -0.3 -0.3 v 0.3 1.5 0.3 h 0.3 3.3 0.3 V 27 25.5 25.2 h -0.3 z m -4.3,-3 H 8.4 l 0.7,-1.7 z"
   id="path6297" />
			<polygon
   class="st1"
   points="13.3,28.6 13.3,28.9 13.3,32.6 13.3,32.9 13.6,32.9 22.2,32.9 22.5,32.9 22.5,32.6 22.5,28.9 22.5,28.6 22.2,28.6 20,28.6 20,13.5 24.6,13.5 24.6,15.6 24.6,15.9 24.9,15.9 28.6,15.9 28.9,15.9 28.9,15.6 28.9,9.9 28.9,9.6 28.6,9.6 7.2,9.6 6.9,9.6 6.9,9.9 6.9,15.7 6.9,16 7.2,16 10.9,16 11.2,16 11.2,15.7 11.2,13.5 15.8,13.5 15.8,28.6 13.6,28.6 "
   id="polygon6299" />
			<g
   id="g6309">
				<polygon
   class="st2"
   points="21.6,32 20.7,31.1 20.7,30.4 21.6,29.5 "
   id="polygon6301" />
				<polygon
   class="st2"
   points="18.3,11.8 19.2,12.7 19.2,29.5 18.3,30.4 "
   id="polygon6303" />
				<polygon
   class="st2"
   points="27.6,10.5 26.4,11.4 8.7,11.4 7.8,10.5 "
   id="polygon6305" />
				<polygon
   class="st2"
   points="27.2,11.9 28.1,11 28.1,15.1 27.2,14.2 "
   id="polygon6307" />
			</g>
		</g>
	</g>
	<g
   id="g6405">
		<g
   class="st3"
   id="g6355">
			<path
   class="st1"
   d="m 111.1,22.9 h 0.8 l -1.7,5 h -0.9 l -1.7,-5 h 0.8 l 1,3.1 c 0.1,0.1 0.1,0.3 0.2,0.6 0.1,0.2 0.1,0.4 0.1,0.5 0,-0.2 0.1,-0.4 0.1,-0.6 0.1,-0.2 0.1,-0.4 0.1,-0.5 z"
   id="path6315" />
			<path
   class="st1"
   d="m 115.4,27.8 h -2.8 v -5 h 2.8 v 0.7 h -2 v 1.3 h 1.9 v 0.7 h -1.9 v 1.6 h 2 z"
   id="path6317" />
			<path
   class="st1"
   d="m 118.1,27.8 h -0.8 v -4.3 h -1.5 v -0.7 h 3.7 v 0.7 H 118 v 4.3 z"
   id="path6319" />
			<path
   class="st1"
   d="m 123.2,27.8 h -2.8 v -5 h 2.8 v 0.7 h -2 v 1.3 h 1.9 v 0.7 h -1.9 v 1.6 h 2 z"
   id="path6321" />
			<path
   class="st1"
   d="m 125.1,25.9 v 2 h -0.8 v -5 h 1.4 c 0.6,0 1.1,0.1 1.4,0.4 0.3,0.2 0.5,0.6 0.5,1.1 0,0.6 -0.3,1.1 -1,1.3 l 1.4,2.2 h -1 l -1.2,-2 z m 0,-0.7 h 0.6 c 0.4,0 0.7,-0.1 0.8,-0.2 0.2,-0.1 0.3,-0.3 0.3,-0.6 0,-0.3 -0.1,-0.5 -0.3,-0.6 -0.2,-0.1 -0.5,-0.2 -0.8,-0.2 h -0.5 v 1.6 z"
   id="path6323" />
			<path
   class="st1"
   d="m 128.7,27.8 v -5 h 0.8 v 5 z"
   id="path6325" />
			<path
   class="st1"
   d="m 134.9,27.8 h -1 l -2.4,-4 v 0 0.2 c 0,0.4 0,0.8 0,1.2 v 2.6 h -0.7 v -5 h 1 l 2.4,3.9 v 0 c 0,-0.1 0,-0.2 0,-0.6 0,-0.3 0,-0.6 0,-0.8 v -2.6 h 0.7 z"
   id="path6327" />
			<path
   class="st1"
   d="m 139.3,27.8 -0.5,-1.4 h -1.9 l -0.5,1.4 h -0.9 l 1.9,-5 h 0.9 l 1.9,5 z m -0.7,-2 -0.5,-1.3 c 0,-0.1 -0.1,-0.2 -0.1,-0.4 -0.1,-0.2 -0.1,-0.3 -0.1,-0.4 -0.1,0.3 -0.2,0.6 -0.3,0.9 l -0.4,1.3 h 1.4 z"
   id="path6329" />
			<path
   class="st1"
   d="m 141.6,25.9 v 2 h -0.8 v -5 h 1.4 c 0.6,0 1.1,0.1 1.4,0.4 0.3,0.3 0.5,0.6 0.5,1.1 0,0.6 -0.3,1.1 -1,1.3 l 1.4,2.2 h -0.9 l -1.2,-2 z m 0,-0.7 h 0.6 c 0.4,0 0.7,-0.1 0.8,-0.2 0.2,-0.1 0.3,-0.3 0.3,-0.6 0,-0.3 -0.1,-0.5 -0.3,-0.6 -0.2,-0.1 -0.5,-0.2 -0.8,-0.2 h -0.5 v 1.6 z"
   id="path6331" />
			<path
   class="st1"
   d="m 146.7,25.1 1.2,-2.3 h 0.9 l -1.7,3 v 1.9 h -0.8 v -1.9 l -1.6,-3.1 h 0.9 z"
   id="path6333" />
			<path
   class="st1"
   d="m 154,27.8 h -2.8 v -5 h 2.8 v 0.7 h -2 v 1.3 h 1.9 v 0.7 H 152 v 1.6 h 2 z"
   id="path6335" />
			<path
   class="st1"
   d="m 159.1,25.3 c 0,0.8 -0.2,1.4 -0.7,1.9 -0.5,0.4 -1.1,0.6 -2,0.6 H 155 v -5 h 1.5 c 0.8,0 1.4,0.2 1.8,0.6 0.6,0.5 0.8,1.1 0.8,1.9 z m -0.9,0 c 0,-1.2 -0.6,-1.8 -1.7,-1.8 h -0.7 v 3.6 h 0.6 c 1.2,0.1 1.8,-0.6 1.8,-1.8 z"
   id="path6337" />
			<path
   class="st1"
   d="m 164,22.9 v 3.2 c 0,0.4 -0.1,0.7 -0.2,1 -0.2,0.3 -0.4,0.5 -0.7,0.6 -0.3,0.1 -0.7,0.2 -1.1,0.2 -0.6,0 -1.1,-0.2 -1.4,-0.5 -0.3,-0.3 -0.5,-0.8 -0.5,-1.3 v -3.2 h 0.8 V 26 c 0,0.4 0.1,0.7 0.3,0.9 0.2,0.2 0.5,0.3 0.9,0.3 0.8,0 1.1,-0.4 1.1,-1.2 v -3.1 z"
   id="path6339" />
			<path
   class="st1"
   d="m 167.4,23.5 c -0.5,0 -0.8,0.2 -1.1,0.5 -0.3,0.3 -0.4,0.8 -0.4,1.4 0,0.6 0.1,1.1 0.4,1.4 0.3,0.3 0.6,0.5 1.1,0.5 0.2,0 0.4,0 0.6,-0.1 0.2,0 0.4,-0.1 0.6,-0.2 v 0.7 c -0.4,0.1 -0.8,0.2 -1.3,0.2 -0.7,0 -1.3,-0.2 -1.7,-0.7 -0.4,-0.5 -0.6,-1.1 -0.6,-1.9 0,-0.5 0.1,-1 0.3,-1.4 0.2,-0.4 0.5,-0.7 0.8,-0.9 0.4,-0.2 0.8,-0.3 1.3,-0.3 0.5,0 1,0.1 1.4,0.3 l -0.3,0.7 c -0.2,-0.1 -0.3,-0.1 -0.5,-0.2 -0.2,0 -0.4,0 -0.6,0 z"
   id="path6341" />
			<path
   class="st1"
   d="m 172.8,27.8 -0.5,-1.4 h -1.9 l -0.5,1.4 H 169 l 1.9,-5 h 0.9 l 1.9,5 z m -0.7,-2 -0.5,-1.3 c 0,-0.1 -0.1,-0.2 -0.1,-0.4 0,-0.2 -0.1,-0.3 -0.1,-0.4 -0.1,0.3 -0.2,0.6 -0.3,0.9 l -0.4,1.3 h 1.4 z"
   id="path6343" />
			<path
   class="st1"
   d="m 176,27.8 h -0.8 v -4.3 h -1.5 v -0.7 h 3.7 v 0.7 H 176 Z"
   id="path6345" />
			<path
   class="st1"
   d="m 178.2,27.8 v -5 h 0.8 v 5 z"
   id="path6347" />
			<path
   class="st1"
   d="m 184.8,25.3 c 0,0.8 -0.2,1.4 -0.6,1.9 -0.4,0.5 -1,0.7 -1.7,0.7 -0.7,0 -1.3,-0.2 -1.7,-0.7 -0.4,-0.4 -0.6,-1.1 -0.6,-1.9 0,-0.8 0.2,-1.4 0.6,-1.9 0.4,-0.4 1,-0.7 1.7,-0.7 0.7,0 1.3,0.2 1.7,0.7 0.4,0.5 0.6,1.1 0.6,1.9 z m -3.8,0 c 0,0.6 0.1,1.1 0.4,1.4 0.2,0.3 0.6,0.5 1.1,0.5 0.5,0 0.8,-0.2 1.1,-0.5 0.3,-0.3 0.4,-0.8 0.4,-1.4 0,-0.6 -0.1,-1.1 -0.4,-1.4 -0.2,-0.3 -0.6,-0.5 -1.1,-0.5 -0.5,0 -0.9,0.2 -1.1,0.5 -0.3,0.4 -0.4,0.8 -0.4,1.4 z"
   id="path6349" />
			<path
   class="st1"
   d="m 189.9,27.8 h -1 l -2.4,-4 v 0 0.2 c 0,0.4 0,0.8 0,1.2 v 2.6 h -0.7 v -5 h 1 l 2.4,3.9 v 0 c 0,-0.1 0,-0.2 0,-0.6 0,-0.3 0,-0.6 0,-0.8 v -2.6 h 0.7 z"
   id="path6351" />
			<path
   class="st1"
   d="m 192,27.1 c -0.1,0.4 -0.3,1 -0.6,1.6 h -0.6 c 0.2,-0.6 0.3,-1.2 0.3,-1.7 z"
   id="path6353" />
		</g>
		<g
   class="st3"
   id="g6393">
			<path
   class="st1"
   d="m 109.1,34.2 v 2 h -0.8 v -5 h 1.4 c 0.6,0 1.1,0.1 1.4,0.4 0.3,0.2 0.5,0.6 0.5,1.1 0,0.6 -0.3,1.1 -1,1.3 l 1.4,2.2 h -1 l -1.2,-2 z m 0,-0.7 h 0.6 c 0.4,0 0.7,-0.1 0.8,-0.2 0.2,-0.1 0.3,-0.3 0.3,-0.6 0,-0.3 -0.1,-0.5 -0.3,-0.6 -0.2,-0.1 -0.5,-0.2 -0.8,-0.2 h -0.5 v 1.6 z"
   id="path6357" />
			<path
   class="st1"
   d="m 115.5,36.2 h -2.8 v -5 h 2.8 v 0.7 h -2 v 1.3 h 1.9 v 0.7 h -1.9 v 1.6 h 2 z"
   id="path6359" />
			<path
   class="st1"
   d="m 119.4,34.8 c 0,0.4 -0.2,0.8 -0.5,1 -0.3,0.3 -0.8,0.4 -1.3,0.4 -0.5,0 -1,-0.1 -1.4,-0.3 v -0.8 c 0.2,0.1 0.5,0.2 0.7,0.3 0.3,0.1 0.5,0.1 0.7,0.1 0.3,0 0.6,-0.1 0.7,-0.2 0.1,-0.1 0.2,-0.3 0.2,-0.5 0,-0.2 -0.1,-0.3 -0.2,-0.5 -0.1,-0.1 -0.4,-0.3 -0.9,-0.5 -0.5,-0.2 -0.8,-0.4 -1,-0.6 -0.2,-0.2 -0.3,-0.5 -0.3,-0.8 0,-0.4 0.1,-0.7 0.4,-1 0.3,-0.3 0.7,-0.4 1.2,-0.4 0.5,0 0.9,0.1 1.4,0.3 l -0.3,0.7 c -0.4,-0.2 -0.8,-0.3 -1.2,-0.3 -0.3,0 -0.5,0.1 -0.6,0.2 -0.1,0.1 -0.2,0.3 -0.2,0.5 0,0.1 0,0.2 0.1,0.3 0.1,0.1 0.1,0.2 0.3,0.3 0.1,0.1 0.3,0.2 0.7,0.3 0.4,0.2 0.6,0.3 0.8,0.4 0.2,0.1 0.3,0.3 0.4,0.4 0.1,0.1 0.3,0.5 0.3,0.7 z"
   id="path6361" />
			<path
   class="st1"
   d="m 123.2,36.2 h -2.8 v -5 h 2.8 v 0.7 h -2 v 1.3 h 1.9 v 0.7 h -1.9 v 1.6 h 2 z"
   id="path6363" />
			<path
   class="st1"
   d="m 127.3,36.2 -0.5,-1.4 h -1.9 l -0.5,1.4 h -0.9 l 1.9,-5 h 0.9 l 1.9,5 z m -0.7,-2.1 -0.5,-1.3 c 0,-0.1 -0.1,-0.2 -0.1,-0.4 -0.1,-0.2 -0.1,-0.3 -0.1,-0.4 -0.1,0.3 -0.2,0.6 -0.3,0.9 l -0.4,1.3 h 1.4 z"
   id="path6365" />
			<path
   class="st1"
   d="m 129.7,34.2 v 2 h -0.8 v -5 h 1.4 c 0.6,0 1.1,0.1 1.4,0.4 0.3,0.2 0.5,0.6 0.5,1.1 0,0.6 -0.3,1.1 -1,1.3 l 1.4,2.2 h -0.9 l -1.2,-2 z m 0,-0.7 h 0.6 c 0.4,0 0.7,-0.1 0.8,-0.2 0.2,-0.1 0.3,-0.3 0.3,-0.6 0,-0.3 -0.1,-0.5 -0.3,-0.6 -0.2,-0.1 -0.5,-0.2 -0.8,-0.2 h -0.5 v 1.6 z"
   id="path6367" />
			<path
   class="st1"
   d="m 135.4,31.8 c -0.5,0 -0.8,0.2 -1.1,0.5 -0.3,0.3 -0.4,0.8 -0.4,1.4 0,0.6 0.1,1.1 0.4,1.4 0.3,0.3 0.6,0.5 1.1,0.5 0.2,0 0.4,0 0.6,-0.1 0.2,0 0.4,-0.1 0.6,-0.2 V 36 c -0.4,0.1 -0.8,0.2 -1.3,0.2 -0.7,0 -1.3,-0.2 -1.7,-0.7 -0.4,-0.5 -0.6,-1.1 -0.6,-1.9 0,-0.5 0.1,-1 0.3,-1.4 0.2,-0.4 0.5,-0.7 0.8,-0.9 0.4,-0.2 0.8,-0.3 1.3,-0.3 0.5,0 1,0.1 1.4,0.3 l -0.3,0.7 c -0.2,-0.1 -0.3,-0.1 -0.5,-0.2 -0.2,0.1 -0.4,0 -0.6,0 z"
   id="path6369" />
			<path
   class="st1"
   d="m 141.6,36.2 h -0.8 V 34 h -2.3 v 2.2 h -0.8 v -5 h 0.8 v 2 h 2.3 v -2 h 0.8 z"
   id="path6371" />
			<path
   class="st1"
   d="m 143.6,35.4 c -0.1,0.4 -0.3,1 -0.6,1.6 h -0.6 c 0.2,-0.6 0.3,-1.2 0.3,-1.7 z"
   id="path6373" />
			<path
   class="st1"
   d="m 146.2,34.9 c 0,-0.3 0.1,-0.6 0.2,-0.8 0.1,-0.2 0.4,-0.4 0.8,-0.7 -0.2,-0.3 -0.4,-0.5 -0.4,-0.6 0,-0.1 -0.1,-0.4 -0.1,-0.5 0,-0.3 0.1,-0.6 0.4,-0.8 0.2,-0.2 0.6,-0.3 1,-0.3 0.4,0 0.7,0.1 0.9,0.3 0.2,0.2 0.3,0.5 0.3,0.8 0,0.3 -0.1,0.5 -0.2,0.7 -0.2,0.2 -0.4,0.4 -0.8,0.6 l 1.2,1.1 c 0.2,-0.2 0.3,-0.6 0.5,-1.1 h 0.8 c -0.2,0.6 -0.4,1.2 -0.8,1.6 l 1,1 h -1 l -0.5,-0.5 c -0.2,0.2 -0.5,0.3 -0.7,0.4 -0.3,0.1 -0.6,0.1 -0.9,0.1 -0.5,0 -0.9,-0.1 -1.2,-0.4 -0.3,-0.3 -0.5,-0.5 -0.5,-0.9 z m 1.7,0.6 c 0.4,0 0.8,-0.1 1.1,-0.4 l -1.3,-1.3 c -0.2,0.2 -0.4,0.3 -0.5,0.4 -0.1,0.1 -0.1,0.3 -0.1,0.5 0,0.2 0.1,0.4 0.2,0.5 0.2,0.3 0.4,0.3 0.6,0.3 z m -0.5,-3.2 c 0,0.1 0,0.3 0.1,0.4 0.1,0.1 0.2,0.3 0.3,0.4 0.3,-0.1 0.4,-0.3 0.5,-0.4 0.1,-0.1 0.2,-0.3 0.2,-0.4 0,-0.1 0,-0.3 -0.1,-0.4 -0.1,-0.1 -0.2,-0.1 -0.4,-0.1 -0.2,0 -0.3,0 -0.4,0.1 -0.1,0.1 -0.2,0.2 -0.2,0.4 z"
   id="path6375" />
			<path
   class="st1"
   d="m 157.9,33.7 c 0,0.8 -0.2,1.4 -0.6,1.9 -0.4,0.5 -1,0.7 -1.7,0.7 -0.7,0 -1.3,-0.2 -1.7,-0.7 -0.4,-0.4 -0.6,-1.1 -0.6,-1.9 0,-0.8 0.2,-1.4 0.6,-1.9 0.4,-0.4 1,-0.7 1.7,-0.7 0.7,0 1.3,0.2 1.7,0.7 0.4,0.5 0.6,1.1 0.6,1.9 z m -3.8,0 c 0,0.6 0.1,1.1 0.4,1.4 0.2,0.3 0.6,0.5 1.1,0.5 0.5,0 0.8,-0.2 1.1,-0.5 0.3,-0.3 0.4,-0.8 0.4,-1.4 0,-0.6 -0.1,-1.1 -0.4,-1.4 -0.2,-0.3 -0.6,-0.5 -1.1,-0.5 -0.5,0 -0.9,0.2 -1.1,0.5 -0.3,0.3 -0.4,0.8 -0.4,1.4 z"
   id="path6377" />
			<path
   class="st1"
   d="m 162.8,31.2 v 3.2 c 0,0.4 -0.1,0.7 -0.2,1 -0.2,0.3 -0.4,0.5 -0.7,0.6 -0.3,0.1 -0.7,0.2 -1.1,0.2 -0.6,0 -1.1,-0.2 -1.4,-0.5 -0.3,-0.3 -0.5,-0.8 -0.5,-1.3 v -3.2 h 0.8 v 3.1 c 0,0.4 0.1,0.7 0.3,0.9 0.2,0.2 0.5,0.3 0.9,0.3 0.8,0 1.1,-0.4 1.1,-1.2 v -3.1 z"
   id="path6379" />
			<path
   class="st1"
   d="M 165.8,36.2 H 165 v -4.3 h -1.5 v -0.7 h 3.7 v 0.7 h -1.5 v 4.3 z"
   id="path6381" />
			<path
   class="st1"
   d="m 168.9,34.2 v 2 H 168 v -5 h 1.4 c 0.6,0 1.1,0.1 1.4,0.4 0.3,0.3 0.5,0.6 0.5,1.1 0,0.6 -0.3,1.1 -1,1.3 l 1.4,2.2 h -0.9 l -1.2,-2 z m 0,-0.7 h 0.6 c 0.4,0 0.7,-0.1 0.8,-0.2 0.2,-0.1 0.3,-0.3 0.3,-0.6 0,-0.3 -0.1,-0.5 -0.3,-0.6 -0.2,-0.1 -0.5,-0.2 -0.8,-0.2 H 169 v 1.6 z"
   id="path6383" />
			<path
   class="st1"
   d="m 175.3,36.2 h -2.8 v -5 h 2.8 v 0.7 h -2 v 1.3 h 1.9 v 0.7 h -1.9 v 1.6 h 2 z"
   id="path6385" />
			<path
   class="st1"
   d="m 179.4,36.2 -0.5,-1.4 H 177 l -0.5,1.4 h -0.9 l 1.9,-5 h 0.9 l 1.9,5 z m -0.7,-2.1 -0.5,-1.3 c 0,-0.1 -0.1,-0.2 -0.1,-0.4 0,-0.2 -0.1,-0.4 -0.1,-0.5 -0.1,0.3 -0.2,0.6 -0.3,0.9 l -0.4,1.3 z"
   id="path6387" />
			<path
   class="st1"
   d="m 183.1,31.8 c -0.5,0 -0.8,0.2 -1.1,0.5 -0.3,0.3 -0.4,0.8 -0.4,1.4 0,0.6 0.1,1.1 0.4,1.4 0.3,0.3 0.6,0.5 1.1,0.5 0.2,0 0.4,0 0.6,-0.1 0.2,0 0.4,-0.1 0.6,-0.2 V 36 c -0.4,0.1 -0.8,0.2 -1.3,0.2 -0.7,0 -1.3,-0.2 -1.7,-0.7 -0.4,-0.5 -0.6,-1.1 -0.6,-1.9 0,-0.5 0.1,-1 0.3,-1.4 0.2,-0.4 0.5,-0.7 0.8,-0.9 0.4,-0.2 0.8,-0.3 1.3,-0.3 0.5,0 1,0.1 1.4,0.3 l -0.3,0.7 c -0.2,-0.1 -0.3,-0.1 -0.5,-0.2 -0.2,0.1 -0.4,0 -0.6,0 z"
   id="path6389" />
			<path
   class="st1"
   d="m 189.3,36.2 h -0.8 V 34 h -2.3 v 2.2 h -0.8 v -5 h 0.8 v 2 h 2.3 v -2 h 0.8 z"
   id="path6391" />
		</g>
		<g
   class="st3"
   id="g6403">
			<path
   class="st1"
   d="m 114,6.3 h 2 l -3.1,9.2 h -2.1 l -3.1,-9.2 h 2 l 1.7,5.4 c 0.1,0.3 0.2,0.7 0.3,1.1 0.1,0.4 0.2,0.7 0.2,0.9 0,-0.4 0.2,-1.1 0.5,-2 z"
   id="path6395" />
			<path
   class="st1"
   d="M 122.3,15.4 H 117 V 6.3 h 5.3 V 7.9 H 119 v 2 h 3.1 v 1.6 H 119 v 2.4 h 3.3 z"
   id="path6397" />
			<path
   class="st1"
   d="m 126.2,11.9 v 3.5 h -1.9 V 6.3 h 2.7 c 1.2,0 2.2,0.2 2.8,0.7 0.6,0.5 0.9,1.1 0.9,2.1 0,0.5 -0.1,1 -0.4,1.4 -0.3,0.4 -0.7,0.7 -1.3,1 1.4,2.1 2.3,3.4 2.7,4 h -2.2 L 127.3,12 h -1.1 z m 0,-1.6 h 0.6 c 0.6,0 1.1,-0.1 1.4,-0.3 0.3,-0.2 0.4,-0.5 0.4,-1 0,-0.4 -0.1,-0.7 -0.4,-0.9 -0.3,-0.2 -0.8,-0.3 -1.4,-0.3 h -0.6 z"
   id="path6399" />
			<path
   class="st1"
   d="m 141,10.8 c 0,1.5 -0.4,2.7 -1.1,3.5 -0.8,0.8 -1.8,1.2 -3.2,1.2 -1.4,0 -2.5,-0.4 -3.2,-1.2 -0.8,-0.8 -1.1,-2 -1.1,-3.5 0,-1.5 0.4,-2.7 1.1,-3.5 0.7,-0.8 1.8,-1.2 3.2,-1.2 1.4,0 2.5,0.4 3.2,1.2 0.7,0.9 1.1,2 1.1,3.5 z m -6.7,0 c 0,1 0.2,1.8 0.6,2.3 0.4,0.5 1,0.8 1.7,0.8 1.5,0 2.3,-1 2.3,-3.1 0,-2.1 -0.8,-3.1 -2.3,-3.1 -0.8,0 -1.4,0.3 -1.7,0.8 -0.4,0.5 -0.6,1.3 -0.6,2.3 z"
   id="path6401" />
		</g>
	</g>
</g></g>
</svg>
